G04 #@! TF.FileFunction,Other,User*
%FSLAX46Y46*%
G04 Gerber Fmt 4.6, Leading zero omitted, Abs format (unit mm)*
G04 Created by KiCad (PCBNEW 4.0.2+dfsg1-stable) date Thu 14 Apr 2016 07:40:31 AM EDT*
%MOMM*%
G01*
G04 APERTURE LIST*
%ADD10C,0.100000*%
%ADD11C,0.050000*%
G04 APERTURE END LIST*
D10*
D11*
X15339000Y12164000D02*
X15339000Y6114000D01*
X11839000Y12164000D02*
X11839000Y6114000D01*
X15339000Y12164000D02*
X11839000Y12164000D01*
X15339000Y6114000D02*
X11839000Y6114000D01*
X50264000Y5997000D02*
X39114000Y5997000D01*
X50264000Y9497000D02*
X39114000Y9497000D01*
X50264000Y5997000D02*
X50264000Y9497000D01*
X39114000Y5997000D02*
X39114000Y9497000D01*
X15335968Y24670348D02*
X15335968Y13520348D01*
X11835968Y24670348D02*
X11835968Y13520348D01*
X15335968Y24670348D02*
X11835968Y24670348D01*
X15335968Y13520348D02*
X11835968Y13520348D01*
X50264000Y30578999D02*
X50264000Y14378999D01*
X46764000Y30578999D02*
X46764000Y14378999D01*
X50264000Y30578999D02*
X46764000Y30578999D01*
X50264000Y14378999D02*
X46764000Y14378999D01*
X5743001Y41501000D02*
X14343001Y41501000D01*
X5743001Y38001000D02*
X14343001Y38001000D01*
X5743001Y41501000D02*
X5743001Y38001000D01*
X14343001Y41501000D02*
X14343001Y38001000D01*
X11529000Y24670348D02*
X11529000Y16070348D01*
X8029000Y24670348D02*
X8029000Y16070348D01*
X11529000Y24670348D02*
X8029000Y24670348D01*
X11529000Y16070348D02*
X8029000Y16070348D01*
X42516999Y14506000D02*
X31366999Y14506000D01*
X42516999Y18006000D02*
X31366999Y18006000D01*
X42516999Y14506000D02*
X42516999Y18006000D01*
X31366999Y14506000D02*
X31366999Y18006000D01*
X5743000Y35405000D02*
X14343000Y35405000D01*
X5743000Y29355000D02*
X14343000Y29355000D01*
X5743000Y35405000D02*
X5743000Y29355000D01*
X14343000Y35405000D02*
X14343000Y29355000D01*
X52169000Y44168000D02*
X52169000Y35568000D01*
X46119000Y44168000D02*
X46119000Y35568000D01*
X52169000Y44168000D02*
X46119000Y44168000D01*
X52169000Y35568000D02*
X46119000Y35568000D01*
X24102000Y409000D02*
X15502000Y409000D01*
X24102000Y6459000D02*
X15502000Y6459000D01*
X24102000Y409000D02*
X24102000Y6459000D01*
X15502000Y409000D02*
X15502000Y6459000D01*
X16792000Y25174000D02*
X16792000Y31224000D01*
X20292000Y25174000D02*
X20292000Y31224000D01*
X16792000Y25174000D02*
X20292000Y25174000D01*
X16792000Y31224000D02*
X20292000Y31224000D01*
X35334000Y25174000D02*
X38834000Y25174000D01*
X16792000Y35842000D02*
X20292000Y35842000D01*
X35334000Y35842000D02*
X38834000Y35842000D01*
X35334000Y25174000D02*
X35334000Y31224000D01*
X16792000Y35842000D02*
X16792000Y41892000D01*
X35334000Y35842000D02*
X35334000Y41892000D01*
X38834000Y25174000D02*
X38834000Y31224000D01*
X20292000Y35842000D02*
X20292000Y41892000D01*
X38834000Y35842000D02*
X38834000Y41892000D01*
X35334000Y31224000D02*
X38834000Y31224000D01*
X16792000Y41892000D02*
X20292000Y41892000D01*
X35334000Y41892000D02*
X38834000Y41892000D01*
X34572000Y43843000D02*
X34572000Y49893000D01*
X38072000Y43843000D02*
X38072000Y49893000D01*
X34572000Y43843000D02*
X38072000Y43843000D01*
X34572000Y49893000D02*
X38072000Y49893000D01*
X4425000Y17353000D02*
X4425000Y20853000D01*
X7925000Y17353000D02*
X7925000Y20853000D01*
X4425000Y17353000D02*
X7925000Y17353000D01*
X4425000Y20853000D02*
X7925000Y20853000D01*
X21325000Y6753000D02*
X21325000Y10253000D01*
X24825000Y6753000D02*
X24825000Y10253000D01*
X21325000Y6753000D02*
X24825000Y6753000D01*
X21325000Y10253000D02*
X24825000Y10253000D01*
X22125000Y25153000D02*
X22125000Y28653000D01*
X25625000Y25153000D02*
X25625000Y28653000D01*
X22125000Y25153000D02*
X25625000Y25153000D01*
X22125000Y28653000D02*
X25625000Y28653000D01*
M02*
