M48
;DRILL file {KiCad 4.0.2+dfsg1-stable} date Thu 14 Apr 2016 07:39:15 AM EDT
;FORMAT={-:-/ absolute / metric / decimal}
FMAT,2
METRIC,TZ
T1C0.400
T2C1.016
T3C1.300
T4C3.048
%
G90
G05
M71
T1
X7.95Y25.895
X8.802Y43.956
X33.75Y9.8
X42.223Y29.368
T2
X6.175Y19.103
X7.493Y33.655
X7.493Y31.115
X7.493Y39.751
X9.779Y22.92
X9.779Y20.38
X9.779Y17.84
X10.033Y33.655
X10.033Y31.115
X10.033Y39.751
X12.573Y33.655
X12.573Y31.115
X12.573Y39.751
X13.586Y22.92
X13.586Y20.38
X13.586Y17.84
X13.586Y15.3
X13.589Y10.414
X13.589Y7.874
X17.272Y4.699
X17.272Y2.159
X18.542Y40.132
X18.542Y37.592
X18.542Y29.464
X18.542Y26.924
X19.812Y4.699
X19.812Y2.159
X22.352Y4.699
X22.352Y2.159
X23.075Y8.503
X23.875Y26.903
X33.147Y16.256
X35.687Y16.256
X36.322Y48.133
X36.322Y45.593
X37.084Y40.132
X37.084Y37.592
X37.084Y29.464
X37.084Y26.924
X38.227Y16.256
X40.767Y16.256
X40.894Y7.747
X43.434Y7.747
X45.974Y7.747
X47.879Y42.418
X47.879Y39.878
X47.879Y37.338
X48.514Y28.829
X48.514Y26.289
X48.514Y23.749
X48.514Y21.209
X48.514Y18.669
X48.514Y16.129
X48.514Y7.747
X50.419Y42.418
X50.419Y39.878
X50.419Y37.338
T3
X13.462Y45.593
X18.542Y45.593
X23.622Y45.593
X28.702Y45.593
X41.402Y45.466
X46.482Y45.466
T4
X3.875Y54.203
X3.875Y4.089
X52.756Y4.089
X52.875Y54.203
T0
M30
