G04 #@! TF.FileFunction,Legend,Top*
%FSLAX46Y46*%
G04 Gerber Fmt 4.6, Leading zero omitted, Abs format (unit mm)*
G04 Created by KiCad (PCBNEW 4.0.2+dfsg1-stable) date Thu 14 Apr 2016 07:40:31 AM EDT*
%MOMM*%
G01*
G04 APERTURE LIST*
%ADD10C,0.100000*%
%ADD11C,0.150000*%
G04 APERTURE END LIST*
D10*
D11*
X39663000Y26154000D02*
X39663000Y25154000D01*
X41363000Y25154000D02*
X41363000Y26154000D01*
X32297000Y26154000D02*
X32297000Y25154000D01*
X33997000Y25154000D02*
X33997000Y26154000D01*
X43601000Y32262000D02*
X43601000Y31262000D01*
X42251000Y31262000D02*
X42251000Y32262000D01*
X32298000Y31005400D02*
X32298000Y30005400D01*
X30948000Y30005400D02*
X30948000Y31005400D01*
X24678000Y30980000D02*
X24678000Y29980000D01*
X23328000Y29980000D02*
X23328000Y30980000D01*
X32123380Y18455640D02*
X43822620Y18455640D01*
X43822620Y23454360D02*
X32123380Y23454360D01*
X43822620Y18455640D02*
X43822620Y19304000D01*
X43822620Y23454360D02*
X43822620Y22606000D01*
X32123380Y18455640D02*
X32123380Y19304000D01*
X32123380Y23454360D02*
X32123380Y22606000D01*
X27247000Y14536000D02*
X27247000Y14861000D01*
X19997000Y14536000D02*
X19997000Y14861000D01*
X19997000Y21786000D02*
X19997000Y21461000D01*
X27247000Y21786000D02*
X27247000Y21461000D01*
X27247000Y14536000D02*
X26922000Y14536000D01*
X27247000Y21786000D02*
X26922000Y21786000D01*
X19997000Y21786000D02*
X20322000Y21786000D01*
X19997000Y14536000D02*
X20322000Y14536000D01*
X27247000Y14861000D02*
X28672000Y14861000D01*
X17526000Y7239000D02*
X20828000Y7239000D01*
X20828000Y7239000D02*
X20828000Y9779000D01*
X20828000Y9779000D02*
X20066000Y10541000D01*
X20066000Y10541000D02*
X18288000Y10541000D01*
X18288000Y10541000D02*
X17526000Y9779000D01*
X17526000Y9779000D02*
X17526000Y7239000D01*
X18669000Y7493000D02*
X19685000Y7493000D01*
X18415000Y7620000D02*
X19939000Y7620000D01*
X18161000Y7747000D02*
X20193000Y7747000D01*
X18034000Y7874000D02*
X20320000Y7874000D01*
X19177000Y10033000D02*
X19177000Y9271000D01*
X18796000Y9652000D02*
X19558000Y9652000D01*
X20701000Y8890000D02*
G75*
G03X20701000Y8890000I-1524000J0D01*
G01*
X25400000Y33782000D02*
X25400000Y30607000D01*
X25400000Y30607000D02*
X27178000Y30607000D01*
X27178000Y30607000D02*
X27178000Y33782000D01*
X20828000Y33782000D02*
X20828000Y30607000D01*
X20828000Y30607000D02*
X22606000Y30607000D01*
X22606000Y30607000D02*
X22606000Y33782000D01*
X27432000Y39878000D02*
X27432000Y33782000D01*
X27432000Y33782000D02*
X20574000Y33782000D01*
X20574000Y33782000D02*
X20574000Y41656000D01*
X20574000Y41783000D02*
X27432000Y41783000D01*
X27432000Y41656000D02*
X27432000Y39878000D01*
X33020000Y33782000D02*
X33020000Y30607000D01*
X33020000Y30607000D02*
X34798000Y30607000D01*
X34798000Y30607000D02*
X34798000Y33782000D01*
X28448000Y33782000D02*
X28448000Y30607000D01*
X28448000Y30607000D02*
X30226000Y30607000D01*
X30226000Y30607000D02*
X30226000Y33782000D01*
X35052000Y39878000D02*
X35052000Y33782000D01*
X35052000Y33782000D02*
X28194000Y33782000D01*
X28194000Y33782000D02*
X28194000Y41656000D01*
X28194000Y41783000D02*
X35052000Y41783000D01*
X35052000Y41656000D02*
X35052000Y39878000D01*
X44323000Y35052000D02*
X44323000Y31877000D01*
X44323000Y31877000D02*
X46101000Y31877000D01*
X46101000Y31877000D02*
X46101000Y35052000D01*
X39751000Y35052000D02*
X39751000Y31877000D01*
X39751000Y31877000D02*
X41529000Y31877000D01*
X41529000Y31877000D02*
X41529000Y35052000D01*
X46355000Y41148000D02*
X46355000Y35052000D01*
X46355000Y35052000D02*
X39497000Y35052000D01*
X39497000Y35052000D02*
X39497000Y42926000D01*
X39497000Y43053000D02*
X46355000Y43053000D01*
X46355000Y42926000D02*
X46355000Y41148000D01*
X9763000Y9339000D02*
X7763000Y9339000D01*
X7763000Y11489000D02*
X9763000Y11489000D01*
X23851600Y48400200D02*
X23851600Y51320200D01*
X28421600Y48400200D02*
X23851600Y48400200D01*
X28421600Y51320200D02*
X23851600Y51320200D01*
X28421600Y48400200D02*
X28421600Y51320200D01*
X34403800Y44772000D02*
X31483800Y44772000D01*
X34403800Y49342000D02*
X34403800Y44772000D01*
X31483800Y49342000D02*
X31483800Y44772000D01*
X34403800Y49342000D02*
X31483800Y49342000D01*
X41682400Y48451000D02*
X41682400Y51371000D01*
X46252400Y48451000D02*
X41682400Y48451000D01*
X46252400Y51371000D02*
X41682400Y51371000D01*
X46252400Y48451000D02*
X46252400Y51371000D01*
X6161000Y4089400D02*
G75*
G03X6161000Y4089400I-2286000J0D01*
G01*
X55041800Y4089400D02*
G75*
G03X55041800Y4089400I-2286000J0D01*
G01*
X6161000Y54203000D02*
G75*
G03X6161000Y54203000I-2286000J0D01*
G01*
X55161000Y54203000D02*
G75*
G03X55161000Y54203000I-2286000J0D01*
G01*
X38770143Y25487334D02*
X38817762Y25439715D01*
X38865381Y25296858D01*
X38865381Y25201620D01*
X38817762Y25058762D01*
X38722524Y24963524D01*
X38627286Y24915905D01*
X38436810Y24868286D01*
X38293952Y24868286D01*
X38103476Y24915905D01*
X38008238Y24963524D01*
X37913000Y25058762D01*
X37865381Y25201620D01*
X37865381Y25296858D01*
X37913000Y25439715D01*
X37960619Y25487334D01*
X38865381Y26439715D02*
X38865381Y25868286D01*
X38865381Y26154000D02*
X37865381Y26154000D01*
X38008238Y26058762D01*
X38103476Y25963524D01*
X38151095Y25868286D01*
X31404143Y25487334D02*
X31451762Y25439715D01*
X31499381Y25296858D01*
X31499381Y25201620D01*
X31451762Y25058762D01*
X31356524Y24963524D01*
X31261286Y24915905D01*
X31070810Y24868286D01*
X30927952Y24868286D01*
X30737476Y24915905D01*
X30642238Y24963524D01*
X30547000Y25058762D01*
X30499381Y25201620D01*
X30499381Y25296858D01*
X30547000Y25439715D01*
X30594619Y25487334D01*
X30594619Y25868286D02*
X30547000Y25915905D01*
X30499381Y26011143D01*
X30499381Y26249239D01*
X30547000Y26344477D01*
X30594619Y26392096D01*
X30689857Y26439715D01*
X30785095Y26439715D01*
X30927952Y26392096D01*
X31499381Y25820667D01*
X31499381Y26439715D01*
X41478381Y31595334D02*
X41002190Y31262000D01*
X41478381Y31023905D02*
X40478381Y31023905D01*
X40478381Y31404858D01*
X40526000Y31500096D01*
X40573619Y31547715D01*
X40668857Y31595334D01*
X40811714Y31595334D01*
X40906952Y31547715D01*
X40954571Y31500096D01*
X41002190Y31404858D01*
X41002190Y31023905D01*
X40478381Y31928667D02*
X40478381Y32547715D01*
X40859333Y32214381D01*
X40859333Y32357239D01*
X40906952Y32452477D01*
X40954571Y32500096D01*
X41049810Y32547715D01*
X41287905Y32547715D01*
X41383143Y32500096D01*
X41430762Y32452477D01*
X41478381Y32357239D01*
X41478381Y32071524D01*
X41430762Y31976286D01*
X41383143Y31928667D01*
X30175381Y30338734D02*
X29699190Y30005400D01*
X30175381Y29767305D02*
X29175381Y29767305D01*
X29175381Y30148258D01*
X29223000Y30243496D01*
X29270619Y30291115D01*
X29365857Y30338734D01*
X29508714Y30338734D01*
X29603952Y30291115D01*
X29651571Y30243496D01*
X29699190Y30148258D01*
X29699190Y29767305D01*
X29270619Y30719686D02*
X29223000Y30767305D01*
X29175381Y30862543D01*
X29175381Y31100639D01*
X29223000Y31195877D01*
X29270619Y31243496D01*
X29365857Y31291115D01*
X29461095Y31291115D01*
X29603952Y31243496D01*
X30175381Y30672067D01*
X30175381Y31291115D01*
X22555381Y30313334D02*
X22079190Y29980000D01*
X22555381Y29741905D02*
X21555381Y29741905D01*
X21555381Y30122858D01*
X21603000Y30218096D01*
X21650619Y30265715D01*
X21745857Y30313334D01*
X21888714Y30313334D01*
X21983952Y30265715D01*
X22031571Y30218096D01*
X22079190Y30122858D01*
X22079190Y29741905D01*
X22555381Y31265715D02*
X22555381Y30694286D01*
X22555381Y30980000D02*
X21555381Y30980000D01*
X21698238Y30884762D01*
X21793476Y30789524D01*
X21841095Y30694286D01*
X37496809Y26058810D02*
X37496809Y25582619D01*
X37163476Y26582619D02*
X37496809Y26058810D01*
X37830143Y26582619D01*
X38687286Y25582619D02*
X38115857Y25582619D01*
X38401571Y25582619D02*
X38401571Y26582619D01*
X38306333Y26439762D01*
X38211095Y26344524D01*
X38115857Y26296905D01*
X22479143Y11706238D02*
X22383905Y11658619D01*
X22193428Y11658619D01*
X22098190Y11706238D01*
X22050571Y11753857D01*
X22002952Y11849095D01*
X22002952Y12134810D01*
X22050571Y12230048D01*
X22098190Y12277667D01*
X22193428Y12325286D01*
X22383905Y12325286D01*
X22479143Y12277667D01*
X22907714Y12325286D02*
X22907714Y11325286D01*
X22907714Y12277667D02*
X23002952Y12325286D01*
X23193429Y12325286D01*
X23288667Y12277667D01*
X23336286Y12230048D01*
X23383905Y12134810D01*
X23383905Y11849095D01*
X23336286Y11753857D01*
X23288667Y11706238D01*
X23193429Y11658619D01*
X23002952Y11658619D01*
X22907714Y11706238D01*
X24241048Y12325286D02*
X24241048Y11658619D01*
X23812476Y12325286D02*
X23812476Y11801476D01*
X23860095Y11706238D01*
X23955333Y11658619D01*
X24098191Y11658619D01*
X24193429Y11706238D01*
X24241048Y11753857D01*
X25241048Y11658619D02*
X24669619Y11658619D01*
X24955333Y11658619D02*
X24955333Y12658619D01*
X24860095Y12515762D01*
X24764857Y12420524D01*
X24669619Y12372905D01*
X16787762Y6818572D02*
X16835381Y6723334D01*
X16835381Y6532857D01*
X16787762Y6437619D01*
X16740143Y6390000D01*
X16644905Y6342381D01*
X16359190Y6342381D01*
X16263952Y6390000D01*
X16216333Y6437619D01*
X16168714Y6532857D01*
X16168714Y6723334D01*
X16216333Y6818572D01*
X16168714Y7104286D02*
X16168714Y7485238D01*
X15835381Y7247143D02*
X16692524Y7247143D01*
X16787762Y7294762D01*
X16835381Y7390000D01*
X16835381Y7485238D01*
X16787762Y8199525D02*
X16835381Y8104287D01*
X16835381Y7913810D01*
X16787762Y7818572D01*
X16692524Y7770953D01*
X16311571Y7770953D01*
X16216333Y7818572D01*
X16168714Y7913810D01*
X16168714Y8104287D01*
X16216333Y8199525D01*
X16311571Y8247144D01*
X16406810Y8247144D01*
X16502048Y7770953D01*
X16835381Y8675715D02*
X16168714Y8675715D01*
X16263952Y8675715D02*
X16216333Y8723334D01*
X16168714Y8818572D01*
X16168714Y8961430D01*
X16216333Y9056668D01*
X16311571Y9104287D01*
X16835381Y9104287D01*
X16311571Y9104287D02*
X16216333Y9151906D01*
X16168714Y9247144D01*
X16168714Y9390001D01*
X16216333Y9485239D01*
X16311571Y9532858D01*
X16835381Y9532858D01*
X16168714Y10009048D02*
X17168714Y10009048D01*
X16216333Y10009048D02*
X16168714Y10104286D01*
X16168714Y10294763D01*
X16216333Y10390001D01*
X16263952Y10437620D01*
X16359190Y10485239D01*
X16644905Y10485239D01*
X16740143Y10437620D01*
X16787762Y10390001D01*
X16835381Y10294763D01*
X16835381Y10104286D01*
X16787762Y10009048D01*
X16835381Y11437620D02*
X16835381Y10866191D01*
X16835381Y11151905D02*
X15835381Y11151905D01*
X15978238Y11056667D01*
X16073476Y10961429D01*
X16121095Y10866191D01*
X23907762Y42124381D02*
X23812524Y42172000D01*
X23717286Y42267238D01*
X23574429Y42410095D01*
X23479190Y42457714D01*
X23383952Y42457714D01*
X23431571Y42219619D02*
X23336333Y42267238D01*
X23241095Y42362476D01*
X23193476Y42552952D01*
X23193476Y42886286D01*
X23241095Y43076762D01*
X23336333Y43172000D01*
X23431571Y43219619D01*
X23622048Y43219619D01*
X23717286Y43172000D01*
X23812524Y43076762D01*
X23860143Y42886286D01*
X23860143Y42552952D01*
X23812524Y42362476D01*
X23717286Y42267238D01*
X23622048Y42219619D01*
X23431571Y42219619D01*
X24812524Y42219619D02*
X24241095Y42219619D01*
X24526809Y42219619D02*
X24526809Y43219619D01*
X24431571Y43076762D01*
X24336333Y42981524D01*
X24241095Y42933905D01*
X31527762Y42124381D02*
X31432524Y42172000D01*
X31337286Y42267238D01*
X31194429Y42410095D01*
X31099190Y42457714D01*
X31003952Y42457714D01*
X31051571Y42219619D02*
X30956333Y42267238D01*
X30861095Y42362476D01*
X30813476Y42552952D01*
X30813476Y42886286D01*
X30861095Y43076762D01*
X30956333Y43172000D01*
X31051571Y43219619D01*
X31242048Y43219619D01*
X31337286Y43172000D01*
X31432524Y43076762D01*
X31480143Y42886286D01*
X31480143Y42552952D01*
X31432524Y42362476D01*
X31337286Y42267238D01*
X31242048Y42219619D01*
X31051571Y42219619D01*
X31861095Y43124381D02*
X31908714Y43172000D01*
X32003952Y43219619D01*
X32242048Y43219619D01*
X32337286Y43172000D01*
X32384905Y43124381D01*
X32432524Y43029143D01*
X32432524Y42933905D01*
X32384905Y42791048D01*
X31813476Y42219619D01*
X32432524Y42219619D01*
X42830762Y43394381D02*
X42735524Y43442000D01*
X42640286Y43537238D01*
X42497429Y43680095D01*
X42402190Y43727714D01*
X42306952Y43727714D01*
X42354571Y43489619D02*
X42259333Y43537238D01*
X42164095Y43632476D01*
X42116476Y43822952D01*
X42116476Y44156286D01*
X42164095Y44346762D01*
X42259333Y44442000D01*
X42354571Y44489619D01*
X42545048Y44489619D01*
X42640286Y44442000D01*
X42735524Y44346762D01*
X42783143Y44156286D01*
X42783143Y43822952D01*
X42735524Y43632476D01*
X42640286Y43537238D01*
X42545048Y43489619D01*
X42354571Y43489619D01*
X43116476Y44489619D02*
X43735524Y44489619D01*
X43402190Y44108667D01*
X43545048Y44108667D01*
X43640286Y44061048D01*
X43687905Y44013429D01*
X43735524Y43918190D01*
X43735524Y43680095D01*
X43687905Y43584857D01*
X43640286Y43537238D01*
X43545048Y43489619D01*
X43259333Y43489619D01*
X43164095Y43537238D01*
X43116476Y43584857D01*
X6382047Y12261619D02*
X6382047Y12928286D01*
X6382047Y12737810D02*
X6429666Y12833048D01*
X6477285Y12880667D01*
X6572523Y12928286D01*
X6667762Y12928286D01*
X6858238Y12928286D02*
X7239190Y12928286D01*
X7001095Y13261619D02*
X7001095Y12404476D01*
X7048714Y12309238D01*
X7143952Y12261619D01*
X7239190Y12261619D01*
X7953477Y12309238D02*
X7858239Y12261619D01*
X7667762Y12261619D01*
X7572524Y12309238D01*
X7524905Y12404476D01*
X7524905Y12785429D01*
X7572524Y12880667D01*
X7667762Y12928286D01*
X7858239Y12928286D01*
X7953477Y12880667D01*
X8001096Y12785429D01*
X8001096Y12690190D01*
X7524905Y12594952D01*
X8429667Y12261619D02*
X8429667Y12928286D01*
X8429667Y12833048D02*
X8477286Y12880667D01*
X8572524Y12928286D01*
X8715382Y12928286D01*
X8810620Y12880667D01*
X8858239Y12785429D01*
X8858239Y12261619D01*
X8858239Y12785429D02*
X8905858Y12880667D01*
X9001096Y12928286D01*
X9143953Y12928286D01*
X9239191Y12880667D01*
X9286810Y12785429D01*
X9286810Y12261619D01*
X9763000Y12928286D02*
X9763000Y11928286D01*
X9763000Y12880667D02*
X9858238Y12928286D01*
X10048715Y12928286D01*
X10143953Y12880667D01*
X10191572Y12833048D01*
X10239191Y12737810D01*
X10239191Y12452095D01*
X10191572Y12356857D01*
X10143953Y12309238D01*
X10048715Y12261619D01*
X9858238Y12261619D01*
X9763000Y12309238D01*
X11191572Y12261619D02*
X10620143Y12261619D01*
X10905857Y12261619D02*
X10905857Y13261619D01*
X10810619Y13118762D01*
X10715381Y13023524D01*
X10620143Y12975905D01*
X25373105Y47045619D02*
X25373105Y48045619D01*
X25611200Y48045619D01*
X25754058Y47998000D01*
X25849296Y47902762D01*
X25896915Y47807524D01*
X25944534Y47617048D01*
X25944534Y47474190D01*
X25896915Y47283714D01*
X25849296Y47188476D01*
X25754058Y47093238D01*
X25611200Y47045619D01*
X25373105Y47045619D01*
X26896915Y47045619D02*
X26325486Y47045619D01*
X26611200Y47045619D02*
X26611200Y48045619D01*
X26515962Y47902762D01*
X26420724Y47807524D01*
X26325486Y47759905D01*
X35758381Y46293505D02*
X34758381Y46293505D01*
X34758381Y46531600D01*
X34806000Y46674458D01*
X34901238Y46769696D01*
X34996476Y46817315D01*
X35186952Y46864934D01*
X35329810Y46864934D01*
X35520286Y46817315D01*
X35615524Y46769696D01*
X35710762Y46674458D01*
X35758381Y46531600D01*
X35758381Y46293505D01*
X34853619Y47245886D02*
X34806000Y47293505D01*
X34758381Y47388743D01*
X34758381Y47626839D01*
X34806000Y47722077D01*
X34853619Y47769696D01*
X34948857Y47817315D01*
X35044095Y47817315D01*
X35186952Y47769696D01*
X35758381Y47198267D01*
X35758381Y47817315D01*
X43203905Y47096419D02*
X43203905Y48096419D01*
X43442000Y48096419D01*
X43584858Y48048800D01*
X43680096Y47953562D01*
X43727715Y47858324D01*
X43775334Y47667848D01*
X43775334Y47524990D01*
X43727715Y47334514D01*
X43680096Y47239276D01*
X43584858Y47144038D01*
X43442000Y47096419D01*
X43203905Y47096419D01*
X44108667Y48096419D02*
X44727715Y48096419D01*
X44394381Y47715467D01*
X44537239Y47715467D01*
X44632477Y47667848D01*
X44680096Y47620229D01*
X44727715Y47524990D01*
X44727715Y47286895D01*
X44680096Y47191657D01*
X44632477Y47144038D01*
X44537239Y47096419D01*
X44251524Y47096419D01*
X44156286Y47144038D01*
X44108667Y47191657D01*
X3136905Y6685019D02*
X3136905Y7685019D01*
X3517858Y7685019D01*
X3613096Y7637400D01*
X3660715Y7589781D01*
X3708334Y7494543D01*
X3708334Y7351686D01*
X3660715Y7256448D01*
X3613096Y7208829D01*
X3517858Y7161210D01*
X3136905Y7161210D01*
X4041667Y7685019D02*
X4660715Y7685019D01*
X4327381Y7304067D01*
X4470239Y7304067D01*
X4565477Y7256448D01*
X4613096Y7208829D01*
X4660715Y7113590D01*
X4660715Y6875495D01*
X4613096Y6780257D01*
X4565477Y6732638D01*
X4470239Y6685019D01*
X4184524Y6685019D01*
X4089286Y6732638D01*
X4041667Y6780257D01*
X51541514Y6685019D02*
X51541514Y7685019D01*
X51922467Y7685019D01*
X52017705Y7637400D01*
X52065324Y7589781D01*
X52112943Y7494543D01*
X52112943Y7351686D01*
X52065324Y7256448D01*
X52017705Y7208829D01*
X51922467Y7161210D01*
X51541514Y7161210D01*
X53065324Y6685019D02*
X52493895Y6685019D01*
X52779609Y6685019D02*
X52779609Y7685019D01*
X52684371Y7542162D01*
X52589133Y7446924D01*
X52493895Y7399305D01*
X53922467Y7685019D02*
X53731990Y7685019D01*
X53636752Y7637400D01*
X53589133Y7589781D01*
X53493895Y7446924D01*
X53446276Y7256448D01*
X53446276Y6875495D01*
X53493895Y6780257D01*
X53541514Y6732638D01*
X53636752Y6685019D01*
X53827229Y6685019D01*
X53922467Y6732638D01*
X53970086Y6780257D01*
X54017705Y6875495D01*
X54017705Y7113590D01*
X53970086Y7208829D01*
X53922467Y7256448D01*
X53827229Y7304067D01*
X53636752Y7304067D01*
X53541514Y7256448D01*
X53493895Y7208829D01*
X53446276Y7113590D01*
X2660714Y56798619D02*
X2660714Y57798619D01*
X3041667Y57798619D01*
X3136905Y57751000D01*
X3184524Y57703381D01*
X3232143Y57608143D01*
X3232143Y57465286D01*
X3184524Y57370048D01*
X3136905Y57322429D01*
X3041667Y57274810D01*
X2660714Y57274810D01*
X4184524Y56798619D02*
X3613095Y56798619D01*
X3898809Y56798619D02*
X3898809Y57798619D01*
X3803571Y57655762D01*
X3708333Y57560524D01*
X3613095Y57512905D01*
X4517857Y57798619D02*
X5184524Y57798619D01*
X4755952Y56798619D01*
X51660714Y56798619D02*
X51660714Y57798619D01*
X52041667Y57798619D01*
X52136905Y57751000D01*
X52184524Y57703381D01*
X52232143Y57608143D01*
X52232143Y57465286D01*
X52184524Y57370048D01*
X52136905Y57322429D01*
X52041667Y57274810D01*
X51660714Y57274810D01*
X53184524Y56798619D02*
X52613095Y56798619D01*
X52898809Y56798619D02*
X52898809Y57798619D01*
X52803571Y57655762D01*
X52708333Y57560524D01*
X52613095Y57512905D01*
X53755952Y57370048D02*
X53660714Y57417667D01*
X53613095Y57465286D01*
X53565476Y57560524D01*
X53565476Y57608143D01*
X53613095Y57703381D01*
X53660714Y57751000D01*
X53755952Y57798619D01*
X53946429Y57798619D01*
X54041667Y57751000D01*
X54089286Y57703381D01*
X54136905Y57608143D01*
X54136905Y57560524D01*
X54089286Y57465286D01*
X54041667Y57417667D01*
X53946429Y57370048D01*
X53755952Y57370048D01*
X53660714Y57322429D01*
X53613095Y57274810D01*
X53565476Y57179571D01*
X53565476Y56989095D01*
X53613095Y56893857D01*
X53660714Y56846238D01*
X53755952Y56798619D01*
X53946429Y56798619D01*
X54041667Y56846238D01*
X54089286Y56893857D01*
X54136905Y56989095D01*
X54136905Y57179571D01*
X54089286Y57274810D01*
X54041667Y57322429D01*
X53946429Y57370048D01*
M02*
