G04 #@! TF.FileFunction,Soldermask,Bot*
%FSLAX46Y46*%
G04 Gerber Fmt 4.6, Leading zero omitted, Abs format (unit mm)*
G04 Created by KiCad (PCBNEW 4.0.2+dfsg1-stable) date Thu 14 Apr 2016 07:40:31 AM EDT*
%MOMM*%
G01*
G04 APERTURE LIST*
%ADD10C,0.100000*%
%ADD11R,2.032000X2.032000*%
%ADD12O,2.032000X2.032000*%
%ADD13R,1.727200X2.032000*%
%ADD14O,1.727200X2.032000*%
%ADD15R,2.032000X1.727200*%
%ADD16O,2.032000X1.727200*%
%ADD17R,1.727200X1.727200*%
%ADD18O,1.727200X1.727200*%
%ADD19C,3.000000*%
%ADD20C,4.064000*%
%ADD21C,1.750000*%
G04 APERTURE END LIST*
D10*
D11*
X13589000Y10414000D03*
D12*
X13589000Y7874000D03*
D13*
X48514000Y7747000D03*
D14*
X45974000Y7747000D03*
X43434000Y7747000D03*
X40894000Y7747000D03*
D15*
X13585968Y22920348D03*
D16*
X13585968Y20380348D03*
X13585968Y17840348D03*
X13585968Y15300348D03*
D15*
X48514000Y28828999D03*
D16*
X48514000Y26288999D03*
X48514000Y23748999D03*
X48514000Y21208999D03*
X48514000Y18668999D03*
X48514000Y16128999D03*
D13*
X7493001Y39751000D03*
D14*
X10033001Y39751000D03*
X12573001Y39751000D03*
D15*
X9779000Y22920348D03*
D16*
X9779000Y20380348D03*
X9779000Y17840348D03*
D13*
X40766999Y16256000D03*
D14*
X38226999Y16256000D03*
X35686999Y16256000D03*
X33146999Y16256000D03*
D17*
X7493000Y33655000D03*
D18*
X7493000Y31115000D03*
X10033000Y33655000D03*
X10033000Y31115000D03*
X12573000Y33655000D03*
X12573000Y31115000D03*
D19*
X23622000Y45593000D03*
X28702000Y45593000D03*
X13462000Y45593000D03*
X18542000Y45593000D03*
D17*
X50419000Y42418000D03*
D18*
X47879000Y42418000D03*
X50419000Y39878000D03*
X47879000Y39878000D03*
X50419000Y37338000D03*
X47879000Y37338000D03*
D17*
X22352000Y2159000D03*
D18*
X22352000Y4699000D03*
X19812000Y2159000D03*
X19812000Y4699000D03*
X17272000Y2159000D03*
X17272000Y4699000D03*
D16*
X18542000Y26924000D03*
X18542000Y29464000D03*
X37084000Y29464000D03*
D11*
X18542000Y40132000D03*
X37084000Y40132000D03*
D16*
X37084000Y26924000D03*
D11*
X18542000Y37592000D03*
X37084000Y37592000D03*
X36322000Y45593000D03*
D12*
X36322000Y48133000D03*
D19*
X41402000Y45466000D03*
X46482000Y45466000D03*
D20*
X3875000Y4089400D03*
X52755800Y4089400D03*
X3875000Y54203000D03*
X52875000Y54203000D03*
D21*
X6175000Y19103000D03*
X23075000Y8503000D03*
X23875000Y26903000D03*
M02*
