G04 #@! TF.FileFunction,Copper,L1,Top,Signal*
%FSLAX46Y46*%
G04 Gerber Fmt 4.6, Leading zero omitted, Abs format (unit mm)*
G04 Created by KiCad (PCBNEW 4.0.2+dfsg1-stable) date Thu 14 Apr 2016 07:40:31 AM EDT*
%MOMM*%
G01*
G04 APERTURE LIST*
%ADD10C,0.100000*%
%ADD11R,1.750000X1.000000*%
%ADD12R,1.250000X0.500000*%
%ADD13R,5.600000X1.200000*%
%ADD14R,5.600700X1.200000*%
%ADD15R,1.600000X0.550000*%
%ADD16R,0.550000X1.600000*%
%ADD17R,1.600200X2.199640*%
%ADD18R,2.032000X2.032000*%
%ADD19O,2.032000X2.032000*%
%ADD20R,1.727200X2.032000*%
%ADD21O,1.727200X2.032000*%
%ADD22R,2.032000X1.727200*%
%ADD23O,2.032000X1.727200*%
%ADD24R,1.727200X1.727200*%
%ADD25O,1.727200X1.727200*%
%ADD26R,1.651000X3.048000*%
%ADD27R,6.096000X6.096000*%
%ADD28R,0.900000X1.700000*%
%ADD29C,3.000000*%
%ADD30R,2.300000X2.400000*%
%ADD31R,2.400000X2.300000*%
%ADD32C,4.064000*%
%ADD33C,1.750000*%
%ADD34C,1.000000*%
%ADD35C,0.400000*%
%ADD36C,1.250000*%
%ADD37C,0.254000*%
G04 APERTURE END LIST*
D10*
D11*
X40513000Y24654000D03*
X40513000Y26654000D03*
X33147000Y24654000D03*
X33147000Y26654000D03*
D12*
X42926000Y31012000D03*
X42926000Y32512000D03*
X31623000Y29755400D03*
X31623000Y31255400D03*
X24003000Y29730000D03*
X24003000Y31230000D03*
D13*
X33223000Y20955000D03*
D14*
X42723000Y20955000D03*
D15*
X27872000Y15361000D03*
X27872000Y16161000D03*
X27872000Y16961000D03*
X27872000Y17761000D03*
X27872000Y18561000D03*
X27872000Y19361000D03*
X27872000Y20161000D03*
X27872000Y20961000D03*
D16*
X26422000Y22411000D03*
X25622000Y22411000D03*
X24822000Y22411000D03*
X24022000Y22411000D03*
X23222000Y22411000D03*
X22422000Y22411000D03*
X21622000Y22411000D03*
X20822000Y22411000D03*
D15*
X19372000Y20961000D03*
X19372000Y20161000D03*
X19372000Y19361000D03*
X19372000Y18561000D03*
X19372000Y17761000D03*
X19372000Y16961000D03*
X19372000Y16161000D03*
X19372000Y15361000D03*
D16*
X20822000Y13911000D03*
X21622000Y13911000D03*
X22422000Y13911000D03*
X23222000Y13911000D03*
X24022000Y13911000D03*
X24822000Y13911000D03*
X25622000Y13911000D03*
X26422000Y13911000D03*
D17*
X19177000Y10391140D03*
X19177000Y7388860D03*
D18*
X13589000Y10414000D03*
D19*
X13589000Y7874000D03*
D20*
X48514000Y7747000D03*
D21*
X45974000Y7747000D03*
X43434000Y7747000D03*
X40894000Y7747000D03*
D22*
X13585968Y22920348D03*
D23*
X13585968Y20380348D03*
X13585968Y17840348D03*
X13585968Y15300348D03*
D22*
X48514000Y28828999D03*
D23*
X48514000Y26288999D03*
X48514000Y23748999D03*
X48514000Y21208999D03*
X48514000Y18668999D03*
X48514000Y16128999D03*
D20*
X7493001Y39751000D03*
D21*
X10033001Y39751000D03*
X12573001Y39751000D03*
D22*
X9779000Y22920348D03*
D23*
X9779000Y20380348D03*
X9779000Y17840348D03*
D20*
X40766999Y16256000D03*
D21*
X38226999Y16256000D03*
X35686999Y16256000D03*
X33146999Y16256000D03*
D24*
X7493000Y33655000D03*
D25*
X7493000Y31115000D03*
X10033000Y33655000D03*
X10033000Y31115000D03*
X12573000Y33655000D03*
X12573000Y31115000D03*
D26*
X21717000Y32258000D03*
D27*
X24003000Y38608000D03*
D26*
X26289000Y32258000D03*
X29337000Y32258000D03*
D27*
X31623000Y38608000D03*
D26*
X33909000Y32258000D03*
X40640000Y33528000D03*
D27*
X42926000Y39878000D03*
D26*
X45212000Y33528000D03*
D28*
X7313000Y10414000D03*
X10213000Y10414000D03*
D29*
X23622000Y45593000D03*
X28702000Y45593000D03*
X13462000Y45593000D03*
X18542000Y45593000D03*
D24*
X50419000Y42418000D03*
D25*
X47879000Y42418000D03*
X50419000Y39878000D03*
X47879000Y39878000D03*
X50419000Y37338000D03*
X47879000Y37338000D03*
D24*
X22352000Y2159000D03*
D25*
X22352000Y4699000D03*
X19812000Y2159000D03*
X19812000Y4699000D03*
X17272000Y2159000D03*
X17272000Y4699000D03*
D23*
X18542000Y26924000D03*
X18542000Y29464000D03*
X37084000Y29464000D03*
D18*
X18542000Y40132000D03*
X37084000Y40132000D03*
D23*
X37084000Y26924000D03*
D18*
X18542000Y37592000D03*
X37084000Y37592000D03*
D30*
X28736600Y49860200D03*
X23536600Y49860200D03*
D31*
X32943800Y49657000D03*
X32943800Y44457000D03*
D30*
X46567400Y49911000D03*
X41367400Y49911000D03*
D18*
X36322000Y45593000D03*
D19*
X36322000Y48133000D03*
D29*
X41402000Y45466000D03*
X46482000Y45466000D03*
D32*
X3875000Y4089400D03*
X52755800Y4089400D03*
X3875000Y54203000D03*
X52875000Y54203000D03*
D33*
X6175000Y19103000D03*
X23075000Y8503000D03*
X23875000Y26903000D03*
D34*
X8801543Y43956295D03*
X42223439Y29367638D03*
X7949823Y25895427D03*
X33750204Y9799536D03*
D35*
X27872000Y20161000D02*
X29307013Y20161000D01*
X29307013Y20161000D02*
X29811249Y19656764D01*
X29811249Y19656764D02*
X39506551Y19656764D01*
X39506551Y19656764D02*
X40804787Y20955000D01*
X40804787Y20955000D02*
X42723000Y20955000D01*
X42723000Y20955000D02*
X42723000Y23469000D01*
X42723000Y23469000D02*
X41288000Y24904000D01*
X41288000Y24904000D02*
X40513000Y24904000D01*
X48514000Y7747000D02*
X48514000Y11938000D01*
X48514000Y11938000D02*
X50530021Y13954021D01*
X50530021Y13954021D02*
X50530021Y27658528D01*
X50530021Y27658528D02*
X49359550Y28828999D01*
X49359550Y28828999D02*
X48514000Y28828999D01*
X24003000Y29730000D02*
X26893000Y29730000D01*
X26893000Y29730000D02*
X27159000Y29464000D01*
X7493001Y39751000D02*
X7493001Y44210275D01*
X7493001Y44210275D02*
X8875726Y45593000D01*
X8875726Y45593000D02*
X13462000Y45593000D01*
X47817611Y57313412D02*
X16886535Y57313412D01*
X16886535Y57313412D02*
X13462000Y53888877D01*
X13462000Y53888877D02*
X13462000Y45593000D01*
D36*
X13462000Y45593000D02*
X13504799Y45593000D01*
X13504799Y45593000D02*
X15625551Y43472248D01*
X15625551Y43472248D02*
X15625551Y36230927D01*
X15625551Y36230927D02*
X18542000Y33314478D01*
X18542000Y33314478D02*
X18542000Y29464000D01*
D35*
X45212000Y33528000D02*
X45212000Y31826200D01*
X45212000Y31826200D02*
X45212000Y31604000D01*
X42926000Y31012000D02*
X43776000Y31012000D01*
X43776000Y31012000D02*
X44590200Y31826200D01*
X44590200Y31826200D02*
X45212000Y31826200D01*
X27159000Y29464000D02*
X31521400Y29464000D01*
X31521400Y29464000D02*
X33909000Y29464000D01*
X31623000Y29755400D02*
X31623000Y29565600D01*
X31623000Y29565600D02*
X31521400Y29464000D01*
X7493000Y33655000D02*
X7493001Y34918601D01*
X7493001Y34918601D02*
X7493001Y39751000D01*
X48514000Y28828999D02*
X45974000Y28828999D01*
X48514000Y28828999D02*
X47097999Y28829000D01*
X42762078Y28828999D02*
X42523438Y29067639D01*
X42523438Y29067639D02*
X42223439Y29367638D01*
X45974000Y28828999D02*
X42762078Y28828999D01*
X47097999Y28829000D02*
X45991917Y28829000D01*
X19812000Y2159000D02*
X22352000Y2159000D01*
X17272000Y2159000D02*
X19812000Y2159000D01*
X50419000Y39878000D02*
X50419000Y42418000D01*
X50419000Y37338000D02*
X50419000Y39878000D01*
X45212000Y31604000D02*
X45974000Y30842000D01*
X45974000Y30842000D02*
X45974000Y28828999D01*
D36*
X18498889Y29891487D02*
X18473686Y29866284D01*
D35*
X9301542Y44456294D02*
X8801543Y43956295D01*
X13462000Y45593000D02*
X10438248Y45593000D01*
X10438248Y45593000D02*
X9301542Y44456294D01*
X19372000Y17761000D02*
X17054008Y17761000D01*
X17054008Y17761000D02*
X14434660Y20380348D01*
X14434660Y20380348D02*
X13585968Y20380348D01*
X30988000Y18561000D02*
X40767000Y18561000D01*
X40767000Y18561000D02*
X44378627Y18561000D01*
X40766999Y16256000D02*
X40767000Y17672001D01*
X40767000Y17672001D02*
X40767000Y18561000D01*
X27872000Y18561000D02*
X30988000Y18561000D01*
X27872000Y16961000D02*
X29072000Y16961000D01*
X29072000Y16961000D02*
X30672000Y18561000D01*
X30672000Y18561000D02*
X30988000Y18561000D01*
X44450000Y18632373D02*
X45991917Y20174290D01*
X44378627Y18561000D02*
X44450000Y18632373D01*
X45991917Y20174290D02*
X45991917Y28829000D01*
X19372000Y17761000D02*
X23269661Y17761000D01*
X23269661Y17761000D02*
X24069661Y16961000D01*
X24069661Y16961000D02*
X27872000Y16961000D01*
X8746889Y9860109D02*
X8746889Y15621000D01*
X8362990Y19116738D02*
X9626600Y20380348D01*
X8746889Y15621000D02*
X8362990Y16004899D01*
X8362990Y16004899D02*
X8362990Y19116738D01*
X9626600Y20380348D02*
X9779000Y20380348D01*
X13585968Y20380348D02*
X9779000Y20380348D01*
X13589000Y7874000D02*
X10732998Y7874000D01*
X10732998Y7874000D02*
X8746889Y9860109D01*
X40513000Y26404000D02*
X45991917Y26404000D01*
X45991917Y26404000D02*
X45991917Y28829000D01*
D36*
X18542000Y26924000D02*
X18542000Y29464000D01*
D35*
X37084000Y29464000D02*
X37084000Y26924000D01*
X13589000Y7874000D02*
X18691860Y7874000D01*
X18691860Y7874000D02*
X19177000Y7388860D01*
X33909000Y29464000D02*
X35668000Y29464000D01*
X33909000Y32258000D02*
X33909000Y29464000D01*
X26289000Y32258000D02*
X26289000Y30334000D01*
X26289000Y30334000D02*
X27159000Y29464000D01*
X35668000Y29464000D02*
X37084000Y29464000D01*
X40513000Y26404000D02*
X37604000Y26404000D01*
X37604000Y26404000D02*
X37084000Y26924000D01*
X33147000Y26404000D02*
X36564000Y26404000D01*
X36564000Y26404000D02*
X37084000Y26924000D01*
X33223000Y20955000D02*
X33223000Y24828000D01*
X33223000Y24828000D02*
X33147000Y24904000D01*
X27872000Y20961000D02*
X33217000Y20961000D01*
X33217000Y20961000D02*
X33223000Y20955000D01*
X27872000Y15361000D02*
X28397000Y15361000D01*
X28397000Y15361000D02*
X29072000Y14686000D01*
X29072000Y14686000D02*
X34269399Y14686000D01*
X34269399Y14686000D02*
X35686999Y16103600D01*
X35686999Y16103600D02*
X35686999Y16256000D01*
X27872000Y16161000D02*
X33051999Y16161000D01*
X33051999Y16161000D02*
X33146999Y16256000D01*
X9779000Y22877853D02*
X7788015Y22877853D01*
X7788015Y22877853D02*
X4840331Y19930169D01*
X4840331Y19930169D02*
X4840331Y17558569D01*
X4840331Y17558569D02*
X7313000Y15085900D01*
X7313000Y15085900D02*
X7313000Y10414000D01*
X19372000Y20161000D02*
X17666432Y20161000D01*
X17666432Y20161000D02*
X14907084Y22920348D01*
X14907084Y22920348D02*
X13585968Y22920348D01*
X13585968Y22920348D02*
X13585968Y24036716D01*
X13585968Y24036716D02*
X8756601Y28866083D01*
X8756601Y28866083D02*
X8756601Y34918599D01*
X8756601Y34918599D02*
X10033001Y36194999D01*
X12573000Y33655000D02*
X10033001Y36194999D01*
X10033001Y36194999D02*
X10033001Y39751000D01*
D36*
X51555032Y31019470D02*
X51555032Y7423430D01*
X46651742Y35922760D02*
X51555032Y31019470D01*
X46651742Y35940423D02*
X46651742Y35922760D01*
X47716842Y3585240D02*
X46101000Y3585240D01*
X38756586Y35940423D02*
X46651742Y35940423D01*
X37105009Y37592000D02*
X38756586Y35940423D01*
X51555032Y7423430D02*
X47716842Y3585240D01*
D35*
X45974000Y3712240D02*
X46101000Y3585240D01*
D36*
X46101000Y3585240D02*
X24687074Y3585240D01*
D35*
X45974000Y7747000D02*
X45974000Y3712240D01*
D36*
X23573314Y4699000D02*
X22352000Y4699000D01*
X24687074Y3585240D02*
X23573314Y4699000D01*
X19812000Y4699000D02*
X17272000Y4699000D01*
X22352000Y4699000D02*
X19812000Y4699000D01*
D35*
X7313000Y10414000D02*
X7313000Y10014000D01*
X16050686Y4699000D02*
X17272000Y4699000D01*
X7313000Y10014000D02*
X12628000Y4699000D01*
X12628000Y4699000D02*
X16050686Y4699000D01*
X37084000Y37592000D02*
X37105009Y37592000D01*
X27872000Y19361000D02*
X25072000Y19361000D01*
X25072000Y19361000D02*
X25019000Y19414000D01*
X24272000Y20161000D02*
X25019000Y19414000D01*
X25019000Y19414000D02*
X26672000Y17761000D01*
X19372000Y20161000D02*
X24272000Y20161000D01*
X26672000Y17761000D02*
X27872000Y17761000D01*
X9779000Y22920348D02*
X13585968Y22920348D01*
D36*
X37084000Y40132000D02*
X37084000Y37592000D01*
D35*
X25622000Y22411000D02*
X25622000Y27324285D01*
X25622000Y27324285D02*
X24755934Y28190351D01*
X20491499Y30413999D02*
X20491499Y34102001D01*
X24755934Y28190351D02*
X22715147Y28190351D01*
X22715147Y28190351D02*
X20491499Y30413999D01*
X20491499Y34102001D02*
X20650526Y34261028D01*
X20650526Y34261028D02*
X28032472Y34261028D01*
X28032472Y34261028D02*
X29337000Y32956500D01*
X29337000Y32956500D02*
X29337000Y32258000D01*
X29337000Y32258000D02*
X30620400Y32258000D01*
X30620400Y32258000D02*
X31623000Y31255400D01*
X24022000Y22411000D02*
X24022000Y24190863D01*
X19634202Y30311212D02*
X19634202Y34093249D01*
X37958183Y33528000D02*
X40640000Y33528000D01*
X24022000Y24190863D02*
X21329365Y26883498D01*
X21329365Y26883498D02*
X21329365Y28616049D01*
X21329365Y28616049D02*
X19634202Y30311212D01*
X19634202Y34093249D02*
X20461761Y34920808D01*
X20461761Y34920808D02*
X36565375Y34920808D01*
X36565375Y34920808D02*
X37958183Y33528000D01*
X40640000Y33528000D02*
X41910000Y33528000D01*
X41910000Y33528000D02*
X42926000Y32512000D01*
X9779000Y17840348D02*
X9779000Y16066146D01*
X9779000Y16066146D02*
X12008995Y13836151D01*
X12008995Y13836151D02*
X18512649Y13836151D01*
X19372000Y14695502D02*
X19372000Y15361000D01*
X18512649Y13836151D02*
X19372000Y14695502D01*
X26422000Y22411000D02*
X26422000Y27892798D01*
X26422000Y27892798D02*
X25234799Y29079999D01*
X25234799Y29079999D02*
X23057999Y29079999D01*
X21717000Y30420998D02*
X21717000Y32258000D01*
X23057999Y29079999D02*
X21717000Y30420998D01*
X21717000Y32258000D02*
X22975000Y32258000D01*
X22975000Y32258000D02*
X24003000Y31230000D01*
X23222000Y22411000D02*
X23222000Y23611000D01*
X15265578Y27870329D02*
X15265578Y33649545D01*
X23222000Y23611000D02*
X21726481Y25106519D01*
X21726481Y25106519D02*
X18029388Y25106519D01*
X18029388Y25106519D02*
X15265578Y27870329D01*
X15265578Y33649545D02*
X12573001Y36342122D01*
X12573001Y36342122D02*
X12573001Y39751000D01*
X21622000Y22411000D02*
X21622000Y23611000D01*
X10896599Y32791401D02*
X10033000Y33655000D01*
X21622000Y23611000D02*
X21213881Y24019119D01*
X21213881Y24019119D02*
X17780192Y24019119D01*
X17780192Y24019119D02*
X13954189Y27845122D01*
X13954189Y27845122D02*
X13954189Y31603941D01*
X13954189Y31603941D02*
X13166731Y32391399D01*
X13166731Y32391399D02*
X11296601Y32391399D01*
X11296601Y32391399D02*
X10896599Y32791401D01*
X20822000Y22411000D02*
X18051714Y22411000D01*
X12565302Y27897412D02*
X12565302Y31107302D01*
X18051714Y22411000D02*
X12565302Y27897412D01*
X12565302Y31107302D02*
X12573000Y31115000D01*
X19372000Y20961000D02*
X18194695Y20961000D01*
X18194695Y20961000D02*
X10107494Y29048201D01*
X10107494Y29048201D02*
X10107494Y31040506D01*
X10107494Y31040506D02*
X10033000Y31115000D01*
X10213000Y10414000D02*
X13589000Y10414000D01*
X19177000Y10391140D02*
X19177000Y12941000D01*
X20147000Y13911000D02*
X20822000Y13911000D01*
X19177000Y12941000D02*
X20147000Y13911000D01*
X13589000Y10414000D02*
X19154140Y10414000D01*
X19154140Y10414000D02*
X19177000Y10391140D01*
X19372000Y16961000D02*
X14465316Y16961000D01*
X14465316Y16961000D02*
X13585968Y17840348D01*
X17247207Y15283126D02*
X13603190Y15283126D01*
X13603190Y15283126D02*
X13585968Y15300348D01*
X19372000Y16161000D02*
X18125081Y16161000D01*
X18125081Y16161000D02*
X17247207Y15283126D01*
X43434000Y7747000D02*
X43434000Y7594600D01*
X27806151Y6330990D02*
X22422000Y11715141D01*
X43434000Y7594600D02*
X42170390Y6330990D01*
X42170390Y6330990D02*
X27806151Y6330990D01*
X22422000Y11715141D02*
X22422000Y12711000D01*
X22422000Y12711000D02*
X22422000Y13911000D01*
X40894000Y7747000D02*
X27608740Y7747000D01*
X27608740Y7747000D02*
X23222000Y12133740D01*
X23222000Y12133740D02*
X23222000Y12711000D01*
X23222000Y12711000D02*
X23222000Y13911000D01*
X7493000Y26352250D02*
X7949823Y25895427D01*
X7493000Y31115000D02*
X7493000Y26352250D01*
X24022000Y13911000D02*
X24022000Y12313796D01*
X24022000Y12313796D02*
X26536260Y9799536D01*
X26536260Y9799536D02*
X33325940Y9799536D01*
X33325940Y9799536D02*
X33750204Y9799536D01*
X24822000Y13911000D02*
X24822000Y12711000D01*
X24822000Y12711000D02*
X26103000Y11430000D01*
X26103000Y11430000D02*
X42713998Y11430000D01*
X42713998Y11430000D02*
X46149387Y14865389D01*
X46149387Y14865389D02*
X49189804Y14865389D01*
X49189804Y14865389D02*
X49930010Y15605595D01*
X49930010Y15605595D02*
X49930010Y21208999D01*
X49930010Y21208999D02*
X48514000Y21208999D01*
X25622000Y13911000D02*
X25622000Y12915998D01*
X25622000Y12915998D02*
X25826999Y12710999D01*
X25826999Y12710999D02*
X42403600Y12710999D01*
X42403600Y12710999D02*
X48361600Y18668999D01*
X48361600Y18668999D02*
X48514000Y18668999D01*
X26422000Y13911000D02*
X26723229Y13609771D01*
X26723229Y13609771D02*
X35733170Y13609771D01*
X35733170Y13609771D02*
X38226999Y16103600D01*
X38226999Y16103600D02*
X38226999Y16256000D01*
X36322000Y48133000D02*
X36322000Y49686962D01*
X44948497Y52244660D02*
X46567400Y50625757D01*
X46567400Y50625757D02*
X46567400Y49911000D01*
X36322000Y49686962D02*
X38879698Y52244660D01*
X38879698Y52244660D02*
X44948497Y52244660D01*
X18542000Y45593000D02*
X18542000Y49575644D01*
X20706156Y51739800D02*
X27687836Y51739800D01*
X18542000Y49575644D02*
X20706156Y51739800D01*
X27687836Y51739800D02*
X28736600Y50691036D01*
X28736600Y50691036D02*
X28736600Y49860200D01*
X47879000Y39878000D02*
X47879000Y37338000D01*
X47879000Y42418000D02*
X47879000Y39878000D01*
X46482000Y45466000D02*
X46482000Y43815000D01*
X46482000Y43815000D02*
X47879000Y42418000D01*
X32943800Y49657000D02*
X34798000Y49657000D01*
X34798000Y49657000D02*
X36322000Y48133000D01*
X28736600Y49860200D02*
X32740600Y49860200D01*
X32740600Y49860200D02*
X32943800Y49657000D01*
D36*
X18542000Y40132000D02*
X18542000Y45593000D01*
X18542000Y37592000D02*
X18542000Y40132000D01*
D35*
X46482000Y45466000D02*
X46482000Y49825600D01*
X46482000Y49825600D02*
X46567400Y49911000D01*
X28702000Y45593000D02*
X28702000Y49825600D01*
X28702000Y49825600D02*
X28736600Y49860200D01*
X23622000Y45593000D02*
X23622000Y49774800D01*
X23622000Y49774800D02*
X23536600Y49860200D01*
X24003000Y45212000D02*
X23622000Y45593000D01*
X24003000Y38608000D02*
X24003000Y45212000D01*
X32943800Y44457000D02*
X35186000Y44457000D01*
X35186000Y44457000D02*
X36322000Y45593000D01*
X31623000Y38608000D02*
X31623000Y43136200D01*
X31623000Y43136200D02*
X32943800Y44457000D01*
X41402000Y45466000D02*
X42926000Y43942000D01*
X42926000Y43942000D02*
X42926000Y39878000D01*
X41402000Y45466000D02*
X41402000Y49876400D01*
X41402000Y49876400D02*
X41367400Y49911000D01*
X24822000Y22411000D02*
X24822000Y25956000D01*
X24822000Y25956000D02*
X23875000Y26903000D01*
X19372000Y19361000D02*
X17055715Y19361000D01*
X17055715Y19361000D02*
X14772757Y21643958D01*
X14772757Y21643958D02*
X8429838Y21643958D01*
X8429838Y21643958D02*
X6475537Y19689657D01*
X6475537Y19689657D02*
X6475537Y19103537D01*
X6475537Y19103537D02*
X6475000Y19103000D01*
X23075000Y8503000D02*
X21622000Y9956000D01*
X21622000Y9956000D02*
X21622000Y13911000D01*
D37*
G36*
X24335115Y12509325D02*
X24449355Y12338355D01*
X25730355Y11057354D01*
X25901326Y10943115D01*
X26103000Y10903000D01*
X39624000Y10903000D01*
X39624000Y8274000D01*
X27827030Y8274000D01*
X23749000Y12352030D01*
X23749000Y12700000D01*
X24297188Y12700000D01*
X24335115Y12509325D01*
X24335115Y12509325D01*
G37*
X24335115Y12509325D02*
X24449355Y12338355D01*
X25730355Y11057354D01*
X25901326Y10943115D01*
X26103000Y10903000D01*
X39624000Y10903000D01*
X39624000Y8274000D01*
X27827030Y8274000D01*
X23749000Y12352030D01*
X23749000Y12700000D01*
X24297188Y12700000D01*
X24335115Y12509325D01*
G36*
X8229601Y28866083D02*
X8269716Y28664408D01*
X8383956Y28493438D01*
X10033000Y26844394D01*
X10033000Y24257000D01*
X5588000Y24257000D01*
X5588000Y32258000D01*
X8229601Y32258000D01*
X8229601Y28866083D01*
X8229601Y28866083D01*
G37*
X8229601Y28866083D02*
X8269716Y28664408D01*
X8383956Y28493438D01*
X10033000Y26844394D01*
X10033000Y24257000D01*
X5588000Y24257000D01*
X5588000Y32258000D01*
X8229601Y32258000D01*
X8229601Y28866083D01*
G36*
X16408400Y37007800D02*
X16418406Y36958390D01*
X16446396Y36917206D01*
X19142117Y34268778D01*
X19107202Y34093249D01*
X19107202Y30311212D01*
X19147317Y30109537D01*
X19261557Y29938567D01*
X20269200Y28930923D01*
X20269200Y25656619D01*
X18181983Y25699215D01*
X16891000Y26990197D01*
X16891000Y33401000D01*
X16880994Y33450410D01*
X16851872Y33492693D01*
X13843000Y36376195D01*
X13843000Y40767000D01*
X13822295Y40836501D01*
X11684000Y44106835D01*
X11684000Y47142400D01*
X16408400Y47142400D01*
X16408400Y37007800D01*
X16408400Y37007800D01*
G37*
X16408400Y37007800D02*
X16418406Y36958390D01*
X16446396Y36917206D01*
X19142117Y34268778D01*
X19107202Y34093249D01*
X19107202Y30311212D01*
X19147317Y30109537D01*
X19261557Y29938567D01*
X20269200Y28930923D01*
X20269200Y25656619D01*
X18181983Y25699215D01*
X16891000Y26990197D01*
X16891000Y33401000D01*
X16880994Y33450410D01*
X16851872Y33492693D01*
X13843000Y36376195D01*
X13843000Y40767000D01*
X13822295Y40836501D01*
X11684000Y44106835D01*
X11684000Y47142400D01*
X16408400Y47142400D01*
X16408400Y37007800D01*
G36*
X26060400Y35662851D02*
X21132362Y35711165D01*
X21082190Y50110553D01*
X21970806Y50952400D01*
X26060400Y50952400D01*
X26060400Y35662851D01*
X26060400Y35662851D01*
G37*
X26060400Y35662851D02*
X21132362Y35711165D01*
X21082190Y50110553D01*
X21970806Y50952400D01*
X26060400Y50952400D01*
X26060400Y35662851D01*
G36*
X37693600Y43982554D02*
X34496353Y41734490D01*
X34461689Y41697885D01*
X34442400Y41630600D01*
X34442400Y35763200D01*
X28803600Y35763200D01*
X28803600Y42393960D01*
X32694827Y46634400D01*
X37693600Y46634400D01*
X37693600Y43982554D01*
X37693600Y43982554D01*
G37*
X37693600Y43982554D02*
X34496353Y41734490D01*
X34461689Y41697885D01*
X34442400Y41630600D01*
X34442400Y35763200D01*
X28803600Y35763200D01*
X28803600Y42393960D01*
X32694827Y46634400D01*
X37693600Y46634400D01*
X37693600Y43982554D01*
G36*
X44654997Y45462627D02*
X44654684Y45104182D01*
X44726997Y44929171D01*
X45008800Y42841267D01*
X45008800Y37084000D01*
X39268400Y37084000D01*
X39268400Y51003200D01*
X43907189Y51003200D01*
X44654997Y45462627D01*
X44654997Y45462627D01*
G37*
X44654997Y45462627D02*
X44654684Y45104182D01*
X44726997Y44929171D01*
X45008800Y42841267D01*
X45008800Y37084000D01*
X39268400Y37084000D01*
X39268400Y51003200D01*
X43907189Y51003200D01*
X44654997Y45462627D01*
G36*
X48971200Y36271200D02*
X47649634Y36271200D01*
X47360475Y36560359D01*
X47324908Y36613589D01*
X47016057Y36819956D01*
X46651742Y36892423D01*
X46482000Y36892423D01*
X46482000Y43053000D01*
X46471994Y43102410D01*
X46443553Y43144035D01*
X46401159Y43171315D01*
X46355000Y43180000D01*
X46181484Y43180000D01*
X46103714Y43233138D01*
X45974000Y43259406D01*
X45540894Y43259406D01*
X44448859Y51350387D01*
X44432334Y51398015D01*
X44398581Y51435461D01*
X44352919Y51456826D01*
X44323000Y51460400D01*
X38938200Y51460400D01*
X38888790Y51450394D01*
X38847165Y51421953D01*
X38819885Y51379559D01*
X38811200Y51333400D01*
X38811200Y47091600D01*
X32537400Y47091600D01*
X32487990Y47081594D01*
X32443971Y47050623D01*
X28646300Y42926000D01*
X26669242Y42926000D01*
X26619198Y51283360D01*
X26608896Y51332710D01*
X26580207Y51374163D01*
X26537650Y51401189D01*
X26492200Y51409600D01*
X21361400Y51409600D01*
X21311990Y51399594D01*
X21274746Y51375444D01*
X20512746Y50664244D01*
X20483451Y50623216D01*
X20472400Y50571400D01*
X20472400Y42976800D01*
X16916400Y42976800D01*
X16916400Y55016400D01*
X48971200Y55016400D01*
X48971200Y36271200D01*
X48971200Y36271200D01*
G37*
X48971200Y36271200D02*
X47649634Y36271200D01*
X47360475Y36560359D01*
X47324908Y36613589D01*
X47016057Y36819956D01*
X46651742Y36892423D01*
X46482000Y36892423D01*
X46482000Y43053000D01*
X46471994Y43102410D01*
X46443553Y43144035D01*
X46401159Y43171315D01*
X46355000Y43180000D01*
X46181484Y43180000D01*
X46103714Y43233138D01*
X45974000Y43259406D01*
X45540894Y43259406D01*
X44448859Y51350387D01*
X44432334Y51398015D01*
X44398581Y51435461D01*
X44352919Y51456826D01*
X44323000Y51460400D01*
X38938200Y51460400D01*
X38888790Y51450394D01*
X38847165Y51421953D01*
X38819885Y51379559D01*
X38811200Y51333400D01*
X38811200Y47091600D01*
X32537400Y47091600D01*
X32487990Y47081594D01*
X32443971Y47050623D01*
X28646300Y42926000D01*
X26669242Y42926000D01*
X26619198Y51283360D01*
X26608896Y51332710D01*
X26580207Y51374163D01*
X26537650Y51401189D01*
X26492200Y51409600D01*
X21361400Y51409600D01*
X21311990Y51399594D01*
X21274746Y51375444D01*
X20512746Y50664244D01*
X20483451Y50623216D01*
X20472400Y50571400D01*
X20472400Y42976800D01*
X16916400Y42976800D01*
X16916400Y55016400D01*
X48971200Y55016400D01*
X48971200Y36271200D01*
G36*
X55815000Y700000D02*
X702000Y700000D01*
X702000Y3622224D01*
X1515591Y3622224D01*
X1873971Y2754879D01*
X2536989Y2090703D01*
X3403707Y1730810D01*
X4342176Y1729991D01*
X5209521Y2088371D01*
X5873697Y2751389D01*
X6233590Y3618107D01*
X6234409Y4556576D01*
X5876029Y5423921D01*
X5213011Y6088097D01*
X4346293Y6447990D01*
X3407824Y6448809D01*
X2540479Y6090429D01*
X1876303Y5427411D01*
X1516410Y4560693D01*
X1515591Y3622224D01*
X702000Y3622224D01*
X702000Y19930169D01*
X4313331Y19930169D01*
X4313331Y17558569D01*
X4353446Y17356894D01*
X4467686Y17185924D01*
X6786000Y14867610D01*
X6786000Y11582918D01*
X6741821Y11574605D01*
X6630526Y11502988D01*
X6555862Y11393714D01*
X6529594Y11264000D01*
X6529594Y9564000D01*
X6552395Y9442821D01*
X6624012Y9331526D01*
X6733286Y9256862D01*
X6863000Y9230594D01*
X7351116Y9230594D01*
X12255355Y4326355D01*
X12426325Y4212115D01*
X12628000Y4172000D01*
X16204136Y4172000D01*
X16430119Y3833794D01*
X16816377Y3575704D01*
X17272000Y3485075D01*
X17727623Y3575704D01*
X17983985Y3747000D01*
X19100015Y3747000D01*
X19356377Y3575704D01*
X19812000Y3485075D01*
X20267623Y3575704D01*
X20523985Y3747000D01*
X21640015Y3747000D01*
X21896377Y3575704D01*
X22352000Y3485075D01*
X22807623Y3575704D01*
X23063985Y3747000D01*
X23178982Y3747000D01*
X24013906Y2912077D01*
X24013908Y2912074D01*
X24322759Y2705707D01*
X24687074Y2633240D01*
X47716842Y2633240D01*
X48081157Y2705707D01*
X48390008Y2912074D01*
X50651838Y5173904D01*
X50397210Y4560693D01*
X50396391Y3622224D01*
X50754771Y2754879D01*
X51417789Y2090703D01*
X52284507Y1730810D01*
X53222976Y1729991D01*
X54090321Y2088371D01*
X54754497Y2751389D01*
X55114390Y3618107D01*
X55115209Y4556576D01*
X54756829Y5423921D01*
X54093811Y6088097D01*
X53227093Y6447990D01*
X52288624Y6448809D01*
X51671929Y6193995D01*
X52228195Y6750262D01*
X52228198Y6750264D01*
X52434565Y7059115D01*
X52507032Y7423430D01*
X52507032Y31019470D01*
X52434565Y31383785D01*
X52228198Y31692636D01*
X49530000Y34390834D01*
X49530000Y53735824D01*
X50515591Y53735824D01*
X50873971Y52868479D01*
X51536989Y52204303D01*
X52403707Y51844410D01*
X53342176Y51843591D01*
X54209521Y52201971D01*
X54873697Y52864989D01*
X55233590Y53731707D01*
X55234409Y54670176D01*
X54876029Y55537521D01*
X54213011Y56201697D01*
X53346293Y56561590D01*
X52407824Y56562409D01*
X51540479Y56204029D01*
X50876303Y55541011D01*
X50516410Y54674293D01*
X50515591Y53735824D01*
X49530000Y53735824D01*
X49530000Y55372000D01*
X49519994Y55421410D01*
X49491553Y55463035D01*
X49449159Y55490315D01*
X49403000Y55499000D01*
X16510000Y55499000D01*
X16460590Y55488994D01*
X16418965Y55460553D01*
X16391685Y55418159D01*
X16383000Y55372000D01*
X16383000Y41148000D01*
X8382000Y41148000D01*
X8332590Y41137994D01*
X8290965Y41109553D01*
X8263685Y41067159D01*
X8255000Y41021000D01*
X8255000Y35046291D01*
X8239976Y34970760D01*
X8229601Y34918599D01*
X8229601Y32893000D01*
X5207000Y32893000D01*
X5207000Y33020000D01*
X5080372Y33029717D01*
X5069881Y32893000D01*
X5048372Y32612717D01*
X5048000Y32603000D01*
X5048000Y20883128D01*
X4467686Y20302814D01*
X4353446Y20131844D01*
X4336741Y20047862D01*
X4313331Y19930169D01*
X702000Y19930169D01*
X702000Y53735824D01*
X1515591Y53735824D01*
X1873971Y52868479D01*
X2536989Y52204303D01*
X3403707Y51844410D01*
X4342176Y51843591D01*
X5209521Y52201971D01*
X5873697Y52864989D01*
X6233590Y53731707D01*
X6234409Y54670176D01*
X5876029Y55537521D01*
X5213011Y56201697D01*
X4346293Y56561590D01*
X3407824Y56562409D01*
X2540479Y56204029D01*
X1876303Y55541011D01*
X1516410Y54674293D01*
X1515591Y53735824D01*
X702000Y53735824D01*
X702000Y58482000D01*
X55815000Y58482000D01*
X55815000Y700000D01*
X55815000Y700000D01*
G37*
X55815000Y700000D02*
X702000Y700000D01*
X702000Y3622224D01*
X1515591Y3622224D01*
X1873971Y2754879D01*
X2536989Y2090703D01*
X3403707Y1730810D01*
X4342176Y1729991D01*
X5209521Y2088371D01*
X5873697Y2751389D01*
X6233590Y3618107D01*
X6234409Y4556576D01*
X5876029Y5423921D01*
X5213011Y6088097D01*
X4346293Y6447990D01*
X3407824Y6448809D01*
X2540479Y6090429D01*
X1876303Y5427411D01*
X1516410Y4560693D01*
X1515591Y3622224D01*
X702000Y3622224D01*
X702000Y19930169D01*
X4313331Y19930169D01*
X4313331Y17558569D01*
X4353446Y17356894D01*
X4467686Y17185924D01*
X6786000Y14867610D01*
X6786000Y11582918D01*
X6741821Y11574605D01*
X6630526Y11502988D01*
X6555862Y11393714D01*
X6529594Y11264000D01*
X6529594Y9564000D01*
X6552395Y9442821D01*
X6624012Y9331526D01*
X6733286Y9256862D01*
X6863000Y9230594D01*
X7351116Y9230594D01*
X12255355Y4326355D01*
X12426325Y4212115D01*
X12628000Y4172000D01*
X16204136Y4172000D01*
X16430119Y3833794D01*
X16816377Y3575704D01*
X17272000Y3485075D01*
X17727623Y3575704D01*
X17983985Y3747000D01*
X19100015Y3747000D01*
X19356377Y3575704D01*
X19812000Y3485075D01*
X20267623Y3575704D01*
X20523985Y3747000D01*
X21640015Y3747000D01*
X21896377Y3575704D01*
X22352000Y3485075D01*
X22807623Y3575704D01*
X23063985Y3747000D01*
X23178982Y3747000D01*
X24013906Y2912077D01*
X24013908Y2912074D01*
X24322759Y2705707D01*
X24687074Y2633240D01*
X47716842Y2633240D01*
X48081157Y2705707D01*
X48390008Y2912074D01*
X50651838Y5173904D01*
X50397210Y4560693D01*
X50396391Y3622224D01*
X50754771Y2754879D01*
X51417789Y2090703D01*
X52284507Y1730810D01*
X53222976Y1729991D01*
X54090321Y2088371D01*
X54754497Y2751389D01*
X55114390Y3618107D01*
X55115209Y4556576D01*
X54756829Y5423921D01*
X54093811Y6088097D01*
X53227093Y6447990D01*
X52288624Y6448809D01*
X51671929Y6193995D01*
X52228195Y6750262D01*
X52228198Y6750264D01*
X52434565Y7059115D01*
X52507032Y7423430D01*
X52507032Y31019470D01*
X52434565Y31383785D01*
X52228198Y31692636D01*
X49530000Y34390834D01*
X49530000Y53735824D01*
X50515591Y53735824D01*
X50873971Y52868479D01*
X51536989Y52204303D01*
X52403707Y51844410D01*
X53342176Y51843591D01*
X54209521Y52201971D01*
X54873697Y52864989D01*
X55233590Y53731707D01*
X55234409Y54670176D01*
X54876029Y55537521D01*
X54213011Y56201697D01*
X53346293Y56561590D01*
X52407824Y56562409D01*
X51540479Y56204029D01*
X50876303Y55541011D01*
X50516410Y54674293D01*
X50515591Y53735824D01*
X49530000Y53735824D01*
X49530000Y55372000D01*
X49519994Y55421410D01*
X49491553Y55463035D01*
X49449159Y55490315D01*
X49403000Y55499000D01*
X16510000Y55499000D01*
X16460590Y55488994D01*
X16418965Y55460553D01*
X16391685Y55418159D01*
X16383000Y55372000D01*
X16383000Y41148000D01*
X8382000Y41148000D01*
X8332590Y41137994D01*
X8290965Y41109553D01*
X8263685Y41067159D01*
X8255000Y41021000D01*
X8255000Y35046291D01*
X8239976Y34970760D01*
X8229601Y34918599D01*
X8229601Y32893000D01*
X5207000Y32893000D01*
X5207000Y33020000D01*
X5080372Y33029717D01*
X5069881Y32893000D01*
X5048372Y32612717D01*
X5048000Y32603000D01*
X5048000Y20883128D01*
X4467686Y20302814D01*
X4353446Y20131844D01*
X4336741Y20047862D01*
X4313331Y19930169D01*
X702000Y19930169D01*
X702000Y53735824D01*
X1515591Y53735824D01*
X1873971Y52868479D01*
X2536989Y52204303D01*
X3403707Y51844410D01*
X4342176Y51843591D01*
X5209521Y52201971D01*
X5873697Y52864989D01*
X6233590Y53731707D01*
X6234409Y54670176D01*
X5876029Y55537521D01*
X5213011Y56201697D01*
X4346293Y56561590D01*
X3407824Y56562409D01*
X2540479Y56204029D01*
X1876303Y55541011D01*
X1516410Y54674293D01*
X1515591Y53735824D01*
X702000Y53735824D01*
X702000Y58482000D01*
X55815000Y58482000D01*
X55815000Y700000D01*
G36*
X50603032Y30625138D02*
X50603032Y27630000D01*
X46175000Y27630000D01*
X46125590Y27619994D01*
X46083965Y27591553D01*
X46056685Y27549159D01*
X46048000Y27503000D01*
X46048000Y26030000D01*
X26949000Y26030000D01*
X26949000Y27892798D01*
X26908885Y28094472D01*
X26794645Y28265443D01*
X25607444Y29452644D01*
X25436474Y29566884D01*
X25234799Y29606999D01*
X23276289Y29606999D01*
X22507288Y30376000D01*
X25075000Y30376000D01*
X25124410Y30386006D01*
X25166035Y30414447D01*
X25193315Y30456841D01*
X25202000Y30503000D01*
X25202000Y33734028D01*
X27814182Y33734028D01*
X27848000Y33700210D01*
X27848000Y30503000D01*
X27858006Y30453590D01*
X27886447Y30411965D01*
X27928841Y30384685D01*
X27975000Y30376000D01*
X32775000Y30376000D01*
X32824410Y30386006D01*
X32866035Y30414447D01*
X32893315Y30456841D01*
X32902000Y30503000D01*
X32902000Y34076000D01*
X36664893Y34076000D01*
X37585538Y33155355D01*
X37756508Y33041115D01*
X37958183Y33001000D01*
X39448000Y33001000D01*
X39448000Y31703000D01*
X39458006Y31653590D01*
X39486447Y31611965D01*
X39528841Y31584685D01*
X39575000Y31576000D01*
X44075000Y31576000D01*
X44124410Y31586006D01*
X44166035Y31614447D01*
X44193315Y31656841D01*
X44202000Y31703000D01*
X44202000Y34988423D01*
X46239747Y34988423D01*
X50603032Y30625138D01*
X50603032Y30625138D01*
G37*
X50603032Y30625138D02*
X50603032Y27630000D01*
X46175000Y27630000D01*
X46125590Y27619994D01*
X46083965Y27591553D01*
X46056685Y27549159D01*
X46048000Y27503000D01*
X46048000Y26030000D01*
X26949000Y26030000D01*
X26949000Y27892798D01*
X26908885Y28094472D01*
X26794645Y28265443D01*
X25607444Y29452644D01*
X25436474Y29566884D01*
X25234799Y29606999D01*
X23276289Y29606999D01*
X22507288Y30376000D01*
X25075000Y30376000D01*
X25124410Y30386006D01*
X25166035Y30414447D01*
X25193315Y30456841D01*
X25202000Y30503000D01*
X25202000Y33734028D01*
X27814182Y33734028D01*
X27848000Y33700210D01*
X27848000Y30503000D01*
X27858006Y30453590D01*
X27886447Y30411965D01*
X27928841Y30384685D01*
X27975000Y30376000D01*
X32775000Y30376000D01*
X32824410Y30386006D01*
X32866035Y30414447D01*
X32893315Y30456841D01*
X32902000Y30503000D01*
X32902000Y34076000D01*
X36664893Y34076000D01*
X37585538Y33155355D01*
X37756508Y33041115D01*
X37958183Y33001000D01*
X39448000Y33001000D01*
X39448000Y31703000D01*
X39458006Y31653590D01*
X39486447Y31611965D01*
X39528841Y31584685D01*
X39575000Y31576000D01*
X44075000Y31576000D01*
X44124410Y31586006D01*
X44166035Y31614447D01*
X44193315Y31656841D01*
X44202000Y31703000D01*
X44202000Y34988423D01*
X46239747Y34988423D01*
X50603032Y30625138D01*
G36*
X22342502Y27817706D02*
X22513472Y27703466D01*
X22715147Y27663351D01*
X24537644Y27663351D01*
X25095000Y27105995D01*
X25095000Y23530000D01*
X24549000Y23530000D01*
X24549000Y24190863D01*
X24508885Y24392537D01*
X24508885Y24392538D01*
X24394645Y24563508D01*
X21856365Y27101788D01*
X21856365Y28076000D01*
X22084208Y28076000D01*
X22342502Y27817706D01*
X22342502Y27817706D01*
G37*
X22342502Y27817706D02*
X22513472Y27703466D01*
X22715147Y27663351D01*
X24537644Y27663351D01*
X25095000Y27105995D01*
X25095000Y23530000D01*
X24549000Y23530000D01*
X24549000Y24190863D01*
X24508885Y24392537D01*
X24508885Y24392538D01*
X24394645Y24563508D01*
X21856365Y27101788D01*
X21856365Y28076000D01*
X22084208Y28076000D01*
X22342502Y27817706D01*
G36*
X21895000Y11715141D02*
X21935115Y11513466D01*
X22049355Y11342496D01*
X26961850Y6430000D01*
X20602000Y6430000D01*
X20602000Y12776000D01*
X21895000Y12776000D01*
X21895000Y11715141D01*
X21895000Y11715141D01*
G37*
X21895000Y11715141D02*
X21935115Y11513466D01*
X22049355Y11342496D01*
X26961850Y6430000D01*
X20602000Y6430000D01*
X20602000Y12776000D01*
X21895000Y12776000D01*
X21895000Y11715141D01*
G36*
X8248000Y19747038D02*
X7990345Y19489383D01*
X7876105Y19318413D01*
X7876105Y19318412D01*
X7835990Y19116738D01*
X7835990Y16730000D01*
X6414190Y16730000D01*
X5367331Y17776859D01*
X5367331Y19711879D01*
X8006305Y22350853D01*
X8248000Y22350853D01*
X8248000Y19747038D01*
X8248000Y19747038D01*
G37*
X8248000Y19747038D02*
X7990345Y19489383D01*
X7876105Y19318413D01*
X7876105Y19318412D01*
X7835990Y19116738D01*
X7835990Y16730000D01*
X6414190Y16730000D01*
X5367331Y17776859D01*
X5367331Y19711879D01*
X8006305Y22350853D01*
X8248000Y22350853D01*
X8248000Y19747038D01*
M02*
