M48
;DRILL file {KiCad 4.0.2+dfsg1-stable} date Thu 14 Apr 2016 07:39:38 AM EDT
;FORMAT={-:-/ absolute / metric / decimal}
FMAT,2
METRIC,TZ
T1C0.533
T2C1.016
T3C2.260
%
G90
G05
M71
T1
X14.756Y55.553
X14.756Y53.013
X14.756Y50.473
X14.756Y47.933
X14.756Y45.393
X14.756Y42.853
X14.756Y40.313
X14.756Y37.773
X14.756Y35.233
X14.756Y32.693
X14.756Y30.153
X14.756Y27.613
X14.756Y25.073
T2
X3.072Y-5.344
X5.612Y-5.344
X17.423Y-2.804
X17.423Y-5.344
X19.963Y-2.804
X19.963Y-5.344
X22.503Y-2.804
X22.503Y-5.344
T3
X8.861Y68.888
X8.861Y11.738
T0
M30
