G04 #@! TF.FileFunction,Legend,Top*
%FSLAX46Y46*%
G04 Gerber Fmt 4.6, Leading zero omitted, Abs format (unit mm)*
G04 Created by KiCad (PCBNEW 4.0.2+dfsg1-stable) date Thu 14 Apr 2016 07:39:57 AM EDT*
%MOMM*%
G01*
G04 APERTURE LIST*
%ADD10C,0.150000*%
G04 APERTURE END LIST*
D10*
X13608000Y-7017000D02*
X9808000Y-7017000D01*
X13608000Y-3417000D02*
X13608000Y-7017000D01*
X9808000Y-3417000D02*
X13608000Y-3417000D01*
X9808000Y-7017000D02*
X9808000Y-3417000D01*
X12006000Y19700000D02*
X12006000Y19400000D01*
X17506000Y19700000D02*
X17506000Y19400000D01*
X17506000Y14190000D02*
X17506000Y14490000D01*
X12006000Y14190000D02*
X12006000Y14490000D01*
X12006000Y19700000D02*
X17506000Y19700000D01*
X12006000Y14190000D02*
X17506000Y14190000D01*
X12006000Y19400000D02*
X10256000Y19400000D01*
X8600000Y-3775000D02*
X6600000Y-3775000D01*
X6600000Y-1625000D02*
X8600000Y-1625000D01*
X11138162Y-1097381D02*
X10804828Y-621190D01*
X10566733Y-1097381D02*
X10566733Y-97381D01*
X10947686Y-97381D01*
X11042924Y-145000D01*
X11090543Y-192619D01*
X11138162Y-287857D01*
X11138162Y-430714D01*
X11090543Y-525952D01*
X11042924Y-573571D01*
X10947686Y-621190D01*
X10566733Y-621190D01*
X11423876Y-97381D02*
X11757209Y-1097381D01*
X12090543Y-97381D01*
X12947686Y-1097381D02*
X12376257Y-1097381D01*
X12661971Y-1097381D02*
X12661971Y-97381D01*
X12566733Y-240238D01*
X12471495Y-335476D01*
X12376257Y-383095D01*
X13779810Y20172619D02*
X13779810Y21172619D01*
X14827429Y20267857D02*
X14779810Y20220238D01*
X14636953Y20172619D01*
X14541715Y20172619D01*
X14398857Y20220238D01*
X14303619Y20315476D01*
X14256000Y20410714D01*
X14208381Y20601190D01*
X14208381Y20744048D01*
X14256000Y20934524D01*
X14303619Y21029762D01*
X14398857Y21125000D01*
X14541715Y21172619D01*
X14636953Y21172619D01*
X14779810Y21125000D01*
X14827429Y21077381D01*
X15779810Y20172619D02*
X15208381Y20172619D01*
X15494095Y20172619D02*
X15494095Y21172619D01*
X15398857Y21029762D01*
X15303619Y20934524D01*
X15208381Y20886905D01*
X7433334Y-852381D02*
X7100000Y-376190D01*
X6861905Y-852381D02*
X6861905Y147619D01*
X7242858Y147619D01*
X7338096Y100000D01*
X7385715Y52381D01*
X7433334Y-42857D01*
X7433334Y-185714D01*
X7385715Y-280952D01*
X7338096Y-328571D01*
X7242858Y-376190D01*
X6861905Y-376190D01*
X8385715Y-852381D02*
X7814286Y-852381D01*
X8100000Y-852381D02*
X8100000Y147619D01*
X8004762Y4762D01*
X7909524Y-90476D01*
X7814286Y-138095D01*
M02*
