G04 #@! TF.FileFunction,Copper,L1,Top,Signal*
%FSLAX46Y46*%
G04 Gerber Fmt 4.6, Leading zero omitted, Abs format (unit mm)*
G04 Created by KiCad (PCBNEW 4.0.2+dfsg1-stable) date Thu 14 Apr 2016 07:39:57 AM EDT*
%MOMM*%
G01*
G04 APERTURE LIST*
%ADD10C,0.150000*%
%ADD11R,1.600000X1.500000*%
%ADD12R,1.200000X1.200000*%
%ADD13O,2.032000X1.727200*%
%ADD14C,2.500000*%
%ADD15R,1.700000X0.650000*%
%ADD16R,1.727200X1.727200*%
%ADD17O,1.727200X1.727200*%
%ADD18R,2.032000X2.032000*%
%ADD19O,2.032000X2.032000*%
%ADD20R,0.900000X1.700000*%
%ADD21C,0.300000*%
G04 APERTURE END LIST*
D10*
D11*
X11708000Y-3767000D03*
D12*
X13108000Y-7017000D03*
X10308000Y-7017000D03*
D13*
X14756000Y40313000D03*
X14756000Y37773000D03*
X14756000Y35233000D03*
X14756000Y32693000D03*
X14756000Y30153000D03*
X14756000Y27613000D03*
X14756000Y25073000D03*
X14756000Y42853000D03*
X14756000Y45393000D03*
X14756000Y47933000D03*
X14756000Y50473000D03*
X14756000Y53013000D03*
X14756000Y55553000D03*
D14*
X8861000Y68888000D03*
X8861000Y11738000D03*
D15*
X11106000Y18850000D03*
X11106000Y17580000D03*
X11106000Y16310000D03*
X11106000Y15040000D03*
X18406000Y15040000D03*
X18406000Y16310000D03*
X18406000Y17580000D03*
X18406000Y18850000D03*
D16*
X17423000Y-2804000D03*
D17*
X17423000Y-5344000D03*
X19963000Y-2804000D03*
X19963000Y-5344000D03*
X22503000Y-2804000D03*
X22503000Y-5344000D03*
D18*
X3072000Y-5344000D03*
D19*
X5612000Y-5344000D03*
D20*
X6150000Y-2700000D03*
X9050000Y-2700000D03*
D21*
X22503000Y-2804000D02*
X22503000Y53297000D01*
X22503000Y53297000D02*
X18674753Y57125247D01*
X18674753Y57125247D02*
X12425247Y57125247D01*
X12425247Y57125247D02*
X11073000Y55773000D01*
X11073000Y55773000D02*
X11073000Y19508000D01*
X11073000Y19508000D02*
X11106000Y19475000D01*
X11106000Y19475000D02*
X11106000Y18850000D01*
X11106000Y17580000D02*
X11934521Y17580000D01*
X11934521Y17580000D02*
X12634602Y18280081D01*
X12634602Y18280081D02*
X12634602Y21650050D01*
X12634602Y21650050D02*
X11903192Y22381460D01*
X11903192Y37773000D02*
X12343000Y37773000D01*
X11903192Y22381460D02*
X11903192Y37773000D01*
X12343000Y37773000D02*
X11902769Y37773000D01*
X11902769Y37773000D02*
X11902769Y50312169D01*
X11902769Y50312169D02*
X14603600Y53013000D01*
X14603600Y53013000D02*
X14756000Y53013000D01*
X14756000Y37773000D02*
X13440000Y37773000D01*
X13440000Y37773000D02*
X12343000Y37773000D01*
X14756000Y37773000D02*
X14603600Y37773000D01*
X14756000Y32693000D02*
X12637964Y32693000D01*
X12637964Y32693000D02*
X12637964Y35937964D01*
X12637964Y35937964D02*
X13203000Y36503000D01*
X13203000Y36503000D02*
X15856657Y36503000D01*
X15856657Y36503000D02*
X16424388Y37070731D01*
X14603600Y47933000D02*
X14756000Y47933000D01*
X16424388Y37070731D02*
X16424388Y38462524D01*
X13375827Y39040413D02*
X12837148Y39579092D01*
X12837148Y46166548D02*
X14603600Y47933000D01*
X16424388Y38462524D02*
X15846499Y39040413D01*
X15846499Y39040413D02*
X13375827Y39040413D01*
X12837148Y39579092D02*
X12837148Y46166548D01*
X14908400Y47933000D02*
X14756000Y47933000D01*
X11106000Y16310000D02*
X12115479Y16310000D01*
X12115479Y16310000D02*
X13617510Y17812031D01*
X13617510Y17812031D02*
X13617510Y23038602D01*
X13617510Y23038602D02*
X12637144Y24018968D01*
X12637144Y24018968D02*
X12637144Y32693000D01*
X12637144Y32693000D02*
X14756000Y32693000D01*
X1300000Y-6615002D02*
X1300000Y10097319D01*
X13108000Y-7017000D02*
X13108000Y-8200000D01*
X13108000Y-8200000D02*
X2884998Y-8200000D01*
X2884998Y-8200000D02*
X1300000Y-6615002D01*
X1300000Y10097319D02*
X6242681Y15040000D01*
X6242681Y15040000D02*
X9956000Y15040000D01*
X9956000Y15040000D02*
X11106000Y15040000D01*
X14756000Y25073000D02*
X13440000Y25073000D01*
X15624686Y31366610D02*
X16424388Y32166312D01*
X13440000Y25073000D02*
X13300000Y25213000D01*
X13666610Y31366610D02*
X15624686Y31366610D01*
X14908400Y35233000D02*
X14756000Y35233000D01*
X13300000Y25213000D02*
X13300000Y31000000D01*
X13300000Y31000000D02*
X13666610Y31366610D01*
X16424388Y32166312D02*
X16424388Y33717012D01*
X16424388Y33717012D02*
X14908400Y35233000D01*
X22503000Y-5344000D02*
X22503000Y-6423890D01*
X22503000Y-6423890D02*
X20726345Y-8200545D01*
X20726345Y-8200545D02*
X13108000Y-8200545D01*
X13108000Y-8200545D02*
X13108000Y-7017000D01*
X11106000Y15040000D02*
X12256000Y15040000D01*
X12256000Y15040000D02*
X14756000Y17540000D01*
X14756000Y17540000D02*
X14756000Y23909400D01*
X14756000Y23909400D02*
X14756000Y25073000D01*
X18406000Y-1067036D02*
X18406000Y7632964D01*
X19963000Y-5344000D02*
X18749399Y-4130399D01*
X18749399Y-4130399D02*
X18749399Y-1410435D01*
X18749399Y-1410435D02*
X18406000Y-1067036D01*
X18406000Y7632964D02*
X18406000Y15040000D01*
X16534000Y-751400D02*
X16534000Y7948600D01*
X14756000Y30153000D02*
X16072000Y30153000D01*
X17775321Y31856321D02*
X17775321Y42526079D01*
X16072000Y30153000D02*
X17775321Y31856321D01*
X17775321Y42526079D02*
X14908400Y45393000D01*
X14908400Y45393000D02*
X14756000Y45393000D01*
X14402813Y45393000D02*
X14756000Y45393000D01*
X16534000Y25987400D02*
X16534000Y16310000D01*
X16534000Y16310000D02*
X16534000Y7948600D01*
X18406000Y16310000D02*
X16534000Y16310000D01*
X16534000Y-751400D02*
X17423000Y-1640400D01*
X17423000Y-1640400D02*
X17423000Y-2804000D01*
X14908400Y27613000D02*
X16534000Y25987400D01*
X14756000Y27613000D02*
X14756000Y30153000D01*
X14908400Y27613000D02*
X14756000Y27613000D01*
X19963000Y-2804000D02*
X19963000Y17173000D01*
X19963000Y17173000D02*
X19556000Y17580000D01*
X19556000Y17580000D02*
X18406000Y17580000D01*
X17423000Y-5344000D02*
X17423000Y-5770863D01*
X17423000Y-5770863D02*
X18347176Y-6695039D01*
X21271873Y2700000D02*
X21271873Y18850000D01*
X18347176Y-6695039D02*
X20712962Y-6695039D01*
X20712962Y-6695039D02*
X21271873Y-6136128D01*
X21271873Y-6136128D02*
X21271873Y2700000D01*
X17423000Y-5344000D02*
X13176216Y-1097216D01*
X8212018Y-1097216D02*
X7611467Y-1697767D01*
X7611467Y-3859753D02*
X6127220Y-5344000D01*
X13176216Y-1097216D02*
X8212018Y-1097216D01*
X7611467Y-1697767D02*
X7611467Y-3859753D01*
X6127220Y-5344000D02*
X5612000Y-5344000D01*
X21271873Y18850000D02*
X21271873Y49189527D01*
X18406000Y18850000D02*
X19556000Y18850000D01*
X19556000Y18850000D02*
X21271873Y18850000D01*
X21271873Y49189527D02*
X14908400Y55553000D01*
X14908400Y55553000D02*
X14756000Y55553000D01*
X5993000Y-5344000D02*
X5612000Y-5725000D01*
X14756000Y40313000D02*
X14756000Y42853000D01*
X9050000Y-2700000D02*
X11691000Y-2700000D01*
X11691000Y-2700000D02*
X11708000Y-2717000D01*
X11708000Y-2717000D02*
X11708000Y-3767000D01*
X6150000Y-2700000D02*
X4400000Y-2700000D01*
X4400000Y-2700000D02*
X3072000Y-4028000D01*
X3072000Y-4028000D02*
X3072000Y-5344000D01*
M02*
