999
dxfrw 0.5.11
0
SECTION
2
HEADER
9
$ACADVER
1
AC1021
9
$HANDSEED
5
20000
9
$DWGCODEPAGE
3
ANSI_1252
9
$INSBASE
10
0
20
0
30
0
9
$EXTMIN
10
-9.96696682283
20
-3.53570482039
30
0
9
$EXTMAX
10
5.09397878855
20
9.4214862979
30
0
9
$LIMMIN
10
0
20
0
9
$LIMMAX
10
420
20
297
9
$ORTHOMODE
70
0
9
$LTSCALE
40
1
9
$TEXTSTYLE
7
STANDARD
9
$CLAYER
8
0
9
$DIMASZ
40
0.125
9
$DIMLFAC
40
1
9
$DIMSCALE
40
1
9
$DIMEXO
40
0.125
9
$DIMEXE
40
0.125
9
$DIMTXT
40
0.125
9
$DIMTSZ
40
0
9
$DIMAUNIT
70
0
9
$DIMADEC
70
2
9
$DIMLUNIT
70
2
9
$DIMSTYLE
2
STANDARD
9
$DIMGAP
40
0.0625
9
$DIMTIH
70
0
9
$LUNITS
70
2
9
$LUPREC
70
4
9
$AUNITS
70
0
9
$AUPREC
70
2
9
$SPLINESEGS
70
8
9
$GRIDMODE
70
1
9
$SNAPSTYLE
70
0
9
$GRIDUNIT
10
0
20
0
9
$PINSBASE
10
0
20
0
30
0
9
$PLIMMIN
10
0
20
0
9
$PLIMMAX
10
11
20
8.5
9
$INSUNITS
70
1
9
$PSVPSCALE
40
1
0
ENDSEC
0
SECTION
2
CLASSES
0
ENDSEC
0
SECTION
2
TABLES
0
TABLE
2
VPORT
5
8
330
0
100
AcDbSymbolTable
70
1
0
VPORT
5
31
330
2
100
AcDbSymbolTableRecord
100
AcDbViewportTableRecord
2
*ACTIVE
70
0
10
0
20
0
11
1
21
1
12
9.126805504
22
6.6571993088
13
0
23
0
14
10
24
10
15
10
25
10
16
0
26
0
36
1
17
0
27
0
37
0
40
20.669530112
41
1.97402597403
42
50
43
0
44
0
50
0
51
0
71
0
72
100
73
1
74
3
75
0
76
1
77
0
78
0
281
0
65
1
110
0
120
0
130
0
111
1
121
0
131
0
112
0
122
1
132
0
79
0
146
0
348
10020
60
7
61
5
292
1
282
1
141
0
142
0
63
250
421
3358443
0
ENDTAB
0
TABLE
2
LTYPE
5
5
330
0
100
AcDbSymbolTable
70
4
0
LTYPE
5
14
330
5
100
AcDbSymbolTableRecord
100
AcDbLinetypeTableRecord
2
ByBlock
70
0
3

72
65
73
0
40
0
0
LTYPE
5
15
330
5
100
AcDbSymbolTableRecord
100
AcDbLinetypeTableRecord
2
ByLayer
70
0
3

72
65
73
0
40
0
0
LTYPE
5
16
330
5
100
AcDbSymbolTableRecord
100
AcDbLinetypeTableRecord
2
Continuous
70
0
3
Solid line
72
65
73
0
40
0
0
LTYPE
5
32
330
5
100
AcDbSymbolTableRecord
100
AcDbLinetypeTableRecord
2
DOT
70
0
3
Dot . . . . . . . . . . . . . . . . . . . . . .
72
65
73
2
40
6.35
49
0
74
0
49
-6.35
74
0
0
LTYPE
5
33
330
5
100
AcDbSymbolTableRecord
100
AcDbLinetypeTableRecord
2
DOT2
70
0
3
Dot (.5x) .....................................
72
65
73
2
40
3.175
49
0
74
0
49
-3.175
74
0
0
LTYPE
5
34
330
5
100
AcDbSymbolTableRecord
100
AcDbLinetypeTableRecord
2
DOTX2
70
0
3
Dot (2x) .  .  .  .  .  .  .  .  .  .  .  .  .
72
65
73
2
40
12.7
49
0
74
0
49
-12.7
74
0
0
LTYPE
5
35
330
5
100
AcDbSymbolTableRecord
100
AcDbLinetypeTableRecord
2
DASHED
70
0
3
Dot . . . . . . . . . . . . . . . . . . . . . .
72
65
73
2
40
19.05
49
12.7
74
0
49
-6.35
74
0
0
LTYPE
5
36
330
5
100
AcDbSymbolTableRecord
100
AcDbLinetypeTableRecord
2
DASHED2
70
0
3
Dashed (.5x) _ _ _ _ _ _ _ _ _ _ _ _ _ _ _ _ _
72
65
73
2
40
9.525
49
6.35
74
0
49
-3.175
74
0
0
LTYPE
5
37
330
5
100
AcDbSymbolTableRecord
100
AcDbLinetypeTableRecord
2
DASHEDX2
70
0
3
Dashed (2x) ____  ____  ____  ____  ____  ___
72
65
73
2
40
38.1
49
25.4
74
0
49
-12.7
74
0
0
LTYPE
5
38
330
5
100
AcDbSymbolTableRecord
100
AcDbLinetypeTableRecord
2
DASHDOT
70
0
3
Dash dot __ . __ . __ . __ . __ . __ . __ . __
72
65
73
4
40
25.4
49
12.7
74
0
49
-6.35
74
0
49
0
74
0
49
-6.35
74
0
0
LTYPE
5
39
330
5
100
AcDbSymbolTableRecord
100
AcDbLinetypeTableRecord
2
DASHDOT2
70
0
3
Dash dot (.5x) _._._._._._._._._._._._._._._.
72
65
73
4
40
12.7
49
6.35
74
0
49
-3.175
74
0
49
0
74
0
49
-3.175
74
0
0
LTYPE
5
3A
330
5
100
AcDbSymbolTableRecord
100
AcDbLinetypeTableRecord
2
DASHDOTX2
70
0
3
Dash dot (2x) ____  .  ____  .  ____  .  ___
72
65
73
4
40
50.8
49
25.4
74
0
49
-12.7
74
0
49
0
74
0
49
-12.7
74
0
0
LTYPE
5
3B
330
5
100
AcDbSymbolTableRecord
100
AcDbLinetypeTableRecord
2
DIVIDE
70
0
3
Divide ____ . . ____ . . ____ . . ____ . . ____
72
65
73
6
40
31.75
49
12.7
74
0
49
-6.35
74
0
49
0
74
0
49
-6.35
74
0
49
0
74
0
49
-6.35
74
0
0
LTYPE
5
3C
330
5
100
AcDbSymbolTableRecord
100
AcDbLinetypeTableRecord
2
DIVIDE2
70
0
3
Divide (.5x) __..__..__..__..__..__..__..__.._
72
65
73
6
40
15.875
49
6.35
74
0
49
-3.175
74
0
49
0
74
0
49
-3.175
74
0
49
0
74
0
49
-3.175
74
0
0
LTYPE
5
3D
330
5
100
AcDbSymbolTableRecord
100
AcDbLinetypeTableRecord
2
DIVIDEX2
70
0
3
Divide (2x) ________  .  .  ________  .  .  _
72
65
73
6
40
63.5
49
25.4
74
0
49
-12.7
74
0
49
0
74
0
49
-12.7
74
0
49
0
74
0
49
-12.7
74
0
0
LTYPE
5
3E
330
5
100
AcDbSymbolTableRecord
100
AcDbLinetypeTableRecord
2
BORDER
70
0
3
Border __ __ . __ __ . __ __ . __ __ . __ __ .
72
65
73
6
40
44.45
49
12.7
74
0
49
-6.35
74
0
49
12.7
74
0
49
-6.35
74
0
49
0
74
0
49
-6.35
74
0
0
LTYPE
5
3F
330
5
100
AcDbSymbolTableRecord
100
AcDbLinetypeTableRecord
2
BORDER2
70
0
3
Border (.5x) __.__.__.__.__.__.__.__.__.__.__.
72
65
73
6
40
22.225
49
6.35
74
0
49
-3.175
74
0
49
6.35
74
0
49
-3.175
74
0
49
0
74
0
49
-3.175
74
0
0
LTYPE
5
40
330
5
100
AcDbSymbolTableRecord
100
AcDbLinetypeTableRecord
2
BORDERX2
70
0
3
Border (2x) ____  ____  .  ____  ____  .  ___
72
65
73
6
40
88.9
49
25.4
74
0
49
-12.7
74
0
49
25.4
74
0
49
-12.7
74
0
49
0
74
0
49
-12.7
74
0
0
LTYPE
5
41
330
5
100
AcDbSymbolTableRecord
100
AcDbLinetypeTableRecord
2
CENTER
70
0
3
Center ____ _ ____ _ ____ _ ____ _ ____ _ ____
72
65
73
4
40
50.8
49
31.75
74
0
49
-6.35
74
0
49
6.35
74
0
49
-6.35
74
0
0
LTYPE
5
42
330
5
100
AcDbSymbolTableRecord
100
AcDbLinetypeTableRecord
2
CENTER2
70
0
3
Center (.5x) ___ _ ___ _ ___ _ ___ _ ___ _ ___
72
65
73
4
40
28.575
49
19.05
74
0
49
-3.175
74
0
49
3.175
74
0
49
-3.175
74
0
0
LTYPE
5
43
330
5
100
AcDbSymbolTableRecord
100
AcDbLinetypeTableRecord
2
CENTERX2
70
0
3
Center (2x) ________  __  ________  __  _____
72
65
73
4
40
101.6
49
63.5
74
0
49
-12.7
74
0
49
12.7
74
0
49
-12.7
74
0
0
ENDTAB
0
TABLE
2
LAYER
5
2
330
0
100
AcDbSymbolTable
70
1
0
LAYER
5
10
330
2
100
AcDbSymbolTableRecord
100
AcDbLayerTableRecord
2
0
70
0
62
7
6
CONTINUOUS
370
0
390
F
0
LAYER
5
44
330
2
100
AcDbSymbolTableRecord
100
AcDbLayerTableRecord
2
layout
70
4
62
7
6
CONTINUOUS
290
0
370
0
390
F
0
ENDTAB
0
TABLE
2
STYLE
5
3
330
0
100
AcDbSymbolTable
70
3
0
STYLE
5
45
330
2
100
AcDbSymbolTableRecord
100
AcDbTextStyleTableRecord
2
standard
70
0
40
0
41
1
50
0
71
0
42
1
3
standard
4

0
ENDTAB
0
TABLE
2
VIEW
5
6
330
0
100
AcDbSymbolTable
70
0
0
ENDTAB
0
TABLE
2
UCS
5
7
330
0
100
AcDbSymbolTable
70
0
0
ENDTAB
0
TABLE
2
APPID
5
9
330
0
100
AcDbSymbolTable
70
1
0
APPID
5
12
330
9
100
AcDbSymbolTableRecord
100
AcDbRegAppTableRecord
2
ACAD
70
0
0
ENDTAB
0
TABLE
2
DIMSTYLE
5
A
330
0
100
AcDbSymbolTable
70
1
100
AcDbDimStyleTable
71
1
0
DIMSTYLE
105
46
330
A
100
AcDbSymbolTableRecord
100
AcDbDimStyleTableRecord
2
Standard
70
0
40
1
41
0.125
42
0.125
43
0.38
44
0.125
45
0
46
0
47
0
48
0
140
0.125
141
0.09
142
0
143
25.4
144
1
145
0
146
1
147
0.0625
148
0
71
0
72
0
73
0
74
1
75
0
76
0
77
0
78
0
79
0
170
0
171
2
172
0
173
0
174
0
175
0
176
0
177
0
178
0
179
0
271
4
272
4
273
2
274
2
275
0
276
0
277
2
278
46
279
0
280
0
281
0
282
0
283
1
284
0
285
0
286
0
288
0
289
3
340
Standard
341

371
-2
372
-2
0
ENDTAB
0
TABLE
2
BLOCK_RECORD
5
1
330
0
100
AcDbSymbolTable
70
2
0
BLOCK_RECORD
5
1F
330
1
100
AcDbSymbolTableRecord
100
AcDbBlockTableRecord
2
*Model_Space
70
0
280
1
281
0
0
BLOCK_RECORD
5
1E
330
1
100
AcDbSymbolTableRecord
100
AcDbBlockTableRecord
2
*Paper_Space
70
0
280
1
281
0
0
BLOCK_RECORD
5
47
330
1
100
AcDbSymbolTableRecord
100
AcDbBlockTableRecord
2
*D1
70
0
280
1
281
0
0
BLOCK_RECORD
5
4A
330
1
100
AcDbSymbolTableRecord
100
AcDbBlockTableRecord
2
*D6
70
0
280
1
281
0
0
BLOCK_RECORD
5
4D
330
1
100
AcDbSymbolTableRecord
100
AcDbBlockTableRecord
2
*D5
70
0
280
1
281
0
0
BLOCK_RECORD
5
50
330
1
100
AcDbSymbolTableRecord
100
AcDbBlockTableRecord
2
*D7
70
0
280
1
281
0
0
BLOCK_RECORD
5
53
330
1
100
AcDbSymbolTableRecord
100
AcDbBlockTableRecord
2
*D12
70
0
280
1
281
0
0
BLOCK_RECORD
5
56
330
1
100
AcDbSymbolTableRecord
100
AcDbBlockTableRecord
2
*D8
70
0
280
1
281
0
0
BLOCK_RECORD
5
59
330
1
100
AcDbSymbolTableRecord
100
AcDbBlockTableRecord
2
*D4
70
0
280
1
281
0
0
BLOCK_RECORD
5
5C
330
1
100
AcDbSymbolTableRecord
100
AcDbBlockTableRecord
2
*D3
70
0
280
1
281
0
0
BLOCK_RECORD
5
5F
330
1
100
AcDbSymbolTableRecord
100
AcDbBlockTableRecord
2
*D11
70
0
280
1
281
0
0
BLOCK_RECORD
5
62
330
1
100
AcDbSymbolTableRecord
100
AcDbBlockTableRecord
2
*D9
70
0
280
1
281
0
0
BLOCK_RECORD
5
65
330
1
100
AcDbSymbolTableRecord
100
AcDbBlockTableRecord
2
*D10
70
0
280
1
281
0
0
BLOCK_RECORD
5
68
330
1
100
AcDbSymbolTableRecord
100
AcDbBlockTableRecord
2
*D2
70
0
280
1
281
0
0
ENDTAB
0
ENDSEC
0
SECTION
2
BLOCKS
0
BLOCK
5
20
330
1F
100
AcDbEntity
8
0
100
AcDbBlockBegin
2
*Model_Space
70
0
10
0
20
0
30
0
3
*Model_Space
1

0
ENDBLK
5
21
330
1F
100
AcDbEntity
8
0
100
AcDbBlockEnd
0
BLOCK
5
1C
330
1B
100
AcDbEntity
8
0
100
AcDbBlockBegin
2
*Paper_Space
70
0
10
0
20
0
30
0
3
*Paper_Space
1

0
ENDBLK
5
1D
330
1F
100
AcDbEntity
8
0
100
AcDbBlockEnd
0
BLOCK
5
48
330
47
100
AcDbEntity
8
0
100
AcDbBlockBegin
2
*D1
70
1
10
0
20
0
3
*D1
1

0
LINE
5
6B
100
AcDbEntity
8
0
6
CONTINUOUS
62
7
370
0
100
AcDbLine
10
-1.1875
20
-1.1315
11
-1.1875
21
-0.936454716153
0
LINE
5
6C
100
AcDbEntity
8
0
6
CONTINUOUS
62
7
370
0
100
AcDbLine
10
1.1875
20
-1.1315
11
1.1875
21
-0.936454716153
0
LINE
5
6D
100
AcDbEntity
8
0
6
CONTINUOUS
62
7
370
0
100
AcDbLine
10
-1.1875
20
-1.06145471615
11
1.1875
21
-1.06145471615
0
SOLID
5
6E
100
AcDbEntity
8
0
6
CONTINUOUS
62
7
370
0
100
AcDbTrace
10
-1.1875
20
-1.06145471615
30
0
11
-1.0625
21
-1.04064048326
31
0
12
-1.0625
22
-1.08226894904
32
0
13
-1.0625
23
-1.08226894904
33
0
0
SOLID
5
6F
100
AcDbEntity
8
0
6
CONTINUOUS
62
7
370
0
100
AcDbTrace
10
1.1875
20
-1.06145471615
30
0
11
1.0625
21
-1.08226894904
31
0
12
1.0625
22
-1.04064048326
32
0
13
1.0625
23
-1.04064048326
33
0
0
MTEXT
5
70
100
AcDbEntity
8
0
6
CONTINUOUS
62
7
370
0
100
AcDbMText
10
0
20
-0.936454716153
30
0
40
0.125
41
0.388888888889
71
5
72
1
1
2.375
7
standard
210
0
220
0
230
1
50
0
73
2
44
1
0
ENDBLK
5
49
330
47
100
AcDbEntity
8
0
100
AcDbBlockEnd
0
BLOCK
5
4B
330
4A
100
AcDbEntity
8
0
100
AcDbBlockBegin
2
*D6
70
1
10
0
20
0
3
*D6
1

0
LINE
5
71
100
AcDbEntity
8
0
6
CONTINUOUS
62
7
370
0
100
AcDbLine
10
-1.00275460453
20
0.747667906888
11
-2.42772167413
21
1.20506474404
0
SOLID
5
72
100
AcDbEntity
8
0
6
CONTINUOUS
62
7
370
0
100
AcDbTrace
10
-1.00275460453
20
0.747667906888
30
0
11
-1.12813487929
21
0.7660531997
31
0
12
-1.11541202754
22
0.805689776321
32
0
13
-1.11541202754
23
0.805689776321
33
0
0
LINE
5
73
100
AcDbEntity
8
0
6
CONTINUOUS
62
7
370
0
100
AcDbLine
10
-2.42772167413
20
1.20506474404
11
-3.45686455773
21
1.20506474404
0
LINE
5
74
100
AcDbEntity
8
0
6
CONTINUOUS
62
7
370
0
100
AcDbLine
10
-3.45686455773
20
1.20506474404
11
-3.45686455773
21
1.20506474404
0
ENDBLK
5
4C
330
4A
100
AcDbEntity
8
0
100
AcDbBlockEnd
0
BLOCK
5
4E
330
4D
100
AcDbEntity
8
0
100
AcDbBlockBegin
2
*D5
70
1
10
0
20
0
3
*D5
1

0
LINE
5
75
100
AcDbEntity
8
0
6
CONTINUOUS
62
7
370
0
100
AcDbLine
10
-0.875
20
1.16108427893
11
0.875
21
1.16108427893
0
SOLID
5
76
100
AcDbEntity
8
0
6
CONTINUOUS
62
7
370
0
100
AcDbTrace
10
-0.875
20
1.16108427893
30
0
11
-0.75
21
1.18189851182
31
0
12
-0.75
22
1.14027004604
32
0
13
-0.75
23
1.14027004604
33
0
0
SOLID
5
77
100
AcDbEntity
8
0
6
CONTINUOUS
62
7
370
0
100
AcDbTrace
10
0.875
20
1.16108427893
30
0
11
0.75
21
1.14027004604
31
0
12
0.75
22
1.18189851182
32
0
13
0.75
23
1.18189851182
33
0
0
MTEXT
5
78
100
AcDbEntity
8
0
6
CONTINUOUS
62
7
370
0
100
AcDbMText
10
-1.03368259968e-16
20
1.28608427893
30
0
40
0.125
41
0.263888888889
71
5
72
1
1
1.75
7
standard
210
0
220
0
230
1
50
0
73
2
44
1
0
LINE
5
79
100
AcDbEntity
8
0
6
CONTINUOUS
62
7
370
0
100
AcDbLine
10
-0.875
20
0.78125
11
-0.875
21
1.28608427893
0
LINE
5
7A
100
AcDbEntity
8
0
6
CONTINUOUS
62
7
370
0
100
AcDbLine
10
0.875
20
0.78125
11
0.875
21
1.28608427893
0
ENDBLK
5
4F
330
4D
100
AcDbEntity
8
0
100
AcDbBlockEnd
0
BLOCK
5
51
330
50
100
AcDbEntity
8
0
100
AcDbBlockBegin
2
*D7
70
1
10
0
20
0
3
*D7
1

0
LINE
5
7B
100
AcDbEntity
8
0
6
CONTINUOUS
62
7
370
0
100
AcDbLine
10
-1.55975
20
8
11
-1.55975
21
9.1089862979
0
LINE
5
7C
100
AcDbEntity
8
0
6
CONTINUOUS
62
7
370
0
100
AcDbLine
10
1.55975
20
8
11
1.55975
21
9.1089862979
0
LINE
5
7D
100
AcDbEntity
8
0
6
CONTINUOUS
62
7
370
0
100
AcDbLine
10
-1.55975
20
8.9839862979
11
1.55975
21
8.9839862979
0
SOLID
5
7E
100
AcDbEntity
8
0
6
CONTINUOUS
62
7
370
0
100
AcDbTrace
10
-1.55975
20
8.9839862979
30
0
11
-1.43475
21
9.00480053079
31
0
12
-1.43475
22
8.96317206501
32
0
13
-1.43475
23
8.96317206501
33
0
0
SOLID
5
7F
100
AcDbEntity
8
0
6
CONTINUOUS
62
7
370
0
100
AcDbTrace
10
1.55975
20
8.9839862979
30
0
11
1.43475
21
8.96317206501
31
0
12
1.43475
22
9.00480053079
32
0
13
1.43475
23
9.00480053079
33
0
0
MTEXT
5
80
100
AcDbEntity
8
0
6
CONTINUOUS
62
7
370
0
100
AcDbMText
10
0
20
9.1089862979
30
0
40
0.125
41
0.430555555556
71
5
72
1
1
3.1195
7
standard
210
0
220
0
230
1
50
0
73
2
44
1
0
ENDBLK
5
52
330
50
100
AcDbEntity
8
0
100
AcDbBlockEnd
0
BLOCK
5
54
330
53
100
AcDbEntity
8
0
100
AcDbBlockBegin
2
*D12
70
1
10
0
20
0
3
*D12
1

0
LINE
5
81
100
AcDbEntity
8
0
6
CONTINUOUS
62
7
370
0
100
AcDbLine
10
1.1875
20
7
11
2.49640037263
21
6.38577257595
0
LINE
5
82
100
AcDbEntity
8
0
6
CONTINUOUS
62
7
370
0
100
AcDbLine
10
2.49640037263
20
6.38577257595
11
3.16490344232
21
6.38577257595
0
LINE
5
83
100
AcDbEntity
8
0
6
CONTINUOUS
62
7
370
0
100
AcDbLine
10
3.16490344232
20
6.38577257595
11
3.16490344232
21
6.38577257595
0
SOLID
5
84
100
AcDbEntity
8
0
6
CONTINUOUS
62
7
370
0
100
AcDbTrace
10
1.1875
20
7
30
0
11
1.30950204617
21
6.96574021278
31
0
12
1.29181745647
22
6.9280548781
32
0
13
1.29181745647
23
6.9280548781
33
0
0
ENDBLK
5
55
330
53
100
AcDbEntity
8
0
100
AcDbBlockEnd
0
BLOCK
5
57
330
56
100
AcDbEntity
8
0
100
AcDbBlockBegin
2
*D8
70
1
10
0
20
0
3
*D8
1

0
LINE
5
85
100
AcDbEntity
8
0
6
CONTINUOUS
62
7
370
0
100
AcDbLine
10
-1.67533906138
20
7.81305039478
11
-2.3193538081
21
7.79503599627
0
SOLID
5
86
100
AcDbEntity
8
0
6
CONTINUOUS
62
7
370
0
100
AcDbTrace
10
-1.67533906138
20
7.81305039478
30
0
11
-1.79970819925
21
7.7887491636
31
0
12
-1.80087217658
22
7.83036135316
32
0
13
-1.80087217658
23
7.83036135316
33
0
0
ENDBLK
5
58
330
56
100
AcDbEntity
8
0
100
AcDbBlockEnd
0
BLOCK
5
5A
330
59
100
AcDbEntity
8
0
100
AcDbBlockBegin
2
*D4
70
1
10
0
20
0
3
*D4
1

0
LINE
5
87
100
AcDbEntity
8
0
6
CONTINUOUS
62
7
370
0
100
AcDbLine
10
2.66521618573
20
-1.5
11
2.66521618573
21
1.5
0
SOLID
5
88
100
AcDbEntity
8
0
6
CONTINUOUS
62
7
370
0
100
AcDbTrace
10
2.66521618573
20
-1.5
30
0
11
2.64440195284
21
-1.375
31
0
12
2.68603041862
22
-1.375
32
0
13
2.68603041862
23
-1.375
33
0
0
SOLID
5
89
100
AcDbEntity
8
0
6
CONTINUOUS
62
7
370
0
100
AcDbTrace
10
2.66521618573
20
1.5
30
0
11
2.68603041862
21
1.375
31
0
12
2.64440195284
22
1.375
32
0
13
2.64440195284
23
1.375
33
0
0
MTEXT
5
8A
100
AcDbEntity
8
0
6
CONTINUOUS
62
7
370
0
100
AcDbMText
10
2.54021618573
20
1.53080849893e-17
30
0
40
0.125
41
0.0555555555556
71
5
72
1
1
3
7
standard
210
0
220
0
230
1
50
90
73
2
44
1
0
LINE
5
8B
100
AcDbEntity
8
0
6
CONTINUOUS
62
7
370
0
100
AcDbLine
10
2.125
20
-1.5
11
2.79021618573
21
-1.5
0
LINE
5
8C
100
AcDbEntity
8
0
6
CONTINUOUS
62
7
370
0
100
AcDbLine
10
2.125
20
1.5
11
2.79021618573
21
1.5
0
ENDBLK
5
5B
330
59
100
AcDbEntity
8
0
100
AcDbBlockEnd
0
BLOCK
5
5D
330
5C
100
AcDbEntity
8
0
100
AcDbBlockBegin
2
*D3
70
1
10
0
20
0
3
*D3
1

0
LINE
5
8D
100
AcDbEntity
8
0
6
CONTINUOUS
62
7
370
0
100
AcDbLine
10
-2
20
-1.625
11
-2
21
-2.1416373952
0
LINE
5
8E
100
AcDbEntity
8
0
6
CONTINUOUS
62
7
370
0
100
AcDbLine
10
2
20
-1.625
11
2
21
-2.1416373952
0
LINE
5
8F
100
AcDbEntity
8
0
6
CONTINUOUS
62
7
370
0
100
AcDbLine
10
-2
20
-2.0166373952
11
2
21
-2.0166373952
0
SOLID
5
90
100
AcDbEntity
8
0
6
CONTINUOUS
62
7
370
0
100
AcDbTrace
10
-2
20
-2.0166373952
30
0
11
-1.875
21
-1.99582316231
31
0
12
-1.875
22
-2.03745162809
32
0
13
-1.875
23
-2.03745162809
33
0
0
SOLID
5
91
100
AcDbEntity
8
0
6
CONTINUOUS
62
7
370
0
100
AcDbTrace
10
2
20
-2.0166373952
30
0
11
1.875
21
-2.03745162809
31
0
12
1.875
22
-1.99582316231
32
0
13
1.875
23
-1.99582316231
33
0
0
MTEXT
5
92
100
AcDbEntity
8
0
6
CONTINUOUS
62
7
370
0
100
AcDbMText
10
0
20
-1.8916373952
30
0
40
0.125
41
0.0694444444444
71
5
72
1
1
4
7
standard
210
0
220
0
230
1
50
0
73
2
44
1
0
ENDBLK
5
5E
330
5C
100
AcDbEntity
8
0
100
AcDbBlockEnd
0
BLOCK
5
60
330
5F
100
AcDbEntity
8
0
100
AcDbBlockBegin
2
*D11
70
1
10
0
20
0
3
*D11
1

0
LINE
5
93
100
AcDbEntity
8
0
6
CONTINUOUS
62
7
370
0
100
AcDbLine
10
-1.1875
20
7.3685
11
-1.1875
21
7.56354528385
0
LINE
5
94
100
AcDbEntity
8
0
6
CONTINUOUS
62
7
370
0
100
AcDbLine
10
1.1875
20
7.3685
11
1.1875
21
7.56354528385
0
LINE
5
95
100
AcDbEntity
8
0
6
CONTINUOUS
62
7
370
0
100
AcDbLine
10
-1.1875
20
7.43854528385
11
1.1875
21
7.43854528385
0
SOLID
5
96
100
AcDbEntity
8
0
6
CONTINUOUS
62
7
370
0
100
AcDbTrace
10
-1.1875
20
7.43854528385
30
0
11
-1.0625
21
7.45935951674
31
0
12
-1.0625
22
7.41773105096
32
0
13
-1.0625
23
7.41773105096
33
0
0
SOLID
5
97
100
AcDbEntity
8
0
6
CONTINUOUS
62
7
370
0
100
AcDbTrace
10
1.1875
20
7.43854528385
30
0
11
1.0625
21
7.41773105096
31
0
12
1.0625
22
7.45935951674
32
0
13
1.0625
23
7.45935951674
33
0
0
MTEXT
5
98
100
AcDbEntity
8
0
6
CONTINUOUS
62
7
370
0
100
AcDbMText
10
0
20
7.56354528385
30
0
40
0.125
41
0.388888888889
71
5
72
1
1
2.375
7
standard
210
0
220
0
230
1
50
0
73
2
44
1
0
ENDBLK
5
61
330
5F
100
AcDbEntity
8
0
100
AcDbBlockEnd
0
BLOCK
5
63
330
62
100
AcDbEntity
8
0
100
AcDbBlockBegin
2
*D9
70
1
10
0
20
0
3
*D9
1

0
LINE
5
99
100
AcDbEntity
8
0
6
CONTINUOUS
62
7
370
0
100
AcDbLine
10
-2
20
6.875
11
-2
21
6.3583626048
0
LINE
5
9A
100
AcDbEntity
8
0
6
CONTINUOUS
62
7
370
0
100
AcDbLine
10
2
20
6.875
11
2
21
6.3583626048
0
LINE
5
9B
100
AcDbEntity
8
0
6
CONTINUOUS
62
7
370
0
100
AcDbLine
10
-2
20
6.4833626048
11
2
21
6.4833626048
0
SOLID
5
9C
100
AcDbEntity
8
0
6
CONTINUOUS
62
7
370
0
100
AcDbTrace
10
-2
20
6.4833626048
30
0
11
-1.875
21
6.50417683769
31
0
12
-1.875
22
6.46254837191
32
0
13
-1.875
23
6.46254837191
33
0
0
SOLID
5
9D
100
AcDbEntity
8
0
6
CONTINUOUS
62
7
370
0
100
AcDbTrace
10
2
20
6.4833626048
30
0
11
1.875
21
6.46254837191
31
0
12
1.875
22
6.50417683769
32
0
13
1.875
23
6.50417683769
33
0
0
MTEXT
5
9E
100
AcDbEntity
8
0
6
CONTINUOUS
62
7
370
0
100
AcDbMText
10
0
20
6.6083626048
30
0
40
0.125
41
0.0694444444444
71
5
72
1
1
4
7
standard
210
0
220
0
230
1
50
0
73
2
44
1
0
ENDBLK
5
64
330
62
100
AcDbEntity
8
0
100
AcDbBlockEnd
0
BLOCK
5
66
330
65
100
AcDbEntity
8
0
100
AcDbBlockBegin
2
*D10
70
1
10
0
20
0
3
*D10
1

0
LINE
5
9F
100
AcDbEntity
8
0
6
CONTINUOUS
62
7
370
0
100
AcDbLine
10
2.125
20
7
11
2.79021618573
21
7
0
LINE
5
A0
100
AcDbEntity
8
0
6
CONTINUOUS
62
7
370
0
100
AcDbLine
10
2.125
20
8.5
11
2.79021618573
21
8.5
0
LINE
5
A1
100
AcDbEntity
8
0
6
CONTINUOUS
62
7
370
0
100
AcDbLine
10
2.66521618573
20
7
11
2.66521618573
21
8.5
0
SOLID
5
A2
100
AcDbEntity
8
0
6
CONTINUOUS
62
7
370
0
100
AcDbTrace
10
2.66521618573
20
7
30
0
11
2.64440195284
21
7.125
31
0
12
2.68603041862
22
7.125
32
0
13
2.68603041862
23
7.125
33
0
0
SOLID
5
A3
100
AcDbEntity
8
0
6
CONTINUOUS
62
7
370
0
100
AcDbTrace
10
2.66521618573
20
8.5
30
0
11
2.68603041862
21
8.375
31
0
12
2.64440195284
22
8.375
32
0
13
2.64440195284
23
8.375
33
0
0
MTEXT
5
A4
100
AcDbEntity
8
0
6
CONTINUOUS
62
7
370
0
100
AcDbMText
10
2.54021618573
20
7.75
30
0
40
0.125
41
0.166666666667
71
5
72
1
1
1.5
7
standard
210
0
220
0
230
1
50
90
73
2
44
1
0
ENDBLK
5
67
330
65
100
AcDbEntity
8
0
100
AcDbBlockEnd
0
BLOCK
5
69
330
68
100
AcDbEntity
8
0
100
AcDbBlockBegin
2
*D2
70
1
10
0
20
0
3
*D2
1

0
LINE
5
A5
100
AcDbEntity
8
0
6
CONTINUOUS
62
7
370
0
100
AcDbLine
10
1.1875
20
-1.5
11
2.49640037263
21
-2.11422742405
0
LINE
5
A6
100
AcDbEntity
8
0
6
CONTINUOUS
62
7
370
0
100
AcDbLine
10
2.49640037263
20
-2.11422742405
11
3.16490344232
21
-2.11422742405
0
LINE
5
A7
100
AcDbEntity
8
0
6
CONTINUOUS
62
7
370
0
100
AcDbLine
10
3.16490344232
20
-2.11422742405
11
3.16490344232
21
-2.11422742405
0
SOLID
5
A8
100
AcDbEntity
8
0
6
CONTINUOUS
62
7
370
0
100
AcDbTrace
10
1.1875
20
-1.5
30
0
11
1.30950204617
21
-1.53425978722
31
0
12
1.29181745647
22
-1.5719451219
32
0
13
1.29181745647
23
-1.5719451219
33
0
0
ENDBLK
5
6A
330
68
100
AcDbEntity
8
0
100
AcDbBlockEnd
0
ENDSEC
0
SECTION
2
ENTITIES
0
LINE
5
A9
100
AcDbEntity
8
layout
6
ByLayer
62
256
370
-1
100
AcDbLine
10
0
20
-1
11
0
21
1
0
LINE
5
AA
100
AcDbEntity
8
0
6
ByLayer
62
256
370
-1
100
AcDbLine
10
-2
20
-1.5
11
2
21
-1.5
0
LINE
5
AB
100
AcDbEntity
8
0
6
ByLayer
62
256
370
-1
100
AcDbLine
10
2
20
-1.5
11
2
21
1.5
0
LINE
5
AC
100
AcDbEntity
8
0
6
ByLayer
62
256
370
-1
100
AcDbLine
10
2
20
1.5
11
-2
21
1.5
0
LINE
5
AD
100
AcDbEntity
8
0
6
ByLayer
62
256
370
-1
100
AcDbLine
10
-2
20
1.5
11
-2
21
-1.5
0
CIRCLE
5
AE
100
AcDbEntity
8
0
6
ByLayer
62
256
370
-1
100
AcDbCircle
10
-0.875
20
0.65625
40
0.15625
0
CIRCLE
5
AF
100
AcDbEntity
8
0
6
ByLayer
62
256
370
-1
100
AcDbCircle
10
0.875
20
0.65625
40
0.15625
0
LINE
5
B0
100
AcDbEntity
8
0
6
DASHED2
62
256
370
-1
100
AcDbLine
10
-2
20
-1.2565
11
2
21
-1.2565
0
LINE
5
B1
100
AcDbEntity
8
0
6
DASHED2
62
256
370
-1
100
AcDbLine
10
-1.34375
20
-1.2565
11
-1.34375
21
-1.5
0
LINE
5
B2
100
AcDbEntity
8
0
6
DASHED2
62
256
370
-1
100
AcDbLine
10
-1.03125
20
-1.2565
11
-1.03125
21
-1.5
0
LINE
5
B3
100
AcDbEntity
8
0
6
CENTER2
62
256
370
-1
100
AcDbLine
10
-1.1875
20
-0.875
11
-1.1875
21
-1.875
0
LINE
5
B4
100
AcDbEntity
8
0
6
DASHED2
62
256
370
-1
100
AcDbLine
10
1.34375
20
-1.2565
11
1.34375
21
-1.5
0
LINE
5
B5
100
AcDbEntity
8
0
6
DASHED2
62
256
370
-1
100
AcDbLine
10
1.03125
20
-1.2565
11
1.03125
21
-1.5
0
LINE
5
B6
100
AcDbEntity
8
0
6
CENTER2
62
256
370
-1
100
AcDbLine
10
1.1875
20
-0.875
11
1.1875
21
-1.875
0
DIMENSION
5
B7
100
AcDbEntity
8
0
6
ByLayer
62
256
370
-1
100
AcDbDimension
2
*D1
10
1.1875
20
-1.06145471615
30
0
11
0
21
-0.936454716153
31
0
70
33
71
5
3
Standard
53
0
210
0
220
0
230
1
100
AcDbAlignedDimension
13
-1.1875
23
-1.2565
33
0
14
1.1875
24
-1.2565
34
0
0
LEADER
5
B8
100
AcDbEntity
8
0
6
ByLayer
62
256
370
-1
100
AcDbLeader
3
Standard
71
1
72
0
73
3
74
0
75
0
40
1
41
10
76
4
76
4
10
1.1875
20
-1.5
30
0
10
2.49640037263
20
-2.11422742405
30
0
10
3.16490344232
20
-2.11422742405
30
0
10
3.16490344232
20
-2.11422742405
30
0
0
MTEXT
5
B9
100
AcDbEntity
8
0
6
ByLayer
62
256
370
-1
100
AcDbMText
10
3.23499071152
20
-1.97658616043
30
0
40
0.25
41
1.53472222222
71
1
72
1
1
0.3125" %%C
7
standard
210
0
220
0
230
1
50
0
73
2
44
1
0
DIMENSION
5
BA
100
AcDbEntity
8
0
6
ByLayer
62
256
370
-1
100
AcDbDimension
2
*D3
10
2
20
-2.0166373952
30
0
11
0
21
-1.8916373952
31
0
70
33
71
5
3
Standard
53
0
210
0
220
0
230
1
100
AcDbAlignedDimension
13
-2
23
-1.5
33
0
14
2
24
-1.5
34
0
0
DIMENSION
5
BB
100
AcDbEntity
8
0
6
ByLayer
62
256
370
-1
100
AcDbDimension
2
*D4
10
2.66521618573
20
1.5
30
0
11
2.54021618573
21
1.53080849893e-17
31
0
70
32
71
5
3
Standard
53
0
210
0
220
0
230
1
100
AcDbAlignedDimension
13
2
23
-1.5
33
0
14
2
24
1.5
34
0
50
90
100
AcDbRotatedDimension
0
DIMENSION
5
BC
100
AcDbEntity
8
0
6
ByLayer
62
256
370
-1
100
AcDbDimension
2
*D5
10
0.875
20
1.16108427893
30
0
11
-1.03368259968e-16
21
1.28608427893
31
0
70
32
71
5
3
Standard
53
0
210
0
220
0
230
1
100
AcDbAlignedDimension
13
-0.875
23
0.65625
33
0
14
0.875
24
0.65625
34
0
100
AcDbRotatedDimension
0
LEADER
5
BD
100
AcDbEntity
8
0
6
ByLayer
62
256
370
-1
100
AcDbLeader
3
Standard
71
1
72
0
73
3
74
0
75
0
40
1
41
10
76
4
76
4
10
-1.00275460453
20
0.747667906888
30
0
10
-2.42772167413
20
1.20506474404
30
0
10
-3.45686455773
20
1.20506474404
30
0
10
-3.45686455773
20
1.20506474404
30
0
0
MTEXT
5
BE
100
AcDbEntity
8
0
6
ByLayer
62
256
370
-1
100
AcDbMText
10
-5.12129765958
20
1.36318040894
30
0
40
0.25
41
1.53472222222
71
1
72
1
1
0.3125" %%C
7
standard
210
0
220
0
230
1
50
0
73
2
44
1
0
MTEXT
5
BF
100
AcDbEntity
8
0
6
ByLayer
62
256
370
-1
100
AcDbMText
10
-3.64213226701
20
-2.86903815373
30
0
40
0.5
41
8.73611105556
71
1
72
1
1
Flange Mount (2 required)\P
7
standard
210
0
220
0
230
1
50
0
73
2
44
1
0
LINE
5
C0
100
AcDbEntity
8
0
6
ByLayer
62
256
370
-1
100
AcDbLine
10
-2
20
7
11
2
21
7
0
LINE
5
C1
100
AcDbEntity
8
0
6
ByLayer
62
256
370
-1
100
AcDbLine
10
2
20
7
11
2
21
8.5
0
LINE
5
C2
100
AcDbEntity
8
0
6
ByLayer
62
256
370
-1
100
AcDbLine
10
2
20
8.5
11
-2
21
8.5
0
LINE
5
C3
100
AcDbEntity
8
0
6
ByLayer
62
256
370
-1
100
AcDbLine
10
-2
20
8.5
11
-2
21
7
0
CIRCLE
5
C4
100
AcDbEntity
8
0
6
ByLayer
62
256
370
-1
100
AcDbCircle
10
-1.55975
20
7.875
40
0.125
0
CIRCLE
5
C5
100
AcDbEntity
8
0
6
ByLayer
62
256
370
-1
100
AcDbCircle
10
1.55975
20
7.875
40
0.125
0
DIMENSION
5
C6
100
AcDbEntity
8
0
6
ByLayer
62
256
370
-1
100
AcDbDimension
2
*D7
10
1.55975
20
8.9839862979
30
0
11
0
21
9.1089862979
31
0
70
33
71
5
3
Standard
53
0
210
0
220
0
230
1
100
AcDbAlignedDimension
13
-1.55975
23
7.875
33
0
14
1.55975
24
7.875
34
0
0
LEADER
5
C7
100
AcDbEntity
8
0
6
ByLayer
62
256
370
-1
100
AcDbLeader
3
Standard
71
1
72
0
73
3
74
0
75
0
40
1
41
10
76
2
76
2
10
-1.67533906138
20
7.81305039478
30
0
10
-2.3193538081
20
7.79503599627
30
0
0
MTEXT
5
C8
100
AcDbEntity
8
0
6
ByLayer
62
256
370
-1
100
AcDbMText
10
-2.96696682283
20
7.85388456863
30
0
40
0.125
41
0.600694444444
71
1
72
1
1
0.25" %%C
7
standard
210
0
220
0
230
1
50
0
73
2
44
1
0
DIMENSION
5
C9
100
AcDbEntity
8
0
6
ByLayer
62
256
370
-1
100
AcDbDimension
2
*D9
10
2
20
6.4833626048
30
0
11
0
21
6.6083626048
31
0
70
33
71
5
3
Standard
53
0
210
0
220
0
230
1
100
AcDbAlignedDimension
13
-2
23
7
33
0
14
2
24
7
34
0
0
DIMENSION
5
CA
100
AcDbEntity
8
0
6
ByLayer
62
256
370
-1
100
AcDbDimension
2
*D10
10
2.66521618573
20
8.5
30
0
11
2.54021618573
21
7.75
31
0
70
33
71
5
3
Standard
53
0
210
0
220
0
230
1
100
AcDbAlignedDimension
13
2
23
7
33
0
14
2
24
8.5
34
0
0
MTEXT
5
CB
100
AcDbEntity
8
0
6
ByLayer
62
256
370
-1
100
AcDbMText
10
-2.04069358115
20
5.71810251187
30
0
40
0.5
41
4.15277777778
71
1
72
1
1
Motor Mount
7
standard
210
0
220
0
230
1
50
0
73
2
44
1
0
LINE
5
CC
100
AcDbEntity
8
0
6
DASHED2
62
256
370
-1
100
AcDbLine
10
-1.34375
20
7.2435
11
-1.34375
21
7
0
LINE
5
CD
100
AcDbEntity
8
0
6
DASHED2
62
256
370
-1
100
AcDbLine
10
-2
20
7.2435
11
2
21
7.2435
0
LINE
5
CE
100
AcDbEntity
8
0
6
DASHED2
62
256
370
-1
100
AcDbLine
10
-1.03125
20
7.2435
11
-1.03125
21
7
0
LINE
5
CF
100
AcDbEntity
8
0
6
CENTER2
62
256
370
-1
100
AcDbLine
10
-1.1875
20
7.625
11
-1.1875
21
6.625
0
LINE
5
D0
100
AcDbEntity
8
0
6
DASHED2
62
256
370
-1
100
AcDbLine
10
1.34375
20
7.2435
11
1.34375
21
7
0
LINE
5
D1
100
AcDbEntity
8
0
6
DASHED2
62
256
370
-1
100
AcDbLine
10
1.03125
20
7.2435
11
1.03125
21
7
0
LINE
5
D2
100
AcDbEntity
8
0
6
CENTER2
62
256
370
-1
100
AcDbLine
10
1.1875
20
7.625
11
1.1875
21
6.625
0
DIMENSION
5
D3
100
AcDbEntity
8
0
6
ByLayer
62
256
370
-1
100
AcDbDimension
2
*D11
10
1.1875
20
7.43854528385
30
0
11
0
21
7.56354528385
31
0
70
33
71
5
3
Standard
53
0
210
0
220
0
230
1
100
AcDbAlignedDimension
13
-1.1875
23
7.2435
33
0
14
1.1875
24
7.2435
34
0
0
LEADER
5
D4
100
AcDbEntity
8
0
6
ByLayer
62
256
370
-1
100
AcDbLeader
3
Standard
71
1
72
0
73
3
74
0
75
0
40
1
41
10
76
4
76
4
10
1.1875
20
7
30
0
10
2.49640037263
20
6.38577257595
30
0
10
3.16490344232
20
6.38577257595
30
0
10
3.16490344232
20
6.38577257595
30
0
0
MTEXT
5
D5
100
AcDbEntity
8
0
6
ByLayer
62
256
370
-1
100
AcDbMText
10
3.23499071152
20
6.52341383957
30
0
40
0.25
41
1.53472222222
71
1
72
1
1
0.3125" %%C
7
standard
210
0
220
0
230
1
50
0
73
2
44
1
0
ENDSEC
0
SECTION
2
OBJECTS
0
DICTIONARY
5
C
330
0
100
AcDbDictionary
281
1
3
ACAD_GROUP
350
D
0
DICTIONARY
5
D
330
C
100
AcDbDictionary
281
1
0
ENDSEC
0
EOF
