solid OpenSCAD_Model
  facet normal -0.866025 -0.5 0
    outer loop
      vertex 4.65 6.5 0
      vertex 2.325 10.527 4.2
      vertex 2.325 10.527 0
    endloop
  endfacet
  facet normal -0.866025 -0.5 0
    outer loop
      vertex 2.325 10.527 4.2
      vertex 4.65 6.5 0
      vertex 4.65 6.5 4.2
    endloop
  endfacet
  facet normal 0.866025 -0.5 0
    outer loop
      vertex -4.65 6.5 4.2
      vertex -2.325 10.527 0
      vertex -2.325 10.527 4.2
    endloop
  endfacet
  facet normal 0.866025 -0.5 0
    outer loop
      vertex -2.325 10.527 0
      vertex -4.65 6.5 4.2
      vertex -4.65 6.5 0
    endloop
  endfacet
  facet normal 0 -1 0
    outer loop
      vertex -2.325 10.527 0
      vertex 2.325 10.527 4.2
      vertex -2.325 10.527 4.2
    endloop
  endfacet
  facet normal 0 -1 -0
    outer loop
      vertex 2.325 10.527 4.2
      vertex -2.325 10.527 0
      vertex 2.325 10.527 0
    endloop
  endfacet
  facet normal 0 0 -1
    outer loop
      vertex 2.325 2.47298 4.2
      vertex 2.325 10.527 4.2
      vertex 4.65 6.5 4.2
    endloop
  endfacet
  facet normal 0 0 -1
    outer loop
      vertex -2.325 2.47298 4.2
      vertex 2.325 10.527 4.2
      vertex 2.325 2.47298 4.2
    endloop
  endfacet
  facet normal 0 0 -1
    outer loop
      vertex -2.325 2.47298 4.2
      vertex -2.325 10.527 4.2
      vertex 2.325 10.527 4.2
    endloop
  endfacet
  facet normal 0 -0 -1
    outer loop
      vertex -2.325 10.527 4.2
      vertex -2.325 2.47298 4.2
      vertex -4.65 6.5 4.2
    endloop
  endfacet
  facet normal 0 1 -0
    outer loop
      vertex 2.325 2.47298 0
      vertex -2.325 2.47298 4.2
      vertex 2.325 2.47298 4.2
    endloop
  endfacet
  facet normal 0 1 0
    outer loop
      vertex -2.325 2.47298 4.2
      vertex 2.325 2.47298 0
      vertex -2.325 2.47298 0
    endloop
  endfacet
  facet normal 0.866025 0.5 0
    outer loop
      vertex -2.325 2.47298 4.2
      vertex -4.65 6.5 0
      vertex -4.65 6.5 4.2
    endloop
  endfacet
  facet normal 0.866025 0.5 0
    outer loop
      vertex -4.65 6.5 0
      vertex -2.325 2.47298 4.2
      vertex -2.325 2.47298 0
    endloop
  endfacet
  facet normal -0.866025 0.5 0
    outer loop
      vertex 2.325 2.47298 0
      vertex 4.65 6.5 4.2
      vertex 4.65 6.5 0
    endloop
  endfacet
  facet normal -0.866025 0.5 0
    outer loop
      vertex 4.65 6.5 4.2
      vertex 2.325 2.47298 0
      vertex 2.325 2.47298 4.2
    endloop
  endfacet
  facet normal -0.997859 -0.0654036 0
    outer loop
      vertex 2.6 6.5 4.5
      vertex 2.57776 6.83937 5
      vertex 2.57776 6.83937 4.5
    endloop
  endfacet
  facet normal -0.997859 -0.0654036 0
    outer loop
      vertex 2.57776 6.83937 5
      vertex 2.6 6.5 4.5
      vertex 2.6 6.5 5
    endloop
  endfacet
  facet normal 0.997859 -0.0654036 0
    outer loop
      vertex -2.6 6.5 5
      vertex -2.57776 6.83937 4.5
      vertex -2.57776 6.83937 5
    endloop
  endfacet
  facet normal 0.997859 -0.0654036 0
    outer loop
      vertex -2.57776 6.83937 4.5
      vertex -2.6 6.5 5
      vertex -2.6 6.5 4.5
    endloop
  endfacet
  facet normal -0.0654036 -0.997859 0
    outer loop
      vertex 0 9.1 4.5
      vertex 0.339368 9.07776 5
      vertex 0 9.1 5
    endloop
  endfacet
  facet normal -0.0654036 -0.997859 -0
    outer loop
      vertex 0.339368 9.07776 5
      vertex 0 9.1 4.5
      vertex 0.339368 9.07776 4.5
    endloop
  endfacet
  facet normal 0.0654036 0.997859 -0
    outer loop
      vertex 0 3.9 4.5
      vertex -0.339368 3.92224 5
      vertex 0 3.9 5
    endloop
  endfacet
  facet normal 0.0654036 0.997859 0
    outer loop
      vertex -0.339368 3.92224 5
      vertex 0 3.9 4.5
      vertex -0.339368 3.92224 4.5
    endloop
  endfacet
  facet normal -0.75184 -0.659346 0
    outer loop
      vertex 2.06272 8.08278 4.5
      vertex 1.83848 8.33848 5
      vertex 1.83848 8.33848 4.5
    endloop
  endfacet
  facet normal -0.75184 -0.659346 0
    outer loop
      vertex 1.83848 8.33848 5
      vertex 2.06272 8.08278 4.5
      vertex 2.06272 8.08278 5
    endloop
  endfacet
  facet normal 0.659346 -0.75184 0
    outer loop
      vertex -1.83848 8.33848 4.5
      vertex -1.58278 8.56272 5
      vertex -1.83848 8.33848 5
    endloop
  endfacet
  facet normal 0.659346 -0.75184 0
    outer loop
      vertex -1.58278 8.56272 5
      vertex -1.83848 8.33848 4.5
      vertex -1.58278 8.56272 4.5
    endloop
  endfacet
  facet normal 0.32144 -0.94693 0
    outer loop
      vertex -0.994976 8.90209 4.5
      vertex -0.672929 9.01141 5
      vertex -0.994976 8.90209 5
    endloop
  endfacet
  facet normal 0.32144 -0.94693 0
    outer loop
      vertex -0.672929 9.01141 5
      vertex -0.994976 8.90209 4.5
      vertex -0.672929 9.01141 4.5
    endloop
  endfacet
  facet normal -0.94693 -0.32144 0
    outer loop
      vertex 2.51141 7.17293 4.5
      vertex 2.40209 7.49498 5
      vertex 2.40209 7.49498 4.5
    endloop
  endfacet
  facet normal -0.94693 -0.32144 0
    outer loop
      vertex 2.40209 7.49498 5
      vertex 2.51141 7.17293 4.5
      vertex 2.51141 7.17293 5
    endloop
  endfacet
  facet normal -0.980785 -0.195089 0
    outer loop
      vertex 2.57776 6.83937 4.5
      vertex 2.51141 7.17293 5
      vertex 2.51141 7.17293 4.5
    endloop
  endfacet
  facet normal -0.980785 -0.195089 0
    outer loop
      vertex 2.51141 7.17293 5
      vertex 2.57776 6.83937 4.5
      vertex 2.57776 6.83937 5
    endloop
  endfacet
  facet normal -0.44229 -0.896872 0
    outer loop
      vertex 0.994976 8.90209 4.5
      vertex 1.3 8.75167 5
      vertex 0.994976 8.90209 5
    endloop
  endfacet
  facet normal -0.44229 -0.896872 -0
    outer loop
      vertex 1.3 8.75167 5
      vertex 0.994976 8.90209 4.5
      vertex 1.3 8.75167 4.5
    endloop
  endfacet
  facet normal -0.32144 -0.94693 0
    outer loop
      vertex 0.672929 9.01141 4.5
      vertex 0.994976 8.90209 5
      vertex 0.672929 9.01141 5
    endloop
  endfacet
  facet normal -0.32144 -0.94693 -0
    outer loop
      vertex 0.994976 8.90209 5
      vertex 0.672929 9.01141 4.5
      vertex 0.994976 8.90209 4.5
    endloop
  endfacet
  facet normal -0.659346 -0.75184 0
    outer loop
      vertex 1.58278 8.56272 4.5
      vertex 1.83848 8.33848 5
      vertex 1.58278 8.56272 5
    endloop
  endfacet
  facet normal -0.659346 -0.75184 -0
    outer loop
      vertex 1.83848 8.33848 5
      vertex 1.58278 8.56272 4.5
      vertex 1.83848 8.33848 4.5
    endloop
  endfacet
  facet normal 0.83147 -0.555569 0
    outer loop
      vertex -2.25167 7.8 5
      vertex -2.06272 8.08278 4.5
      vertex -2.06272 8.08278 5
    endloop
  endfacet
  facet normal 0.83147 -0.555569 0
    outer loop
      vertex -2.06272 8.08278 4.5
      vertex -2.25167 7.8 5
      vertex -2.25167 7.8 4.5
    endloop
  endfacet
  facet normal 0.75184 -0.659346 0
    outer loop
      vertex -2.06272 8.08278 5
      vertex -1.83848 8.33848 4.5
      vertex -1.83848 8.33848 5
    endloop
  endfacet
  facet normal 0.75184 -0.659346 0
    outer loop
      vertex -1.83848 8.33848 4.5
      vertex -2.06272 8.08278 5
      vertex -2.06272 8.08278 4.5
    endloop
  endfacet
  facet normal 0.94693 -0.32144 0
    outer loop
      vertex -2.51141 7.17293 5
      vertex -2.40209 7.49498 4.5
      vertex -2.40209 7.49498 5
    endloop
  endfacet
  facet normal 0.94693 -0.32144 0
    outer loop
      vertex -2.40209 7.49498 4.5
      vertex -2.51141 7.17293 5
      vertex -2.51141 7.17293 4.5
    endloop
  endfacet
  facet normal 0.555569 -0.83147 0
    outer loop
      vertex -1.58278 8.56272 4.5
      vertex -1.3 8.75167 5
      vertex -1.58278 8.56272 5
    endloop
  endfacet
  facet normal 0.555569 -0.83147 0
    outer loop
      vertex -1.3 8.75167 5
      vertex -1.58278 8.56272 4.5
      vertex -1.3 8.75167 4.5
    endloop
  endfacet
  facet normal 0.195089 -0.980785 0
    outer loop
      vertex -0.672929 9.01141 4.5
      vertex -0.339368 9.07776 5
      vertex -0.672929 9.01141 5
    endloop
  endfacet
  facet normal 0.195089 -0.980785 0
    outer loop
      vertex -0.339368 9.07776 5
      vertex -0.672929 9.01141 4.5
      vertex -0.339368 9.07776 4.5
    endloop
  endfacet
  facet normal -0.896872 0.44229 0
    outer loop
      vertex 2.25167 5.2 4.5
      vertex 2.40209 5.50502 5
      vertex 2.40209 5.50502 4.5
    endloop
  endfacet
  facet normal -0.896872 0.44229 0
    outer loop
      vertex 2.40209 5.50502 5
      vertex 2.25167 5.2 4.5
      vertex 2.25167 5.2 5
    endloop
  endfacet
  facet normal -0.980785 0.195089 0
    outer loop
      vertex 2.51141 5.82707 4.5
      vertex 2.57776 6.16063 5
      vertex 2.57776 6.16063 4.5
    endloop
  endfacet
  facet normal -0.980785 0.195089 0
    outer loop
      vertex 2.57776 6.16063 5
      vertex 2.51141 5.82707 4.5
      vertex 2.51141 5.82707 5
    endloop
  endfacet
  facet normal 0.659346 0.75184 -0
    outer loop
      vertex -1.58278 4.43728 4.5
      vertex -1.83848 4.66152 5
      vertex -1.58278 4.43728 5
    endloop
  endfacet
  facet normal 0.659346 0.75184 0
    outer loop
      vertex -1.83848 4.66152 5
      vertex -1.58278 4.43728 4.5
      vertex -1.83848 4.66152 4.5
    endloop
  endfacet
  facet normal 0.32144 0.94693 -0
    outer loop
      vertex -0.672929 3.98859 4.5
      vertex -0.994976 4.09791 5
      vertex -0.672929 3.98859 5
    endloop
  endfacet
  facet normal 0.32144 0.94693 0
    outer loop
      vertex -0.994976 4.09791 5
      vertex -0.672929 3.98859 4.5
      vertex -0.994976 4.09791 4.5
    endloop
  endfacet
  facet normal 0.75184 0.659346 0
    outer loop
      vertex -1.83848 4.66152 5
      vertex -2.06272 4.91722 4.5
      vertex -2.06272 4.91722 5
    endloop
  endfacet
  facet normal 0.75184 0.659346 0
    outer loop
      vertex -2.06272 4.91722 4.5
      vertex -1.83848 4.66152 5
      vertex -1.83848 4.66152 4.5
    endloop
  endfacet
  facet normal 0 0 1
    outer loop
      vertex 2.57776 6.83937 4.5
      vertex 2.57776 6.16063 4.5
      vertex 2.6 6.5 4.5
    endloop
  endfacet
  facet normal 0 0 1
    outer loop
      vertex 2.51141 7.17293 4.5
      vertex 2.57776 6.16063 4.5
      vertex 2.57776 6.83937 4.5
    endloop
  endfacet
  facet normal 0 0 1
    outer loop
      vertex 2.51141 7.17293 4.5
      vertex 2.51141 5.82707 4.5
      vertex 2.57776 6.16063 4.5
    endloop
  endfacet
  facet normal 0 0 1
    outer loop
      vertex 2.40209 7.49498 4.5
      vertex 2.51141 5.82707 4.5
      vertex 2.51141 7.17293 4.5
    endloop
  endfacet
  facet normal 0 0 1
    outer loop
      vertex 2.40209 7.49498 4.5
      vertex 2.40209 5.50502 4.5
      vertex 2.51141 5.82707 4.5
    endloop
  endfacet
  facet normal 0 0 1
    outer loop
      vertex 2.25167 7.8 4.5
      vertex 2.40209 5.50502 4.5
      vertex 2.40209 7.49498 4.5
    endloop
  endfacet
  facet normal 0 0 1
    outer loop
      vertex 2.25167 7.8 4.5
      vertex 2.25167 5.2 4.5
      vertex 2.40209 5.50502 4.5
    endloop
  endfacet
  facet normal 0 0 1
    outer loop
      vertex 2.06272 8.08278 4.5
      vertex 2.25167 5.2 4.5
      vertex 2.25167 7.8 4.5
    endloop
  endfacet
  facet normal 0 0 1
    outer loop
      vertex 2.06272 8.08278 4.5
      vertex 2.06272 4.91722 4.5
      vertex 2.25167 5.2 4.5
    endloop
  endfacet
  facet normal 0 0 1
    outer loop
      vertex 1.83848 8.33848 4.5
      vertex 2.06272 4.91722 4.5
      vertex 2.06272 8.08278 4.5
    endloop
  endfacet
  facet normal 0 0 1
    outer loop
      vertex 1.83848 8.33848 4.5
      vertex 1.83848 4.66152 4.5
      vertex 2.06272 4.91722 4.5
    endloop
  endfacet
  facet normal 0 0 1
    outer loop
      vertex 1.58278 8.56272 4.5
      vertex 1.83848 4.66152 4.5
      vertex 1.83848 8.33848 4.5
    endloop
  endfacet
  facet normal 0 0 1
    outer loop
      vertex 1.58278 8.56272 4.5
      vertex 1.58278 4.43728 4.5
      vertex 1.83848 4.66152 4.5
    endloop
  endfacet
  facet normal 0 0 1
    outer loop
      vertex 1.3 8.75167 4.5
      vertex 1.58278 4.43728 4.5
      vertex 1.58278 8.56272 4.5
    endloop
  endfacet
  facet normal 0 0 1
    outer loop
      vertex 1.3 8.75167 4.5
      vertex 1.3 4.24833 4.5
      vertex 1.58278 4.43728 4.5
    endloop
  endfacet
  facet normal 0 0 1
    outer loop
      vertex 0.994976 8.90209 4.5
      vertex 1.3 4.24833 4.5
      vertex 1.3 8.75167 4.5
    endloop
  endfacet
  facet normal 0 0 1
    outer loop
      vertex 0.994976 8.90209 4.5
      vertex 0.994976 4.09791 4.5
      vertex 1.3 4.24833 4.5
    endloop
  endfacet
  facet normal 0 0 1
    outer loop
      vertex 0.672929 9.01141 4.5
      vertex 0.994976 4.09791 4.5
      vertex 0.994976 8.90209 4.5
    endloop
  endfacet
  facet normal 0 0 1
    outer loop
      vertex 0.672929 9.01141 4.5
      vertex 0.672929 3.98859 4.5
      vertex 0.994976 4.09791 4.5
    endloop
  endfacet
  facet normal 0 0 1
    outer loop
      vertex 0.339368 9.07776 4.5
      vertex 0.672929 3.98859 4.5
      vertex 0.672929 9.01141 4.5
    endloop
  endfacet
  facet normal 0 0 1
    outer loop
      vertex 0.339368 9.07776 4.5
      vertex 0.339368 3.92224 4.5
      vertex 0.672929 3.98859 4.5
    endloop
  endfacet
  facet normal 0 0 1
    outer loop
      vertex 0 9.1 4.5
      vertex 0.339368 3.92224 4.5
      vertex 0.339368 9.07776 4.5
    endloop
  endfacet
  facet normal 0 0 1
    outer loop
      vertex 0 9.1 4.5
      vertex 0 3.9 4.5
      vertex 0.339368 3.92224 4.5
    endloop
  endfacet
  facet normal -0 0 1
    outer loop
      vertex -0.339368 9.07776 4.5
      vertex 0 3.9 4.5
      vertex 0 9.1 4.5
    endloop
  endfacet
  facet normal 0 0 1
    outer loop
      vertex -0.339368 9.07776 4.5
      vertex -0.339368 3.92224 4.5
      vertex 0 3.9 4.5
    endloop
  endfacet
  facet normal -0 0 1
    outer loop
      vertex -0.672929 9.01141 4.5
      vertex -0.339368 3.92224 4.5
      vertex -0.339368 9.07776 4.5
    endloop
  endfacet
  facet normal 0 0 1
    outer loop
      vertex -0.672929 9.01141 4.5
      vertex -0.672929 3.98859 4.5
      vertex -0.339368 3.92224 4.5
    endloop
  endfacet
  facet normal -0 0 1
    outer loop
      vertex -0.994976 8.90209 4.5
      vertex -0.672929 3.98859 4.5
      vertex -0.672929 9.01141 4.5
    endloop
  endfacet
  facet normal 0 0 1
    outer loop
      vertex -0.994976 8.90209 4.5
      vertex -0.994976 4.09791 4.5
      vertex -0.672929 3.98859 4.5
    endloop
  endfacet
  facet normal -0 0 1
    outer loop
      vertex -1.3 8.75167 4.5
      vertex -0.994976 4.09791 4.5
      vertex -0.994976 8.90209 4.5
    endloop
  endfacet
  facet normal 0 0 1
    outer loop
      vertex -1.3 8.75167 4.5
      vertex -1.3 4.24833 4.5
      vertex -0.994976 4.09791 4.5
    endloop
  endfacet
  facet normal -0 0 1
    outer loop
      vertex -1.58278 8.56272 4.5
      vertex -1.3 4.24833 4.5
      vertex -1.3 8.75167 4.5
    endloop
  endfacet
  facet normal 0 0 1
    outer loop
      vertex -1.58278 8.56272 4.5
      vertex -1.58278 4.43728 4.5
      vertex -1.3 4.24833 4.5
    endloop
  endfacet
  facet normal -0 0 1
    outer loop
      vertex -1.83848 8.33848 4.5
      vertex -1.58278 4.43728 4.5
      vertex -1.58278 8.56272 4.5
    endloop
  endfacet
  facet normal 0 0 1
    outer loop
      vertex -1.83848 8.33848 4.5
      vertex -1.83848 4.66152 4.5
      vertex -1.58278 4.43728 4.5
    endloop
  endfacet
  facet normal -0 0 1
    outer loop
      vertex -2.06272 8.08278 4.5
      vertex -1.83848 4.66152 4.5
      vertex -1.83848 8.33848 4.5
    endloop
  endfacet
  facet normal 0 0 1
    outer loop
      vertex -2.06272 8.08278 4.5
      vertex -2.06272 4.91722 4.5
      vertex -1.83848 4.66152 4.5
    endloop
  endfacet
  facet normal -0 0 1
    outer loop
      vertex -2.25167 7.8 4.5
      vertex -2.06272 4.91722 4.5
      vertex -2.06272 8.08278 4.5
    endloop
  endfacet
  facet normal 0 0 1
    outer loop
      vertex -2.25167 7.8 4.5
      vertex -2.25167 5.2 4.5
      vertex -2.06272 4.91722 4.5
    endloop
  endfacet
  facet normal -0 0 1
    outer loop
      vertex -2.40209 7.49498 4.5
      vertex -2.25167 5.2 4.5
      vertex -2.25167 7.8 4.5
    endloop
  endfacet
  facet normal 0 0 1
    outer loop
      vertex -2.40209 7.49498 4.5
      vertex -2.40209 5.50502 4.5
      vertex -2.25167 5.2 4.5
    endloop
  endfacet
  facet normal -0 0 1
    outer loop
      vertex -2.51141 7.17293 4.5
      vertex -2.40209 5.50502 4.5
      vertex -2.40209 7.49498 4.5
    endloop
  endfacet
  facet normal 0 0 1
    outer loop
      vertex -2.51141 7.17293 4.5
      vertex -2.51141 5.82707 4.5
      vertex -2.40209 5.50502 4.5
    endloop
  endfacet
  facet normal -0 0 1
    outer loop
      vertex -2.57776 6.83937 4.5
      vertex -2.51141 5.82707 4.5
      vertex -2.51141 7.17293 4.5
    endloop
  endfacet
  facet normal 0 0 1
    outer loop
      vertex -2.57776 6.83937 4.5
      vertex -2.57776 6.16063 4.5
      vertex -2.51141 5.82707 4.5
    endloop
  endfacet
  facet normal 0 -0 1
    outer loop
      vertex -2.57776 6.16063 4.5
      vertex -2.57776 6.83937 4.5
      vertex -2.6 6.5 4.5
    endloop
  endfacet
  facet normal -0.83147 -0.555569 0
    outer loop
      vertex 2.25167 7.8 4.5
      vertex 2.06272 8.08278 5
      vertex 2.06272 8.08278 4.5
    endloop
  endfacet
  facet normal -0.83147 -0.555569 0
    outer loop
      vertex 2.06272 8.08278 5
      vertex 2.25167 7.8 4.5
      vertex 2.25167 7.8 5
    endloop
  endfacet
  facet normal -0.896872 -0.44229 0
    outer loop
      vertex 2.40209 7.49498 4.5
      vertex 2.25167 7.8 5
      vertex 2.25167 7.8 4.5
    endloop
  endfacet
  facet normal -0.896872 -0.44229 0
    outer loop
      vertex 2.25167 7.8 5
      vertex 2.40209 7.49498 4.5
      vertex 2.40209 7.49498 5
    endloop
  endfacet
  facet normal -0.195089 -0.980785 0
    outer loop
      vertex 0.339368 9.07776 4.5
      vertex 0.672929 9.01141 5
      vertex 0.339368 9.07776 5
    endloop
  endfacet
  facet normal -0.195089 -0.980785 -0
    outer loop
      vertex 0.672929 9.01141 5
      vertex 0.339368 9.07776 4.5
      vertex 0.672929 9.01141 4.5
    endloop
  endfacet
  facet normal 0.896872 -0.44229 0
    outer loop
      vertex -2.40209 7.49498 5
      vertex -2.25167 7.8 4.5
      vertex -2.25167 7.8 5
    endloop
  endfacet
  facet normal 0.896872 -0.44229 0
    outer loop
      vertex -2.25167 7.8 4.5
      vertex -2.40209 7.49498 5
      vertex -2.40209 7.49498 4.5
    endloop
  endfacet
  facet normal 0.980785 -0.195089 0
    outer loop
      vertex -2.57776 6.83937 5
      vertex -2.51141 7.17293 4.5
      vertex -2.51141 7.17293 5
    endloop
  endfacet
  facet normal 0.980785 -0.195089 0
    outer loop
      vertex -2.51141 7.17293 4.5
      vertex -2.57776 6.83937 5
      vertex -2.57776 6.83937 4.5
    endloop
  endfacet
  facet normal 0.0654036 -0.997859 0
    outer loop
      vertex -0.339368 9.07776 4.5
      vertex 0 9.1 5
      vertex -0.339368 9.07776 5
    endloop
  endfacet
  facet normal 0.0654036 -0.997859 0
    outer loop
      vertex 0 9.1 5
      vertex -0.339368 9.07776 4.5
      vertex 0 9.1 4.5
    endloop
  endfacet
  facet normal -0.0654036 0.997859 0
    outer loop
      vertex 0.339368 3.92224 4.5
      vertex 0 3.9 5
      vertex 0.339368 3.92224 5
    endloop
  endfacet
  facet normal -0.0654036 0.997859 0
    outer loop
      vertex 0 3.9 5
      vertex 0.339368 3.92224 4.5
      vertex 0 3.9 4.5
    endloop
  endfacet
  facet normal -0.32144 0.94693 0
    outer loop
      vertex 0.994976 4.09791 4.5
      vertex 0.672929 3.98859 5
      vertex 0.994976 4.09791 5
    endloop
  endfacet
  facet normal -0.32144 0.94693 0
    outer loop
      vertex 0.672929 3.98859 5
      vertex 0.994976 4.09791 4.5
      vertex 0.672929 3.98859 4.5
    endloop
  endfacet
  facet normal -0.44229 0.896872 0
    outer loop
      vertex 1.3 4.24833 4.5
      vertex 0.994976 4.09791 5
      vertex 1.3 4.24833 5
    endloop
  endfacet
  facet normal -0.44229 0.896872 0
    outer loop
      vertex 0.994976 4.09791 5
      vertex 1.3 4.24833 4.5
      vertex 0.994976 4.09791 4.5
    endloop
  endfacet
  facet normal -0.659346 0.75184 0
    outer loop
      vertex 1.83848 4.66152 4.5
      vertex 1.58278 4.43728 5
      vertex 1.83848 4.66152 5
    endloop
  endfacet
  facet normal -0.659346 0.75184 0
    outer loop
      vertex 1.58278 4.43728 5
      vertex 1.83848 4.66152 4.5
      vertex 1.58278 4.43728 4.5
    endloop
  endfacet
  facet normal -0.555569 0.83147 0
    outer loop
      vertex 1.58278 4.43728 4.5
      vertex 1.3 4.24833 5
      vertex 1.58278 4.43728 5
    endloop
  endfacet
  facet normal -0.555569 0.83147 0
    outer loop
      vertex 1.3 4.24833 5
      vertex 1.58278 4.43728 4.5
      vertex 1.3 4.24833 4.5
    endloop
  endfacet
  facet normal -0.75184 0.659346 0
    outer loop
      vertex 1.83848 4.66152 4.5
      vertex 2.06272 4.91722 5
      vertex 2.06272 4.91722 4.5
    endloop
  endfacet
  facet normal -0.75184 0.659346 0
    outer loop
      vertex 2.06272 4.91722 5
      vertex 1.83848 4.66152 4.5
      vertex 1.83848 4.66152 5
    endloop
  endfacet
  facet normal -0.83147 0.555569 0
    outer loop
      vertex 2.06272 4.91722 4.5
      vertex 2.25167 5.2 5
      vertex 2.25167 5.2 4.5
    endloop
  endfacet
  facet normal -0.83147 0.555569 0
    outer loop
      vertex 2.25167 5.2 5
      vertex 2.06272 4.91722 4.5
      vertex 2.06272 4.91722 5
    endloop
  endfacet
  facet normal 0.555569 0.83147 -0
    outer loop
      vertex -1.3 4.24833 4.5
      vertex -1.58278 4.43728 5
      vertex -1.3 4.24833 5
    endloop
  endfacet
  facet normal 0.555569 0.83147 0
    outer loop
      vertex -1.58278 4.43728 5
      vertex -1.3 4.24833 4.5
      vertex -1.58278 4.43728 4.5
    endloop
  endfacet
  facet normal 0.195089 0.980785 -0
    outer loop
      vertex -0.339368 3.92224 4.5
      vertex -0.672929 3.98859 5
      vertex -0.339368 3.92224 5
    endloop
  endfacet
  facet normal 0.195089 0.980785 0
    outer loop
      vertex -0.672929 3.98859 5
      vertex -0.339368 3.92224 4.5
      vertex -0.672929 3.98859 4.5
    endloop
  endfacet
  facet normal 0.896872 0.44229 0
    outer loop
      vertex -2.25167 5.2 5
      vertex -2.40209 5.50502 4.5
      vertex -2.40209 5.50502 5
    endloop
  endfacet
  facet normal 0.896872 0.44229 0
    outer loop
      vertex -2.40209 5.50502 4.5
      vertex -2.25167 5.2 5
      vertex -2.25167 5.2 4.5
    endloop
  endfacet
  facet normal 0.94693 0.32144 0
    outer loop
      vertex -2.40209 5.50502 5
      vertex -2.51141 5.82707 4.5
      vertex -2.51141 5.82707 5
    endloop
  endfacet
  facet normal 0.94693 0.32144 0
    outer loop
      vertex -2.51141 5.82707 4.5
      vertex -2.40209 5.50502 5
      vertex -2.40209 5.50502 4.5
    endloop
  endfacet
  facet normal 0.997859 0.0654036 0
    outer loop
      vertex -2.57776 6.16063 5
      vertex -2.6 6.5 4.5
      vertex -2.6 6.5 5
    endloop
  endfacet
  facet normal 0.997859 0.0654036 0
    outer loop
      vertex -2.6 6.5 4.5
      vertex -2.57776 6.16063 5
      vertex -2.57776 6.16063 4.5
    endloop
  endfacet
  facet normal -0.555569 -0.83147 0
    outer loop
      vertex 1.3 8.75167 4.5
      vertex 1.58278 8.56272 5
      vertex 1.3 8.75167 5
    endloop
  endfacet
  facet normal -0.555569 -0.83147 -0
    outer loop
      vertex 1.58278 8.56272 5
      vertex 1.3 8.75167 4.5
      vertex 1.58278 8.56272 4.5
    endloop
  endfacet
  facet normal 0.44229 -0.896872 0
    outer loop
      vertex -1.3 8.75167 4.5
      vertex -0.994976 8.90209 5
      vertex -1.3 8.75167 5
    endloop
  endfacet
  facet normal 0.44229 -0.896872 0
    outer loop
      vertex -0.994976 8.90209 5
      vertex -1.3 8.75167 4.5
      vertex -0.994976 8.90209 4.5
    endloop
  endfacet
  facet normal -0.997859 0.0654036 0
    outer loop
      vertex 2.57776 6.16063 4.5
      vertex 2.6 6.5 5
      vertex 2.6 6.5 4.5
    endloop
  endfacet
  facet normal -0.997859 0.0654036 0
    outer loop
      vertex 2.6 6.5 5
      vertex 2.57776 6.16063 4.5
      vertex 2.57776 6.16063 5
    endloop
  endfacet
  facet normal -0.195089 0.980785 0
    outer loop
      vertex 0.672929 3.98859 4.5
      vertex 0.339368 3.92224 5
      vertex 0.672929 3.98859 5
    endloop
  endfacet
  facet normal -0.195089 0.980785 0
    outer loop
      vertex 0.339368 3.92224 5
      vertex 0.672929 3.98859 4.5
      vertex 0.339368 3.92224 4.5
    endloop
  endfacet
  facet normal -0.94693 0.32144 0
    outer loop
      vertex 2.40209 5.50502 4.5
      vertex 2.51141 5.82707 5
      vertex 2.51141 5.82707 4.5
    endloop
  endfacet
  facet normal -0.94693 0.32144 0
    outer loop
      vertex 2.51141 5.82707 5
      vertex 2.40209 5.50502 4.5
      vertex 2.40209 5.50502 5
    endloop
  endfacet
  facet normal 0.44229 0.896872 -0
    outer loop
      vertex -0.994976 4.09791 4.5
      vertex -1.3 4.24833 5
      vertex -0.994976 4.09791 5
    endloop
  endfacet
  facet normal 0.44229 0.896872 0
    outer loop
      vertex -1.3 4.24833 5
      vertex -0.994976 4.09791 4.5
      vertex -1.3 4.24833 4.5
    endloop
  endfacet
  facet normal 0.83147 0.555569 0
    outer loop
      vertex -2.06272 4.91722 5
      vertex -2.25167 5.2 4.5
      vertex -2.25167 5.2 5
    endloop
  endfacet
  facet normal 0.83147 0.555569 0
    outer loop
      vertex -2.25167 5.2 4.5
      vertex -2.06272 4.91722 5
      vertex -2.06272 4.91722 4.5
    endloop
  endfacet
  facet normal 0.980785 0.195089 0
    outer loop
      vertex -2.51141 5.82707 5
      vertex -2.57776 6.16063 4.5
      vertex -2.57776 6.16063 5
    endloop
  endfacet
  facet normal 0.980785 0.195089 0
    outer loop
      vertex -2.57776 6.16063 4.5
      vertex -2.51141 5.82707 5
      vertex -2.51141 5.82707 4.5
    endloop
  endfacet
  facet normal 0.997859 0.0654041 0
    outer loop
      vertex 6 6.5 5
      vertex 5.94867 7.28316 0
      vertex 5.94867 7.28316 5
    endloop
  endfacet
  facet normal 0.997859 0.0654041 0
    outer loop
      vertex 5.94867 7.28316 0
      vertex 6 6.5 5
      vertex 6 6.5 0
    endloop
  endfacet
  facet normal -0.75184 0.659345 0
    outer loop
      vertex -4.76012 10.1526 0
      vertex -4.24264 10.7426 5
      vertex -4.24264 10.7426 0
    endloop
  endfacet
  facet normal -0.75184 0.659345 0
    outer loop
      vertex -4.24264 10.7426 5
      vertex -4.76012 10.1526 0
      vertex -4.76012 10.1526 5
    endloop
  endfacet
  facet normal 0.75184 -0.659345 0
    outer loop
      vertex 4.24264 -10.7426 5
      vertex 4.76012 -10.1526 0
      vertex 4.76012 -10.1526 5
    endloop
  endfacet
  facet normal 0.75184 -0.659345 0
    outer loop
      vertex 4.76012 -10.1526 0
      vertex 4.24264 -10.7426 5
      vertex 4.24264 -10.7426 0
    endloop
  endfacet
  facet normal -0.321439 -0.94693 0
    outer loop
      vertex -2.2961 -12.0433 0
      vertex -1.55291 -12.2956 5
      vertex -2.2961 -12.0433 5
    endloop
  endfacet
  facet normal -0.321439 -0.94693 -0
    outer loop
      vertex -1.55291 -12.2956 5
      vertex -2.2961 -12.0433 0
      vertex -1.55291 -12.2956 0
    endloop
  endfacet
  facet normal 0.321439 0.94693 -0
    outer loop
      vertex 2.2961 12.0433 0
      vertex 1.55291 12.2956 5
      vertex 2.2961 12.0433 5
    endloop
  endfacet
  facet normal 0.321439 0.94693 0
    outer loop
      vertex 1.55291 12.2956 5
      vertex 2.2961 12.0433 0
      vertex 1.55291 12.2956 0
    endloop
  endfacet
  facet normal -0.980785 0.19509 0
    outer loop
      vertex -5.94867 7.28316 0
      vertex -5.79555 8.05291 5
      vertex -5.79555 8.05291 0
    endloop
  endfacet
  facet normal -0.980785 0.19509 0
    outer loop
      vertex -5.79555 8.05291 5
      vertex -5.94867 7.28316 0
      vertex -5.94867 7.28316 5
    endloop
  endfacet
  facet normal -0.997859 0.0654041 0
    outer loop
      vertex -6 6.5 0
      vertex -5.94867 7.28316 5
      vertex -5.94867 7.28316 0
    endloop
  endfacet
  facet normal -0.997859 0.0654041 0
    outer loop
      vertex -5.94867 7.28316 5
      vertex -6 6.5 0
      vertex -6 6.5 5
    endloop
  endfacet
  facet normal -0.896873 0.442289 0
    outer loop
      vertex -5.54328 8.7961 0
      vertex -5.19615 9.5 5
      vertex -5.19615 9.5 0
    endloop
  endfacet
  facet normal -0.896873 0.442289 0
    outer loop
      vertex -5.19615 9.5 5
      vertex -5.54328 8.7961 0
      vertex -5.54328 8.7961 5
    endloop
  endfacet
  facet normal 0.997859 -0.0654041 0
    outer loop
      vertex 5.94867 -7.28316 5
      vertex 6 -6.5 0
      vertex 6 -6.5 5
    endloop
  endfacet
  facet normal 0.997859 -0.0654041 0
    outer loop
      vertex 6 -6.5 0
      vertex 5.94867 -7.28316 5
      vertex 5.94867 -7.28316 0
    endloop
  endfacet
  facet normal -0.75184 -0.659345 0
    outer loop
      vertex -4.24264 -10.7426 0
      vertex -4.76012 -10.1526 5
      vertex -4.76012 -10.1526 0
    endloop
  endfacet
  facet normal -0.75184 -0.659345 0
    outer loop
      vertex -4.76012 -10.1526 5
      vertex -4.24264 -10.7426 0
      vertex -4.24264 -10.7426 5
    endloop
  endfacet
  facet normal 0.75184 0.659345 0
    outer loop
      vertex 4.76012 10.1526 5
      vertex 4.24264 10.7426 0
      vertex 4.24264 10.7426 5
    endloop
  endfacet
  facet normal 0.75184 0.659345 0
    outer loop
      vertex 4.24264 10.7426 0
      vertex 4.76012 10.1526 5
      vertex 4.76012 10.1526 0
    endloop
  endfacet
  facet normal -0.321439 0.94693 0
    outer loop
      vertex -1.55291 12.2956 0
      vertex -2.2961 12.0433 5
      vertex -1.55291 12.2956 5
    endloop
  endfacet
  facet normal -0.321439 0.94693 0
    outer loop
      vertex -2.2961 12.0433 5
      vertex -1.55291 12.2956 0
      vertex -2.2961 12.0433 0
    endloop
  endfacet
  facet normal 0.0654041 0.997859 -0
    outer loop
      vertex 0.783156 12.4487 0
      vertex 0 12.5 5
      vertex 0.783156 12.4487 5
    endloop
  endfacet
  facet normal 0.0654041 0.997859 0
    outer loop
      vertex 0 12.5 5
      vertex 0.783156 12.4487 0
      vertex 0 12.5 0
    endloop
  endfacet
  facet normal 0 0 -1
    outer loop
      vertex 5 -6.5 0
      vertex 6 -6.5 0
      vertex 5.94867 -7.28316 0
    endloop
  endfacet
  facet normal 0 0 -1
    outer loop
      vertex 6 -6.5 0
      vertex 4.6194 -4.58658 0
      vertex 6 6.5 0
    endloop
  endfacet
  facet normal 0 0 -1
    outer loop
      vertex 4.95722 -7.15263 0
      vertex 5.94867 -7.28316 0
      vertex 5.79555 -8.05291 0
    endloop
  endfacet
  facet normal 0 0 -1
    outer loop
      vertex 6 -6.5 0
      vertex 4.82963 -5.2059 0
      vertex 4.6194 -4.58658 0
    endloop
  endfacet
  facet normal 0 0 -1
    outer loop
      vertex 4.82963 -7.7941 0
      vertex 5.79555 -8.05291 0
      vertex 5.54328 -8.7961 0
    endloop
  endfacet
  facet normal 0 0 -1
    outer loop
      vertex 6 -6.5 0
      vertex 4.95722 -5.84737 0
      vertex 4.82963 -5.2059 0
    endloop
  endfacet
  facet normal 0 0 -1
    outer loop
      vertex 4.6194 -8.41342 0
      vertex 5.54328 -8.7961 0
      vertex 5.19615 -9.5 0
    endloop
  endfacet
  facet normal 0 0 -1
    outer loop
      vertex 6 -6.5 0
      vertex 5 -6.5 0
      vertex 4.95722 -5.84737 0
    endloop
  endfacet
  facet normal 0 0 -1
    outer loop
      vertex 4.33013 -4 0
      vertex 6 6.5 0
      vertex 4.6194 -4.58658 0
    endloop
  endfacet
  facet normal 0 0 -1
    outer loop
      vertex 5.94867 -7.28316 0
      vertex 4.95722 -7.15263 0
      vertex 5 -6.5 0
    endloop
  endfacet
  facet normal 0 0 -1
    outer loop
      vertex 5.79555 -8.05291 0
      vertex 4.82963 -7.7941 0
      vertex 4.95722 -7.15263 0
    endloop
  endfacet
  facet normal 0 0 -1
    outer loop
      vertex 4.33013 -9 0
      vertex 5.19615 -9.5 0
      vertex 4.76012 -10.1526 0
    endloop
  endfacet
  facet normal 0 0 -1
    outer loop
      vertex 5.54328 -8.7961 0
      vertex 4.6194 -8.41342 0
      vertex 4.82963 -7.7941 0
    endloop
  endfacet
  facet normal 0 0 -1
    outer loop
      vertex 5.19615 -9.5 0
      vertex 4.33013 -9 0
      vertex 4.6194 -8.41342 0
    endloop
  endfacet
  facet normal 0 0 -1
    outer loop
      vertex 3.96677 -9.54381 0
      vertex 4.76012 -10.1526 0
      vertex 4.24264 -10.7426 0
    endloop
  endfacet
  facet normal 0 0 -1
    outer loop
      vertex 4.76012 -10.1526 0
      vertex 3.96677 -9.54381 0
      vertex 4.33013 -9 0
    endloop
  endfacet
  facet normal 0 0 -1
    outer loop
      vertex 3.53553 -10.0355 0
      vertex 4.24264 -10.7426 0
      vertex 3.65257 -11.2601 0
    endloop
  endfacet
  facet normal 0 0 -1
    outer loop
      vertex 4.24264 -10.7426 0
      vertex 3.53553 -10.0355 0
      vertex 3.96677 -9.54381 0
    endloop
  endfacet
  facet normal 0 0 -1
    outer loop
      vertex 3.65257 -11.2601 0
      vertex 3.04381 -10.4668 0
      vertex 3.53553 -10.0355 0
    endloop
  endfacet
  facet normal 0 0 -1
    outer loop
      vertex 3 -11.6962 0
      vertex 3.04381 -10.4668 0
      vertex 3.65257 -11.2601 0
    endloop
  endfacet
  facet normal 0 0 -1
    outer loop
      vertex 3 -11.6962 0
      vertex 2.5 -10.8301 0
      vertex 3.04381 -10.4668 0
    endloop
  endfacet
  facet normal 0 0 -1
    outer loop
      vertex 2.2961 -12.0433 0
      vertex 2.5 -10.8301 0
      vertex 3 -11.6962 0
    endloop
  endfacet
  facet normal 0 0 -1
    outer loop
      vertex 2.2961 -12.0433 0
      vertex 1.91342 -11.1194 0
      vertex 2.5 -10.8301 0
    endloop
  endfacet
  facet normal 0 0 -1
    outer loop
      vertex 1.55291 -12.2956 0
      vertex 1.91342 -11.1194 0
      vertex 2.2961 -12.0433 0
    endloop
  endfacet
  facet normal 0 0 -1
    outer loop
      vertex 1.55291 -12.2956 0
      vertex 1.2941 -11.3296 0
      vertex 1.91342 -11.1194 0
    endloop
  endfacet
  facet normal 0 0 -1
    outer loop
      vertex 0.783156 -12.4487 0
      vertex 1.2941 -11.3296 0
      vertex 1.55291 -12.2956 0
    endloop
  endfacet
  facet normal 0 0 -1
    outer loop
      vertex 0.783156 -12.4487 0
      vertex 0.652631 -11.4572 0
      vertex 1.2941 -11.3296 0
    endloop
  endfacet
  facet normal 0 0 -1
    outer loop
      vertex 0 -12.5 0
      vertex 0.652631 -11.4572 0
      vertex 0.783156 -12.4487 0
    endloop
  endfacet
  facet normal 0 0 -1
    outer loop
      vertex 0 -12.5 0
      vertex 0 -11.5 0
      vertex 0.652631 -11.4572 0
    endloop
  endfacet
  facet normal 0 0 -1
    outer loop
      vertex 0 -12.5 0
      vertex -0.652631 -11.4572 0
      vertex 0 -11.5 0
    endloop
  endfacet
  facet normal 0 0 -1
    outer loop
      vertex -0.783156 -12.4487 0
      vertex -0.652631 -11.4572 0
      vertex 0 -12.5 0
    endloop
  endfacet
  facet normal 0 0 -1
    outer loop
      vertex -0.783156 -12.4487 0
      vertex -1.2941 -11.3296 0
      vertex -0.652631 -11.4572 0
    endloop
  endfacet
  facet normal 0 0 -1
    outer loop
      vertex -1.55291 -12.2956 0
      vertex -1.2941 -11.3296 0
      vertex -0.783156 -12.4487 0
    endloop
  endfacet
  facet normal 0 0 -1
    outer loop
      vertex -1.55291 -12.2956 0
      vertex -1.91342 -11.1194 0
      vertex -1.2941 -11.3296 0
    endloop
  endfacet
  facet normal 0 0 -1
    outer loop
      vertex -2.2961 -12.0433 0
      vertex -1.91342 -11.1194 0
      vertex -1.55291 -12.2956 0
    endloop
  endfacet
  facet normal 0 0 -1
    outer loop
      vertex -2.2961 -12.0433 0
      vertex -2.5 -10.8301 0
      vertex -1.91342 -11.1194 0
    endloop
  endfacet
  facet normal 0 0 -1
    outer loop
      vertex -3 -11.6962 0
      vertex -2.5 -10.8301 0
      vertex -2.2961 -12.0433 0
    endloop
  endfacet
  facet normal 0 0 -1
    outer loop
      vertex -3 -11.6962 0
      vertex -3.04381 -10.4668 0
      vertex -2.5 -10.8301 0
    endloop
  endfacet
  facet normal 0 0 -1
    outer loop
      vertex -3.65257 -11.2601 0
      vertex -3.04381 -10.4668 0
      vertex -3 -11.6962 0
    endloop
  endfacet
  facet normal -0 0 -1
    outer loop
      vertex -3.04381 -10.4668 0
      vertex -3.65257 -11.2601 0
      vertex -3.53553 -10.0355 0
    endloop
  endfacet
  facet normal 0 0 -1
    outer loop
      vertex -4.24264 -10.7426 0
      vertex -3.53553 -10.0355 0
      vertex -3.65257 -11.2601 0
    endloop
  endfacet
  facet normal -0 0 -1
    outer loop
      vertex -3.53553 -10.0355 0
      vertex -4.24264 -10.7426 0
      vertex -3.96677 -9.54381 0
    endloop
  endfacet
  facet normal 0 0 -1
    outer loop
      vertex -4.76012 -10.1526 0
      vertex -3.96677 -9.54381 0
      vertex -4.24264 -10.7426 0
    endloop
  endfacet
  facet normal -0 0 -1
    outer loop
      vertex -3.96677 -9.54381 0
      vertex -4.76012 -10.1526 0
      vertex -4.33013 -9 0
    endloop
  endfacet
  facet normal 0 0 -1
    outer loop
      vertex -5.19615 -9.5 0
      vertex -4.33013 -9 0
      vertex -4.76012 -10.1526 0
    endloop
  endfacet
  facet normal -0 0 -1
    outer loop
      vertex -4.33013 -9 0
      vertex -5.19615 -9.5 0
      vertex -4.6194 -8.41342 0
    endloop
  endfacet
  facet normal 0 0 -1
    outer loop
      vertex -5.54328 -8.7961 0
      vertex -4.6194 -8.41342 0
      vertex -5.19615 -9.5 0
    endloop
  endfacet
  facet normal 0 0 -1
    outer loop
      vertex -5.79555 -8.05291 0
      vertex -4.82963 -7.7941 0
      vertex -5.54328 -8.7961 0
    endloop
  endfacet
  facet normal -0 0 -1
    outer loop
      vertex -4.6194 -8.41342 0
      vertex -5.54328 -8.7961 0
      vertex -4.82963 -7.7941 0
    endloop
  endfacet
  facet normal 0 0 -1
    outer loop
      vertex 3.96677 -3.45619 0
      vertex 6 6.5 0
      vertex 4.33013 -4 0
    endloop
  endfacet
  facet normal -0 0 -1
    outer loop
      vertex 5.79555 8.05291 0
      vertex 4.65 6.5 0
      vertex 5.54328 8.7961 0
    endloop
  endfacet
  facet normal -0 0 -1
    outer loop
      vertex 5.54328 8.7961 0
      vertex 4.65 6.5 0
      vertex 5.19615 9.5 0
    endloop
  endfacet
  facet normal 0 0 -1
    outer loop
      vertex 2.325 10.527 0
      vertex 5.19615 9.5 0
      vertex 4.65 6.5 0
    endloop
  endfacet
  facet normal 0 0 -1
    outer loop
      vertex 3.53553 -2.96447 0
      vertex 6 6.5 0
      vertex 3.96677 -3.45619 0
    endloop
  endfacet
  facet normal -0 0 -1
    outer loop
      vertex 5.94867 7.28316 0
      vertex 4.65 6.5 0
      vertex 5.79555 8.05291 0
    endloop
  endfacet
  facet normal 0 -0 -1
    outer loop
      vertex 4.65 6.5 0
      vertex 6 6.5 0
      vertex 2.325 2.47298 0
    endloop
  endfacet
  facet normal 0 0 -1
    outer loop
      vertex 6 6.5 0
      vertex 3.53553 -2.96447 0
      vertex 2.325 2.47298 0
    endloop
  endfacet
  facet normal 0 0 -1
    outer loop
      vertex 2.325 2.47298 0
      vertex 3.53553 -2.96447 0
      vertex 3.04381 -2.53323 0
    endloop
  endfacet
  facet normal 0 0 -1
    outer loop
      vertex 2.325 2.47298 0
      vertex 3.04381 -2.53323 0
      vertex 2.5 -2.16987 0
    endloop
  endfacet
  facet normal 0 0 -1
    outer loop
      vertex 6 6.5 0
      vertex 4.65 6.5 0
      vertex 5.94867 7.28316 0
    endloop
  endfacet
  facet normal 0 0 -1
    outer loop
      vertex 1.91342 -1.8806 0
      vertex 2.325 2.47298 0
      vertex 2.5 -2.16987 0
    endloop
  endfacet
  facet normal 0 0 -1
    outer loop
      vertex 1.2941 -1.67037 0
      vertex 2.325 2.47298 0
      vertex 1.91342 -1.8806 0
    endloop
  endfacet
  facet normal 0 0 -1
    outer loop
      vertex 0.652631 -1.54278 0
      vertex 2.325 2.47298 0
      vertex 1.2941 -1.67037 0
    endloop
  endfacet
  facet normal 0 0 -1
    outer loop
      vertex 0 -1.5 0
      vertex 2.325 2.47298 0
      vertex 0.652631 -1.54278 0
    endloop
  endfacet
  facet normal 0 0 -1
    outer loop
      vertex -2.325 2.47298 0
      vertex 0 -1.5 0
      vertex -0.652631 -1.54278 0
    endloop
  endfacet
  facet normal 0 0 -1
    outer loop
      vertex -2.325 2.47298 0
      vertex -0.652631 -1.54278 0
      vertex -1.2941 -1.67037 0
    endloop
  endfacet
  facet normal 0 0 -1
    outer loop
      vertex -2.325 2.47298 0
      vertex -1.2941 -1.67037 0
      vertex -1.91342 -1.8806 0
    endloop
  endfacet
  facet normal 0 0 -1
    outer loop
      vertex 0 -1.5 0
      vertex -2.325 2.47298 0
      vertex 2.325 2.47298 0
    endloop
  endfacet
  facet normal 0 0 -1
    outer loop
      vertex -2.5 -2.16987 0
      vertex -2.325 2.47298 0
      vertex -1.91342 -1.8806 0
    endloop
  endfacet
  facet normal 0 0 -1
    outer loop
      vertex -3.04381 -2.53323 0
      vertex -2.325 2.47298 0
      vertex -2.5 -2.16987 0
    endloop
  endfacet
  facet normal 0 0 -1
    outer loop
      vertex -3.53553 -2.96447 0
      vertex -2.325 2.47298 0
      vertex -3.04381 -2.53323 0
    endloop
  endfacet
  facet normal 0 0 -1
    outer loop
      vertex -6 6.5 0
      vertex -3.53553 -2.96447 0
      vertex -3.96677 -3.45619 0
    endloop
  endfacet
  facet normal 0 0 -1
    outer loop
      vertex -6 6.5 0
      vertex -3.96677 -3.45619 0
      vertex -4.33013 -4 0
    endloop
  endfacet
  facet normal 0 0 -1
    outer loop
      vertex -6 6.5 0
      vertex -4.33013 -4 0
      vertex -4.6194 -4.58658 0
    endloop
  endfacet
  facet normal 0 0 -1
    outer loop
      vertex -3.53553 -2.96447 0
      vertex -6 6.5 0
      vertex -2.325 2.47298 0
    endloop
  endfacet
  facet normal 0 0 -1
    outer loop
      vertex -2.325 2.47298 0
      vertex -6 6.5 0
      vertex -4.65 6.5 0
    endloop
  endfacet
  facet normal 0 0 -1
    outer loop
      vertex -6 -6.5 0
      vertex -4.6194 -4.58658 0
      vertex -4.82963 -5.2059 0
    endloop
  endfacet
  facet normal 0 0 -1
    outer loop
      vertex -6 -6.5 0
      vertex -4.82963 -5.2059 0
      vertex -4.95722 -5.84737 0
    endloop
  endfacet
  facet normal 0 0 -1
    outer loop
      vertex -6 -6.5 0
      vertex -4.95722 -5.84737 0
      vertex -5 -6.5 0
    endloop
  endfacet
  facet normal -0 0 -1
    outer loop
      vertex -4.82963 -7.7941 0
      vertex -5.79555 -8.05291 0
      vertex -4.95722 -7.15263 0
    endloop
  endfacet
  facet normal -0 0 -1
    outer loop
      vertex -4.6194 -4.58658 0
      vertex -6 -6.5 0
      vertex -6 6.5 0
    endloop
  endfacet
  facet normal 0 0 -1
    outer loop
      vertex -5.94867 -7.28316 0
      vertex -4.95722 -7.15263 0
      vertex -5.79555 -8.05291 0
    endloop
  endfacet
  facet normal 0 -0 -1
    outer loop
      vertex -5.94867 7.28316 0
      vertex -4.65 6.5 0
      vertex -6 6.5 0
    endloop
  endfacet
  facet normal -0 0 -1
    outer loop
      vertex -4.95722 -7.15263 0
      vertex -5.94867 -7.28316 0
      vertex -5 -6.5 0
    endloop
  endfacet
  facet normal 0 0 -1
    outer loop
      vertex -4.65 6.5 0
      vertex -5.19615 9.5 0
      vertex -4.76012 10.1526 0
    endloop
  endfacet
  facet normal -0 0 -1
    outer loop
      vertex -5 -6.5 0
      vertex -5.94867 -7.28316 0
      vertex -6 -6.5 0
    endloop
  endfacet
  facet normal 0 0 -1
    outer loop
      vertex -4.65 6.5 0
      vertex -5.54328 8.7961 0
      vertex -5.19615 9.5 0
    endloop
  endfacet
  facet normal 0 0 -1
    outer loop
      vertex -4.65 6.5 0
      vertex -5.79555 8.05291 0
      vertex -5.54328 8.7961 0
    endloop
  endfacet
  facet normal 0 0 -1
    outer loop
      vertex -4.65 6.5 0
      vertex -5.94867 7.28316 0
      vertex -5.79555 8.05291 0
    endloop
  endfacet
  facet normal 0 0 -1
    outer loop
      vertex 5.19615 9.5 0
      vertex 2.325 10.527 0
      vertex 4.76012 10.1526 0
    endloop
  endfacet
  facet normal 0 0 -1
    outer loop
      vertex 4.76012 10.1526 0
      vertex 2.325 10.527 0
      vertex 4.24264 10.7426 0
    endloop
  endfacet
  facet normal -0 0 -1
    outer loop
      vertex 4.24264 10.7426 0
      vertex 2.325 10.527 0
      vertex 3.65257 11.2601 0
    endloop
  endfacet
  facet normal -0 0 -1
    outer loop
      vertex 3.65257 11.2601 0
      vertex 2.325 10.527 0
      vertex 3 11.6962 0
    endloop
  endfacet
  facet normal 0 0 -1
    outer loop
      vertex 2.325 10.527 0
      vertex 2.2961 12.0433 0
      vertex 3 11.6962 0
    endloop
  endfacet
  facet normal 0 0 -1
    outer loop
      vertex 2.325 10.527 0
      vertex 1.55291 12.2956 0
      vertex 2.2961 12.0433 0
    endloop
  endfacet
  facet normal 0 0 -1
    outer loop
      vertex 2.325 10.527 0
      vertex 0.783156 12.4487 0
      vertex 1.55291 12.2956 0
    endloop
  endfacet
  facet normal 0 0 -1
    outer loop
      vertex 2.325 10.527 0
      vertex 0 12.5 0
      vertex 0.783156 12.4487 0
    endloop
  endfacet
  facet normal 0 0 -1
    outer loop
      vertex -2.325 10.527 0
      vertex 0 12.5 0
      vertex 2.325 10.527 0
    endloop
  endfacet
  facet normal 0 0 -1
    outer loop
      vertex 0 12.5 0
      vertex -2.325 10.527 0
      vertex -0.783156 12.4487 0
    endloop
  endfacet
  facet normal 0 0 -1
    outer loop
      vertex -0.783156 12.4487 0
      vertex -2.325 10.527 0
      vertex -1.55291 12.2956 0
    endloop
  endfacet
  facet normal 0 0 -1
    outer loop
      vertex -1.55291 12.2956 0
      vertex -2.325 10.527 0
      vertex -2.2961 12.0433 0
    endloop
  endfacet
  facet normal 0 0 -1
    outer loop
      vertex -2.325 10.527 0
      vertex -3 11.6962 0
      vertex -2.2961 12.0433 0
    endloop
  endfacet
  facet normal 0 0 -1
    outer loop
      vertex -2.325 10.527 0
      vertex -3.65257 11.2601 0
      vertex -3 11.6962 0
    endloop
  endfacet
  facet normal 0 0 -1
    outer loop
      vertex -2.325 10.527 0
      vertex -4.24264 10.7426 0
      vertex -3.65257 11.2601 0
    endloop
  endfacet
  facet normal 0 0 -1
    outer loop
      vertex -4.76012 10.1526 0
      vertex -2.325 10.527 0
      vertex -4.65 6.5 0
    endloop
  endfacet
  facet normal -0 0 -1
    outer loop
      vertex -2.325 10.527 0
      vertex -4.76012 10.1526 0
      vertex -4.24264 10.7426 0
    endloop
  endfacet
  facet normal -1 0 0
    outer loop
      vertex -6 -6.5 0
      vertex -6 6.5 5
      vertex -6 6.5 0
    endloop
  endfacet
  facet normal -1 -0 0
    outer loop
      vertex -6 6.5 5
      vertex -6 -6.5 0
      vertex -6 -6.5 5
    endloop
  endfacet
  facet normal 0 0 1
    outer loop
      vertex 2.6 6.5 5
      vertex 6 6.5 5
      vertex 5.94867 7.28316 5
    endloop
  endfacet
  facet normal 0 0 1
    outer loop
      vertex 1.83848 4.66152 5
      vertex 6 6.5 5
      vertex 2.06272 4.91722 5
    endloop
  endfacet
  facet normal 0 0 1
    outer loop
      vertex 2.57776 6.83937 5
      vertex 5.94867 7.28316 5
      vertex 5.79555 8.05291 5
    endloop
  endfacet
  facet normal 0 0 1
    outer loop
      vertex 6 6.5 5
      vertex 1.83848 4.66152 5
      vertex 6 -6.5 5
    endloop
  endfacet
  facet normal 0 0 1
    outer loop
      vertex 2.51141 7.17293 5
      vertex 5.79555 8.05291 5
      vertex 5.54328 8.7961 5
    endloop
  endfacet
  facet normal 0 0 1
    outer loop
      vertex 6 6.5 5
      vertex 2.25167 5.2 5
      vertex 2.06272 4.91722 5
    endloop
  endfacet
  facet normal 0 0 1
    outer loop
      vertex 2.40209 7.49498 5
      vertex 5.54328 8.7961 5
      vertex 5.19615 9.5 5
    endloop
  endfacet
  facet normal 0 0 1
    outer loop
      vertex 6 6.5 5
      vertex 2.40209 5.50502 5
      vertex 2.25167 5.2 5
    endloop
  endfacet
  facet normal 0 0 1
    outer loop
      vertex 2.25167 7.8 5
      vertex 5.19615 9.5 5
      vertex 4.76012 10.1526 5
    endloop
  endfacet
  facet normal 0 0 1
    outer loop
      vertex 6 6.5 5
      vertex 2.51141 5.82707 5
      vertex 2.40209 5.50502 5
    endloop
  endfacet
  facet normal 0 0 1
    outer loop
      vertex 2.06272 8.08278 5
      vertex 4.76012 10.1526 5
      vertex 4.24264 10.7426 5
    endloop
  endfacet
  facet normal -0 0 1
    outer loop
      vertex 1.58278 4.43728 5
      vertex 6 -6.5 5
      vertex 1.83848 4.66152 5
    endloop
  endfacet
  facet normal 0 0 1
    outer loop
      vertex 1.83848 8.33848 5
      vertex 4.24264 10.7426 5
      vertex 3.65257 11.2601 5
    endloop
  endfacet
  facet normal 0 0 1
    outer loop
      vertex 6 6.5 5
      vertex 2.57776 6.16063 5
      vertex 2.51141 5.82707 5
    endloop
  endfacet
  facet normal 0 0 1
    outer loop
      vertex 1.58278 8.56272 5
      vertex 3.65257 11.2601 5
      vertex 3 11.6962 5
    endloop
  endfacet
  facet normal 0 0 1
    outer loop
      vertex 6 6.5 5
      vertex 2.6 6.5 5
      vertex 2.57776 6.16063 5
    endloop
  endfacet
  facet normal -0 0 1
    outer loop
      vertex 1.3 4.24833 5
      vertex 6 -6.5 5
      vertex 1.58278 4.43728 5
    endloop
  endfacet
  facet normal 0 0 1
    outer loop
      vertex 5.94867 7.28316 5
      vertex 2.57776 6.83937 5
      vertex 2.6 6.5 5
    endloop
  endfacet
  facet normal 0 0 1
    outer loop
      vertex 5.79555 8.05291 5
      vertex 2.51141 7.17293 5
      vertex 2.57776 6.83937 5
    endloop
  endfacet
  facet normal 0 0 1
    outer loop
      vertex 5.54328 8.7961 5
      vertex 2.40209 7.49498 5
      vertex 2.51141 7.17293 5
    endloop
  endfacet
  facet normal 0 0 1
    outer loop
      vertex 1.3 8.75167 5
      vertex 3 11.6962 5
      vertex 2.2961 12.0433 5
    endloop
  endfacet
  facet normal 0 0 1
    outer loop
      vertex 5.19615 9.5 5
      vertex 2.25167 7.8 5
      vertex 2.40209 7.49498 5
    endloop
  endfacet
  facet normal 0 0 1
    outer loop
      vertex 4.76012 10.1526 5
      vertex 2.06272 8.08278 5
      vertex 2.25167 7.8 5
    endloop
  endfacet
  facet normal 0 0 1
    outer loop
      vertex 4.24264 10.7426 5
      vertex 1.83848 8.33848 5
      vertex 2.06272 8.08278 5
    endloop
  endfacet
  facet normal 0 0 1
    outer loop
      vertex 3.65257 11.2601 5
      vertex 1.58278 8.56272 5
      vertex 1.83848 8.33848 5
    endloop
  endfacet
  facet normal 0 0 1
    outer loop
      vertex 0.994976 8.90209 5
      vertex 2.2961 12.0433 5
      vertex 1.55291 12.2956 5
    endloop
  endfacet
  facet normal 0 0 1
    outer loop
      vertex 3 11.6962 5
      vertex 1.3 8.75167 5
      vertex 1.58278 8.56272 5
    endloop
  endfacet
  facet normal 0 0 1
    outer loop
      vertex 2.2961 12.0433 5
      vertex 0.994976 8.90209 5
      vertex 1.3 8.75167 5
    endloop
  endfacet
  facet normal 0 0 1
    outer loop
      vertex 0.672929 9.01141 5
      vertex 1.55291 12.2956 5
      vertex 0.783156 12.4487 5
    endloop
  endfacet
  facet normal 0 0 1
    outer loop
      vertex 1.55291 12.2956 5
      vertex 0.672929 9.01141 5
      vertex 0.994976 8.90209 5
    endloop
  endfacet
  facet normal 0 0 1
    outer loop
      vertex 0.783156 12.4487 5
      vertex 0.339368 9.07776 5
      vertex 0.672929 9.01141 5
    endloop
  endfacet
  facet normal 0 0 1
    outer loop
      vertex 0 12.5 5
      vertex 0.339368 9.07776 5
      vertex 0.783156 12.4487 5
    endloop
  endfacet
  facet normal 0 0 1
    outer loop
      vertex 0 12.5 5
      vertex 0 9.1 5
      vertex 0.339368 9.07776 5
    endloop
  endfacet
  facet normal 0 0 1
    outer loop
      vertex 0 12.5 5
      vertex -0.339368 9.07776 5
      vertex 0 9.1 5
    endloop
  endfacet
  facet normal -0 0 1
    outer loop
      vertex -0.783156 12.4487 5
      vertex -0.339368 9.07776 5
      vertex 0 12.5 5
    endloop
  endfacet
  facet normal 0 0 1
    outer loop
      vertex -0.339368 9.07776 5
      vertex -0.783156 12.4487 5
      vertex -0.672929 9.01141 5
    endloop
  endfacet
  facet normal -0 0 1
    outer loop
      vertex -1.55291 12.2956 5
      vertex -0.672929 9.01141 5
      vertex -0.783156 12.4487 5
    endloop
  endfacet
  facet normal 0 0 1
    outer loop
      vertex -0.672929 9.01141 5
      vertex -1.55291 12.2956 5
      vertex -0.994976 8.90209 5
    endloop
  endfacet
  facet normal -0 0 1
    outer loop
      vertex -2.2961 12.0433 5
      vertex -0.994976 8.90209 5
      vertex -1.55291 12.2956 5
    endloop
  endfacet
  facet normal 0 0 1
    outer loop
      vertex -0.994976 8.90209 5
      vertex -2.2961 12.0433 5
      vertex -1.3 8.75167 5
    endloop
  endfacet
  facet normal -0 0 1
    outer loop
      vertex -3 11.6962 5
      vertex -1.3 8.75167 5
      vertex -2.2961 12.0433 5
    endloop
  endfacet
  facet normal 0 0 1
    outer loop
      vertex -1.3 8.75167 5
      vertex -3 11.6962 5
      vertex -1.58278 8.56272 5
    endloop
  endfacet
  facet normal -0 0 1
    outer loop
      vertex -3.65257 11.2601 5
      vertex -1.58278 8.56272 5
      vertex -3 11.6962 5
    endloop
  endfacet
  facet normal 0 0 1
    outer loop
      vertex -1.58278 8.56272 5
      vertex -3.65257 11.2601 5
      vertex -1.83848 8.33848 5
    endloop
  endfacet
  facet normal -0 0 1
    outer loop
      vertex -4.24264 10.7426 5
      vertex -1.83848 8.33848 5
      vertex -3.65257 11.2601 5
    endloop
  endfacet
  facet normal 0 0 1
    outer loop
      vertex -1.83848 8.33848 5
      vertex -4.24264 10.7426 5
      vertex -2.06272 8.08278 5
    endloop
  endfacet
  facet normal -0 0 1
    outer loop
      vertex -4.76012 10.1526 5
      vertex -2.06272 8.08278 5
      vertex -4.24264 10.7426 5
    endloop
  endfacet
  facet normal 0 0 1
    outer loop
      vertex -2.06272 8.08278 5
      vertex -4.76012 10.1526 5
      vertex -2.25167 7.8 5
    endloop
  endfacet
  facet normal -0 0 1
    outer loop
      vertex -5.19615 9.5 5
      vertex -2.25167 7.8 5
      vertex -4.76012 10.1526 5
    endloop
  endfacet
  facet normal -0 0 1
    outer loop
      vertex 0.994976 4.09791 5
      vertex 6 -6.5 5
      vertex 1.3 4.24833 5
    endloop
  endfacet
  facet normal -0 0 1
    outer loop
      vertex 0.672929 3.98859 5
      vertex 6 -6.5 5
      vertex 0.994976 4.09791 5
    endloop
  endfacet
  facet normal -0 0 1
    outer loop
      vertex 0.339368 3.92224 5
      vertex 6 -6.5 5
      vertex 0.672929 3.98859 5
    endloop
  endfacet
  facet normal -0 0 1
    outer loop
      vertex 0 3.9 5
      vertex 6 -6.5 5
      vertex 0.339368 3.92224 5
    endloop
  endfacet
  facet normal -0 0 1
    outer loop
      vertex -6 -6.5 5
      vertex 6 -6.5 5
      vertex 0 3.9 5
    endloop
  endfacet
  facet normal 0 0 1
    outer loop
      vertex 6 -6.5 5
      vertex -6 -6.5 5
      vertex 5.94867 -7.28316 5
    endloop
  endfacet
  facet normal 0 0 1
    outer loop
      vertex 5.79555 -8.05291 5
      vertex -6 -6.5 5
      vertex 5.54328 -8.7961 5
    endloop
  endfacet
  facet normal 0 0 1
    outer loop
      vertex 5.54328 -8.7961 5
      vertex -6 -6.5 5
      vertex 5.19615 -9.5 5
    endloop
  endfacet
  facet normal 0 0 1
    outer loop
      vertex 5.19615 -9.5 5
      vertex -6 -6.5 5
      vertex 4.76012 -10.1526 5
    endloop
  endfacet
  facet normal 0 0 1
    outer loop
      vertex 4.76012 -10.1526 5
      vertex -6 -6.5 5
      vertex 4.24264 -10.7426 5
    endloop
  endfacet
  facet normal 0 0 1
    outer loop
      vertex 4.24264 -10.7426 5
      vertex -6 -6.5 5
      vertex 3.65257 -11.2601 5
    endloop
  endfacet
  facet normal 0 0 1
    outer loop
      vertex 3.65257 -11.2601 5
      vertex -6 -6.5 5
      vertex 3 -11.6962 5
    endloop
  endfacet
  facet normal 0 0 1
    outer loop
      vertex 3 -11.6962 5
      vertex -6 -6.5 5
      vertex 2.2961 -12.0433 5
    endloop
  endfacet
  facet normal 0 0 1
    outer loop
      vertex 2.2961 -12.0433 5
      vertex -6 -6.5 5
      vertex 1.55291 -12.2956 5
    endloop
  endfacet
  facet normal 0 0 1
    outer loop
      vertex 5.94867 -7.28316 5
      vertex -6 -6.5 5
      vertex 5.79555 -8.05291 5
    endloop
  endfacet
  facet normal 0 0 1
    outer loop
      vertex 1.55291 -12.2956 5
      vertex -6 -6.5 5
      vertex 0.783156 -12.4487 5
    endloop
  endfacet
  facet normal 0 0 1
    outer loop
      vertex -6 -6.5 5
      vertex 0 3.9 5
      vertex -0.339368 3.92224 5
    endloop
  endfacet
  facet normal 0 0 1
    outer loop
      vertex -6 -6.5 5
      vertex -0.339368 3.92224 5
      vertex -0.672929 3.98859 5
    endloop
  endfacet
  facet normal 0 0 1
    outer loop
      vertex 0.783156 -12.4487 5
      vertex -6 -6.5 5
      vertex 0 -12.5 5
    endloop
  endfacet
  facet normal 0 0 1
    outer loop
      vertex -6 -6.5 5
      vertex -0.672929 3.98859 5
      vertex -0.994976 4.09791 5
    endloop
  endfacet
  facet normal 0 0 1
    outer loop
      vertex -6 -6.5 5
      vertex -0.994976 4.09791 5
      vertex -1.3 4.24833 5
    endloop
  endfacet
  facet normal 0 0 1
    outer loop
      vertex 0 -12.5 5
      vertex -6 -6.5 5
      vertex -0.783156 -12.4487 5
    endloop
  endfacet
  facet normal 0 0 1
    outer loop
      vertex -6 -6.5 5
      vertex -1.3 4.24833 5
      vertex -1.58278 4.43728 5
    endloop
  endfacet
  facet normal 0 0 1
    outer loop
      vertex -6 -6.5 5
      vertex -1.58278 4.43728 5
      vertex -1.83848 4.66152 5
    endloop
  endfacet
  facet normal 0 0 1
    outer loop
      vertex -6 6.5 5
      vertex -1.83848 4.66152 5
      vertex -2.06272 4.91722 5
    endloop
  endfacet
  facet normal 0 0 1
    outer loop
      vertex -6 6.5 5
      vertex -2.06272 4.91722 5
      vertex -2.25167 5.2 5
    endloop
  endfacet
  facet normal 0 0 1
    outer loop
      vertex -0.783156 -12.4487 5
      vertex -6 -6.5 5
      vertex -1.55291 -12.2956 5
    endloop
  endfacet
  facet normal 0 0 1
    outer loop
      vertex -6 6.5 5
      vertex -2.25167 5.2 5
      vertex -2.40209 5.50502 5
    endloop
  endfacet
  facet normal 0 0 1
    outer loop
      vertex -6 6.5 5
      vertex -2.40209 5.50502 5
      vertex -2.51141 5.82707 5
    endloop
  endfacet
  facet normal 0 0 1
    outer loop
      vertex -6 6.5 5
      vertex -2.51141 5.82707 5
      vertex -2.57776 6.16063 5
    endloop
  endfacet
  facet normal -0 0 1
    outer loop
      vertex -6 6.5 5
      vertex -2.57776 6.16063 5
      vertex -2.6 6.5 5
    endloop
  endfacet
  facet normal 0 0 1
    outer loop
      vertex -2.25167 7.8 5
      vertex -5.19615 9.5 5
      vertex -2.40209 7.49498 5
    endloop
  endfacet
  facet normal 0 0 1
    outer loop
      vertex -1.83848 4.66152 5
      vertex -6 6.5 5
      vertex -6 -6.5 5
    endloop
  endfacet
  facet normal -0 0 1
    outer loop
      vertex -5.54328 8.7961 5
      vertex -2.40209 7.49498 5
      vertex -5.19615 9.5 5
    endloop
  endfacet
  facet normal 0 0 1
    outer loop
      vertex -1.55291 -12.2956 5
      vertex -6 -6.5 5
      vertex -2.2961 -12.0433 5
    endloop
  endfacet
  facet normal 0 0 1
    outer loop
      vertex -2.40209 7.49498 5
      vertex -5.54328 8.7961 5
      vertex -2.51141 7.17293 5
    endloop
  endfacet
  facet normal 0 0 1
    outer loop
      vertex -2.2961 -12.0433 5
      vertex -6 -6.5 5
      vertex -3 -11.6962 5
    endloop
  endfacet
  facet normal -0 0 1
    outer loop
      vertex -5.79555 8.05291 5
      vertex -2.51141 7.17293 5
      vertex -5.54328 8.7961 5
    endloop
  endfacet
  facet normal 0 0 1
    outer loop
      vertex -3 -11.6962 5
      vertex -6 -6.5 5
      vertex -3.65257 -11.2601 5
    endloop
  endfacet
  facet normal 0 0 1
    outer loop
      vertex -2.51141 7.17293 5
      vertex -5.79555 8.05291 5
      vertex -2.57776 6.83937 5
    endloop
  endfacet
  facet normal 0 0 1
    outer loop
      vertex -3.65257 -11.2601 5
      vertex -6 -6.5 5
      vertex -4.24264 -10.7426 5
    endloop
  endfacet
  facet normal -0 0 1
    outer loop
      vertex -5.94867 7.28316 5
      vertex -2.57776 6.83937 5
      vertex -5.79555 8.05291 5
    endloop
  endfacet
  facet normal 0 0 1
    outer loop
      vertex -4.24264 -10.7426 5
      vertex -6 -6.5 5
      vertex -4.76012 -10.1526 5
    endloop
  endfacet
  facet normal 0 0 1
    outer loop
      vertex -2.57776 6.83937 5
      vertex -5.94867 7.28316 5
      vertex -2.6 6.5 5
    endloop
  endfacet
  facet normal 0 0 1
    outer loop
      vertex -4.76012 -10.1526 5
      vertex -6 -6.5 5
      vertex -5.19615 -9.5 5
    endloop
  endfacet
  facet normal 0 0 1
    outer loop
      vertex -2.6 6.5 5
      vertex -5.94867 7.28316 5
      vertex -6 6.5 5
    endloop
  endfacet
  facet normal 0 0 1
    outer loop
      vertex -5.19615 -9.5 5
      vertex -6 -6.5 5
      vertex -5.54328 -8.7961 5
    endloop
  endfacet
  facet normal 0 0 1
    outer loop
      vertex -5.54328 -8.7961 5
      vertex -6 -6.5 5
      vertex -5.79555 -8.05291 5
    endloop
  endfacet
  facet normal 0 0 1
    outer loop
      vertex -5.79555 -8.05291 5
      vertex -6 -6.5 5
      vertex -5.94867 -7.28316 5
    endloop
  endfacet
  facet normal -0.94693 0.321439 0
    outer loop
      vertex -5.79555 8.05291 0
      vertex -5.54328 8.7961 5
      vertex -5.54328 8.7961 0
    endloop
  endfacet
  facet normal -0.94693 0.321439 0
    outer loop
      vertex -5.54328 8.7961 5
      vertex -5.79555 8.05291 0
      vertex -5.79555 8.05291 5
    endloop
  endfacet
  facet normal -0.831469 0.555571 0
    outer loop
      vertex -5.19615 9.5 0
      vertex -4.76012 10.1526 5
      vertex -4.76012 10.1526 0
    endloop
  endfacet
  facet normal -0.831469 0.555571 0
    outer loop
      vertex -4.76012 10.1526 5
      vertex -5.19615 9.5 0
      vertex -5.19615 9.5 5
    endloop
  endfacet
  facet normal 0.831469 -0.555571 0
    outer loop
      vertex 4.76012 -10.1526 5
      vertex 5.19615 -9.5 0
      vertex 5.19615 -9.5 5
    endloop
  endfacet
  facet normal 0.831469 -0.555571 0
    outer loop
      vertex 5.19615 -9.5 0
      vertex 4.76012 -10.1526 5
      vertex 4.76012 -10.1526 0
    endloop
  endfacet
  facet normal 0.94693 -0.321439 0
    outer loop
      vertex 5.54328 -8.7961 5
      vertex 5.79555 -8.05291 0
      vertex 5.79555 -8.05291 5
    endloop
  endfacet
  facet normal 0.94693 -0.321439 0
    outer loop
      vertex 5.79555 -8.05291 0
      vertex 5.54328 -8.7961 5
      vertex 5.54328 -8.7961 0
    endloop
  endfacet
  facet normal 0.896873 0.442289 0
    outer loop
      vertex 5.54328 8.7961 5
      vertex 5.19615 9.5 0
      vertex 5.19615 9.5 5
    endloop
  endfacet
  facet normal 0.896873 0.442289 0
    outer loop
      vertex 5.19615 9.5 0
      vertex 5.54328 8.7961 5
      vertex 5.54328 8.7961 0
    endloop
  endfacet
  facet normal 0.831469 0.555571 0
    outer loop
      vertex 5.19615 9.5 5
      vertex 4.76012 10.1526 0
      vertex 4.76012 10.1526 5
    endloop
  endfacet
  facet normal 0.831469 0.555571 0
    outer loop
      vertex 4.76012 10.1526 0
      vertex 5.19615 9.5 5
      vertex 5.19615 9.5 0
    endloop
  endfacet
  facet normal 0.555571 0.831469 -0
    outer loop
      vertex 3.65257 11.2601 0
      vertex 3 11.6962 5
      vertex 3.65257 11.2601 5
    endloop
  endfacet
  facet normal 0.555571 0.831469 0
    outer loop
      vertex 3 11.6962 5
      vertex 3.65257 11.2601 0
      vertex 3 11.6962 0
    endloop
  endfacet
  facet normal 0.442289 0.896873 -0
    outer loop
      vertex 3 11.6962 0
      vertex 2.2961 12.0433 5
      vertex 3 11.6962 5
    endloop
  endfacet
  facet normal 0.442289 0.896873 0
    outer loop
      vertex 2.2961 12.0433 5
      vertex 3 11.6962 0
      vertex 2.2961 12.0433 0
    endloop
  endfacet
  facet normal 0.659345 0.75184 -0
    outer loop
      vertex 4.24264 10.7426 0
      vertex 3.65257 11.2601 5
      vertex 4.24264 10.7426 5
    endloop
  endfacet
  facet normal 0.659345 0.75184 0
    outer loop
      vertex 3.65257 11.2601 5
      vertex 4.24264 10.7426 0
      vertex 3.65257 11.2601 0
    endloop
  endfacet
  facet normal -0.55557 0.83147 0
    outer loop
      vertex -3 11.6962 0
      vertex -3.65257 11.2601 5
      vertex -3 11.6962 5
    endloop
  endfacet
  facet normal -0.55557 0.83147 0
    outer loop
      vertex -3.65257 11.2601 5
      vertex -3 11.6962 0
      vertex -3.65257 11.2601 0
    endloop
  endfacet
  facet normal -0.442289 0.896873 0
    outer loop
      vertex -2.2961 12.0433 0
      vertex -3 11.6962 5
      vertex -2.2961 12.0433 5
    endloop
  endfacet
  facet normal -0.442289 0.896873 0
    outer loop
      vertex -3 11.6962 5
      vertex -2.2961 12.0433 0
      vertex -3 11.6962 0
    endloop
  endfacet
  facet normal -0.659345 0.75184 0
    outer loop
      vertex -3.65257 11.2601 0
      vertex -4.24264 10.7426 5
      vertex -3.65257 11.2601 5
    endloop
  endfacet
  facet normal -0.659345 0.75184 0
    outer loop
      vertex -4.24264 10.7426 5
      vertex -3.65257 11.2601 0
      vertex -4.24264 10.7426 0
    endloop
  endfacet
  facet normal 0.19509 0.980785 -0
    outer loop
      vertex 1.55291 12.2956 0
      vertex 0.783156 12.4487 5
      vertex 1.55291 12.2956 5
    endloop
  endfacet
  facet normal 0.19509 0.980785 0
    outer loop
      vertex 0.783156 12.4487 5
      vertex 1.55291 12.2956 0
      vertex 0.783156 12.4487 0
    endloop
  endfacet
  facet normal -0.997859 -0.065404 0
    outer loop
      vertex -5.94867 -7.28316 0
      vertex -6 -6.5 5
      vertex -6 -6.5 0
    endloop
  endfacet
  facet normal -0.997859 -0.065404 0
    outer loop
      vertex -6 -6.5 5
      vertex -5.94867 -7.28316 0
      vertex -5.94867 -7.28316 5
    endloop
  endfacet
  facet normal 1 -0 0
    outer loop
      vertex 6 -6.5 5
      vertex 6 6.5 0
      vertex 6 6.5 5
    endloop
  endfacet
  facet normal 1 0 0
    outer loop
      vertex 6 6.5 0
      vertex 6 -6.5 5
      vertex 6 -6.5 0
    endloop
  endfacet
  facet normal 0.896873 -0.442289 0
    outer loop
      vertex 5.19615 -9.5 5
      vertex 5.54328 -8.7961 0
      vertex 5.54328 -8.7961 5
    endloop
  endfacet
  facet normal 0.896873 -0.442289 0
    outer loop
      vertex 5.54328 -8.7961 0
      vertex 5.19615 -9.5 5
      vertex 5.19615 -9.5 0
    endloop
  endfacet
  facet normal 0.980785 -0.19509 0
    outer loop
      vertex 5.79555 -8.05291 5
      vertex 5.94867 -7.28316 0
      vertex 5.94867 -7.28316 5
    endloop
  endfacet
  facet normal 0.980785 -0.19509 0
    outer loop
      vertex 5.94867 -7.28316 0
      vertex 5.79555 -8.05291 5
      vertex 5.79555 -8.05291 0
    endloop
  endfacet
  facet normal -0.19509 -0.980785 0
    outer loop
      vertex -1.55291 -12.2956 0
      vertex -0.783156 -12.4487 5
      vertex -1.55291 -12.2956 5
    endloop
  endfacet
  facet normal -0.19509 -0.980785 -0
    outer loop
      vertex -0.783156 -12.4487 5
      vertex -1.55291 -12.2956 0
      vertex -0.783156 -12.4487 0
    endloop
  endfacet
  facet normal 0.442289 -0.896873 0
    outer loop
      vertex 2.2961 -12.0433 0
      vertex 3 -11.6962 5
      vertex 2.2961 -12.0433 5
    endloop
  endfacet
  facet normal 0.442289 -0.896873 0
    outer loop
      vertex 3 -11.6962 5
      vertex 2.2961 -12.0433 0
      vertex 3 -11.6962 0
    endloop
  endfacet
  facet normal 0.659345 -0.75184 0
    outer loop
      vertex 3.65257 -11.2601 0
      vertex 4.24264 -10.7426 5
      vertex 3.65257 -11.2601 5
    endloop
  endfacet
  facet normal 0.659345 -0.75184 0
    outer loop
      vertex 4.24264 -10.7426 5
      vertex 3.65257 -11.2601 0
      vertex 4.24264 -10.7426 0
    endloop
  endfacet
  facet normal -0.659345 -0.75184 0
    outer loop
      vertex -4.24264 -10.7426 0
      vertex -3.65257 -11.2601 5
      vertex -4.24264 -10.7426 5
    endloop
  endfacet
  facet normal -0.659345 -0.75184 -0
    outer loop
      vertex -3.65257 -11.2601 5
      vertex -4.24264 -10.7426 0
      vertex -3.65257 -11.2601 0
    endloop
  endfacet
  facet normal -0.442289 -0.896873 0
    outer loop
      vertex -3 -11.6962 0
      vertex -2.2961 -12.0433 5
      vertex -3 -11.6962 5
    endloop
  endfacet
  facet normal -0.442289 -0.896873 -0
    outer loop
      vertex -2.2961 -12.0433 5
      vertex -3 -11.6962 0
      vertex -2.2961 -12.0433 0
    endloop
  endfacet
  facet normal -0.980785 -0.19509 0
    outer loop
      vertex -5.79555 -8.05291 0
      vertex -5.94867 -7.28316 5
      vertex -5.94867 -7.28316 0
    endloop
  endfacet
  facet normal -0.980785 -0.19509 0
    outer loop
      vertex -5.94867 -7.28316 5
      vertex -5.79555 -8.05291 0
      vertex -5.79555 -8.05291 5
    endloop
  endfacet
  facet normal 0.94693 0.321439 0
    outer loop
      vertex 5.79555 8.05291 5
      vertex 5.54328 8.7961 0
      vertex 5.54328 8.7961 5
    endloop
  endfacet
  facet normal 0.94693 0.321439 0
    outer loop
      vertex 5.54328 8.7961 0
      vertex 5.79555 8.05291 5
      vertex 5.79555 8.05291 0
    endloop
  endfacet
  facet normal 0.980785 0.19509 0
    outer loop
      vertex 5.94867 7.28316 5
      vertex 5.79555 8.05291 0
      vertex 5.79555 8.05291 5
    endloop
  endfacet
  facet normal 0.980785 0.19509 0
    outer loop
      vertex 5.79555 8.05291 0
      vertex 5.94867 7.28316 5
      vertex 5.94867 7.28316 0
    endloop
  endfacet
  facet normal -0.0654041 0.997859 0
    outer loop
      vertex 0 12.5 0
      vertex -0.783156 12.4487 5
      vertex 0 12.5 5
    endloop
  endfacet
  facet normal -0.0654041 0.997859 0
    outer loop
      vertex -0.783156 12.4487 5
      vertex 0 12.5 0
      vertex -0.783156 12.4487 0
    endloop
  endfacet
  facet normal -0.19509 0.980785 0
    outer loop
      vertex -0.783156 12.4487 0
      vertex -1.55291 12.2956 5
      vertex -0.783156 12.4487 5
    endloop
  endfacet
  facet normal -0.19509 0.980785 0
    outer loop
      vertex -1.55291 12.2956 5
      vertex -0.783156 12.4487 0
      vertex -1.55291 12.2956 0
    endloop
  endfacet
  facet normal -0.0654041 -0.997859 0
    outer loop
      vertex -0.783156 -12.4487 0
      vertex 0 -12.5 5
      vertex -0.783156 -12.4487 5
    endloop
  endfacet
  facet normal -0.0654041 -0.997859 -0
    outer loop
      vertex 0 -12.5 5
      vertex -0.783156 -12.4487 0
      vertex 0 -12.5 0
    endloop
  endfacet
  facet normal 0.321439 -0.94693 0
    outer loop
      vertex 1.55291 -12.2956 0
      vertex 2.2961 -12.0433 5
      vertex 1.55291 -12.2956 5
    endloop
  endfacet
  facet normal 0.321439 -0.94693 0
    outer loop
      vertex 2.2961 -12.0433 5
      vertex 1.55291 -12.2956 0
      vertex 2.2961 -12.0433 0
    endloop
  endfacet
  facet normal 0.0654041 -0.997859 0
    outer loop
      vertex 0 -12.5 0
      vertex 0.783156 -12.4487 5
      vertex 0 -12.5 5
    endloop
  endfacet
  facet normal 0.0654041 -0.997859 0
    outer loop
      vertex 0.783156 -12.4487 5
      vertex 0 -12.5 0
      vertex 0.783156 -12.4487 0
    endloop
  endfacet
  facet normal 0.555571 -0.831469 0
    outer loop
      vertex 3 -11.6962 0
      vertex 3.65257 -11.2601 5
      vertex 3 -11.6962 5
    endloop
  endfacet
  facet normal 0.555571 -0.831469 0
    outer loop
      vertex 3.65257 -11.2601 5
      vertex 3 -11.6962 0
      vertex 3.65257 -11.2601 0
    endloop
  endfacet
  facet normal -0.555571 -0.831469 0
    outer loop
      vertex -3.65257 -11.2601 0
      vertex -3 -11.6962 5
      vertex -3.65257 -11.2601 5
    endloop
  endfacet
  facet normal -0.555571 -0.831469 -0
    outer loop
      vertex -3 -11.6962 5
      vertex -3.65257 -11.2601 0
      vertex -3 -11.6962 0
    endloop
  endfacet
  facet normal -0.896873 -0.442289 0
    outer loop
      vertex -5.19615 -9.5 0
      vertex -5.54328 -8.7961 5
      vertex -5.54328 -8.7961 0
    endloop
  endfacet
  facet normal -0.896873 -0.442289 0
    outer loop
      vertex -5.54328 -8.7961 5
      vertex -5.19615 -9.5 0
      vertex -5.19615 -9.5 5
    endloop
  endfacet
  facet normal -0.94693 -0.321439 0
    outer loop
      vertex -5.54328 -8.7961 0
      vertex -5.79555 -8.05291 5
      vertex -5.79555 -8.05291 0
    endloop
  endfacet
  facet normal -0.94693 -0.321439 0
    outer loop
      vertex -5.79555 -8.05291 5
      vertex -5.54328 -8.7961 0
      vertex -5.54328 -8.7961 5
    endloop
  endfacet
  facet normal 0.19509 -0.980785 0
    outer loop
      vertex 0.783156 -12.4487 0
      vertex 1.55291 -12.2956 5
      vertex 0.783156 -12.4487 5
    endloop
  endfacet
  facet normal 0.19509 -0.980785 0
    outer loop
      vertex 1.55291 -12.2956 5
      vertex 0.783156 -12.4487 0
      vertex 1.55291 -12.2956 0
    endloop
  endfacet
  facet normal -0.83147 -0.55557 0
    outer loop
      vertex -4.76012 -10.1526 0
      vertex -5.19615 -9.5 5
      vertex -5.19615 -9.5 0
    endloop
  endfacet
  facet normal -0.83147 -0.55557 0
    outer loop
      vertex -5.19615 -9.5 5
      vertex -4.76012 -10.1526 0
      vertex -4.76012 -10.1526 5
    endloop
  endfacet
  facet normal -0.997859 -0.0654037 0
    outer loop
      vertex 5 -6.5 0
      vertex 4.95722 -5.84737 3
      vertex 4.95722 -5.84737 0
    endloop
  endfacet
  facet normal -0.997859 -0.0654037 0
    outer loop
      vertex 4.95722 -5.84737 3
      vertex 5 -6.5 0
      vertex 5 -6.5 3
    endloop
  endfacet
  facet normal 0.997859 -0.0654038 0
    outer loop
      vertex -5 -6.5 3
      vertex -4.95722 -5.84737 0
      vertex -4.95722 -5.84737 3
    endloop
  endfacet
  facet normal 0.997859 -0.0654038 0
    outer loop
      vertex -4.95722 -5.84737 0
      vertex -5 -6.5 3
      vertex -5 -6.5 0
    endloop
  endfacet
  facet normal 0.0654023 -0.997859 0
    outer loop
      vertex -0.652631 -1.54278 0
      vertex 0 -1.5 3
      vertex -0.652631 -1.54278 3
    endloop
  endfacet
  facet normal 0.0654023 -0.997859 0
    outer loop
      vertex 0 -1.5 3
      vertex -0.652631 -1.54278 0
      vertex 0 -1.5 0
    endloop
  endfacet
  facet normal 0.0654038 0.997859 -0
    outer loop
      vertex 0 -11.5 0
      vertex -0.652631 -11.4572 3
      vertex 0 -11.5 3
    endloop
  endfacet
  facet normal 0.0654038 0.997859 0
    outer loop
      vertex -0.652631 -11.4572 3
      vertex 0 -11.5 0
      vertex -0.652631 -11.4572 0
    endloop
  endfacet
  facet normal -0.659345 -0.75184 0
    outer loop
      vertex 3.04381 -2.53323 0
      vertex 3.53553 -2.96447 3
      vertex 3.04381 -2.53323 3
    endloop
  endfacet
  facet normal -0.659345 -0.75184 -0
    outer loop
      vertex 3.53553 -2.96447 3
      vertex 3.04381 -2.53323 0
      vertex 3.53553 -2.96447 0
    endloop
  endfacet
  facet normal 0.659345 -0.75184 0
    outer loop
      vertex -3.53553 -2.96447 0
      vertex -3.04381 -2.53323 3
      vertex -3.53553 -2.96447 3
    endloop
  endfacet
  facet normal 0.659345 -0.75184 0
    outer loop
      vertex -3.04381 -2.53323 3
      vertex -3.53553 -2.96447 0
      vertex -3.04381 -2.53323 0
    endloop
  endfacet
  facet normal 0.32144 -0.94693 0
    outer loop
      vertex -1.91342 -1.8806 0
      vertex -1.2941 -1.67037 3
      vertex -1.91342 -1.8806 3
    endloop
  endfacet
  facet normal 0.32144 -0.94693 0
    outer loop
      vertex -1.2941 -1.67037 3
      vertex -1.91342 -1.8806 0
      vertex -1.2941 -1.67037 0
    endloop
  endfacet
  facet normal -0.896873 -0.442289 0
    outer loop
      vertex 4.6194 -4.58658 0
      vertex 4.33013 -4 3
      vertex 4.33013 -4 0
    endloop
  endfacet
  facet normal -0.896873 -0.442289 0
    outer loop
      vertex 4.33013 -4 3
      vertex 4.6194 -4.58658 0
      vertex 4.6194 -4.58658 3
    endloop
  endfacet
  facet normal -0.980785 -0.19509 0
    outer loop
      vertex 4.95722 -5.84737 0
      vertex 4.82963 -5.2059 3
      vertex 4.82963 -5.2059 0
    endloop
  endfacet
  facet normal -0.980785 -0.19509 0
    outer loop
      vertex 4.82963 -5.2059 3
      vertex 4.95722 -5.84737 0
      vertex 4.95722 -5.84737 3
    endloop
  endfacet
  facet normal -0.32144 -0.94693 0
    outer loop
      vertex 1.2941 -1.67037 0
      vertex 1.91342 -1.8806 3
      vertex 1.2941 -1.67037 3
    endloop
  endfacet
  facet normal -0.32144 -0.94693 -0
    outer loop
      vertex 1.91342 -1.8806 3
      vertex 1.2941 -1.67037 0
      vertex 1.91342 -1.8806 0
    endloop
  endfacet
  facet normal -0.19509 -0.980785 0
    outer loop
      vertex 0.652631 -1.54278 0
      vertex 1.2941 -1.67037 3
      vertex 0.652631 -1.54278 3
    endloop
  endfacet
  facet normal -0.19509 -0.980785 -0
    outer loop
      vertex 1.2941 -1.67037 3
      vertex 0.652631 -1.54278 0
      vertex 1.2941 -1.67037 0
    endloop
  endfacet
  facet normal -0.55557 -0.831469 0
    outer loop
      vertex 2.5 -2.16987 0
      vertex 3.04381 -2.53323 3
      vertex 2.5 -2.16987 3
    endloop
  endfacet
  facet normal -0.55557 -0.831469 -0
    outer loop
      vertex 3.04381 -2.53323 3
      vertex 2.5 -2.16987 0
      vertex 3.04381 -2.53323 0
    endloop
  endfacet
  facet normal 0.83147 -0.55557 0
    outer loop
      vertex -4.33013 -4 3
      vertex -3.96677 -3.45619 0
      vertex -3.96677 -3.45619 3
    endloop
  endfacet
  facet normal 0.83147 -0.55557 0
    outer loop
      vertex -3.96677 -3.45619 0
      vertex -4.33013 -4 3
      vertex -4.33013 -4 0
    endloop
  endfacet
  facet normal 0.75184 -0.659345 0
    outer loop
      vertex -3.96677 -3.45619 3
      vertex -3.53553 -2.96447 0
      vertex -3.53553 -2.96447 3
    endloop
  endfacet
  facet normal 0.75184 -0.659345 0
    outer loop
      vertex -3.53553 -2.96447 0
      vertex -3.96677 -3.45619 3
      vertex -3.96677 -3.45619 0
    endloop
  endfacet
  facet normal 0.94693 -0.32144 0
    outer loop
      vertex -4.82963 -5.2059 3
      vertex -4.6194 -4.58658 0
      vertex -4.6194 -4.58658 3
    endloop
  endfacet
  facet normal 0.94693 -0.32144 0
    outer loop
      vertex -4.6194 -4.58658 0
      vertex -4.82963 -5.2059 3
      vertex -4.82963 -5.2059 0
    endloop
  endfacet
  facet normal 0.55557 -0.83147 0
    outer loop
      vertex -3.04381 -2.53323 0
      vertex -2.5 -2.16987 3
      vertex -3.04381 -2.53323 3
    endloop
  endfacet
  facet normal 0.55557 -0.83147 0
    outer loop
      vertex -2.5 -2.16987 3
      vertex -3.04381 -2.53323 0
      vertex -2.5 -2.16987 0
    endloop
  endfacet
  facet normal 0.19509 -0.980785 0
    outer loop
      vertex -1.2941 -1.67037 0
      vertex -0.652631 -1.54278 3
      vertex -1.2941 -1.67037 3
    endloop
  endfacet
  facet normal 0.19509 -0.980785 0
    outer loop
      vertex -0.652631 -1.54278 3
      vertex -1.2941 -1.67037 0
      vertex -0.652631 -1.54278 0
    endloop
  endfacet
  facet normal -0.659345 0.75184 0
    outer loop
      vertex 3.53553 -10.0355 0
      vertex 3.04381 -10.4668 3
      vertex 3.53553 -10.0355 3
    endloop
  endfacet
  facet normal -0.659345 0.75184 0
    outer loop
      vertex 3.04381 -10.4668 3
      vertex 3.53553 -10.0355 0
      vertex 3.04381 -10.4668 0
    endloop
  endfacet
  facet normal -0.442288 0.896873 0
    outer loop
      vertex 2.5 -10.8301 0
      vertex 1.91342 -11.1194 3
      vertex 2.5 -10.8301 3
    endloop
  endfacet
  facet normal -0.442288 0.896873 0
    outer loop
      vertex 1.91342 -11.1194 3
      vertex 2.5 -10.8301 0
      vertex 1.91342 -11.1194 0
    endloop
  endfacet
  facet normal 0.442288 0.896873 -0
    outer loop
      vertex -1.91342 -11.1194 0
      vertex -2.5 -10.8301 3
      vertex -1.91342 -11.1194 3
    endloop
  endfacet
  facet normal 0.442288 0.896873 0
    outer loop
      vertex -2.5 -10.8301 3
      vertex -1.91342 -11.1194 0
      vertex -2.5 -10.8301 0
    endloop
  endfacet
  facet normal 0.32144 0.94693 -0
    outer loop
      vertex -1.2941 -11.3296 0
      vertex -1.91342 -11.1194 3
      vertex -1.2941 -11.3296 3
    endloop
  endfacet
  facet normal 0.32144 0.94693 0
    outer loop
      vertex -1.91342 -11.1194 3
      vertex -1.2941 -11.3296 0
      vertex -1.91342 -11.1194 0
    endloop
  endfacet
  facet normal 0.75184 0.659345 0
    outer loop
      vertex -3.53553 -10.0355 3
      vertex -3.96677 -9.54381 0
      vertex -3.96677 -9.54381 3
    endloop
  endfacet
  facet normal 0.75184 0.659345 0
    outer loop
      vertex -3.96677 -9.54381 0
      vertex -3.53553 -10.0355 3
      vertex -3.53553 -10.0355 0
    endloop
  endfacet
  facet normal -0.94693 -0.32144 0
    outer loop
      vertex 4.82963 -5.2059 0
      vertex 4.6194 -4.58658 3
      vertex 4.6194 -4.58658 0
    endloop
  endfacet
  facet normal -0.94693 -0.32144 0
    outer loop
      vertex 4.6194 -4.58658 3
      vertex 4.82963 -5.2059 0
      vertex 4.82963 -5.2059 3
    endloop
  endfacet
  facet normal -0.75184 -0.659345 0
    outer loop
      vertex 3.96677 -3.45619 0
      vertex 3.53553 -2.96447 3
      vertex 3.53553 -2.96447 0
    endloop
  endfacet
  facet normal -0.75184 -0.659345 0
    outer loop
      vertex 3.53553 -2.96447 3
      vertex 3.96677 -3.45619 0
      vertex 3.96677 -3.45619 3
    endloop
  endfacet
  facet normal -0.83147 -0.55557 0
    outer loop
      vertex 4.33013 -4 0
      vertex 3.96677 -3.45619 3
      vertex 3.96677 -3.45619 0
    endloop
  endfacet
  facet normal -0.83147 -0.55557 0
    outer loop
      vertex 3.96677 -3.45619 3
      vertex 4.33013 -4 0
      vertex 4.33013 -4 3
    endloop
  endfacet
  facet normal -0.0654023 -0.997859 0
    outer loop
      vertex 0 -1.5 0
      vertex 0.652631 -1.54278 3
      vertex 0 -1.5 3
    endloop
  endfacet
  facet normal -0.0654023 -0.997859 -0
    outer loop
      vertex 0.652631 -1.54278 3
      vertex 0 -1.5 0
      vertex 0.652631 -1.54278 0
    endloop
  endfacet
  facet normal 0.896873 -0.442289 0
    outer loop
      vertex -4.6194 -4.58658 3
      vertex -4.33013 -4 0
      vertex -4.33013 -4 3
    endloop
  endfacet
  facet normal 0.896873 -0.442289 0
    outer loop
      vertex -4.33013 -4 0
      vertex -4.6194 -4.58658 3
      vertex -4.6194 -4.58658 0
    endloop
  endfacet
  facet normal 0.980785 -0.19509 0
    outer loop
      vertex -4.95722 -5.84737 3
      vertex -4.82963 -5.2059 0
      vertex -4.82963 -5.2059 3
    endloop
  endfacet
  facet normal 0.980785 -0.19509 0
    outer loop
      vertex -4.82963 -5.2059 0
      vertex -4.95722 -5.84737 3
      vertex -4.95722 -5.84737 0
    endloop
  endfacet
  facet normal 0 0 -1
    outer loop
      vertex 4.95722 -7.15263 3
      vertex 4.95722 -5.84737 3
      vertex 5 -6.5 3
    endloop
  endfacet
  facet normal 0 0 -1
    outer loop
      vertex 4.82963 -7.7941 3
      vertex 4.95722 -5.84737 3
      vertex 4.95722 -7.15263 3
    endloop
  endfacet
  facet normal 0 0 -1
    outer loop
      vertex 4.82963 -7.7941 3
      vertex 4.82963 -5.2059 3
      vertex 4.95722 -5.84737 3
    endloop
  endfacet
  facet normal 0 0 -1
    outer loop
      vertex 4.6194 -8.41342 3
      vertex 4.82963 -5.2059 3
      vertex 4.82963 -7.7941 3
    endloop
  endfacet
  facet normal 0 0 -1
    outer loop
      vertex 4.6194 -8.41342 3
      vertex 4.6194 -4.58658 3
      vertex 4.82963 -5.2059 3
    endloop
  endfacet
  facet normal 0 0 -1
    outer loop
      vertex 4.33013 -9 3
      vertex 4.6194 -4.58658 3
      vertex 4.6194 -8.41342 3
    endloop
  endfacet
  facet normal 0 0 -1
    outer loop
      vertex 4.33013 -9 3
      vertex 4.33013 -4 3
      vertex 4.6194 -4.58658 3
    endloop
  endfacet
  facet normal 0 0 -1
    outer loop
      vertex 3.96677 -9.54381 3
      vertex 4.33013 -4 3
      vertex 4.33013 -9 3
    endloop
  endfacet
  facet normal 0 0 -1
    outer loop
      vertex 3.96677 -9.54381 3
      vertex 3.96677 -3.45619 3
      vertex 4.33013 -4 3
    endloop
  endfacet
  facet normal 0 0 -1
    outer loop
      vertex 3.53553 -10.0355 3
      vertex 3.96677 -3.45619 3
      vertex 3.96677 -9.54381 3
    endloop
  endfacet
  facet normal 0 0 -1
    outer loop
      vertex 3.53553 -10.0355 3
      vertex 3.53553 -2.96447 3
      vertex 3.96677 -3.45619 3
    endloop
  endfacet
  facet normal 0 0 -1
    outer loop
      vertex 3.04381 -10.4668 3
      vertex 3.53553 -2.96447 3
      vertex 3.53553 -10.0355 3
    endloop
  endfacet
  facet normal 0 0 -1
    outer loop
      vertex 3.04381 -10.4668 3
      vertex 3.04381 -2.53323 3
      vertex 3.53553 -2.96447 3
    endloop
  endfacet
  facet normal 0 0 -1
    outer loop
      vertex 2.5 -10.8301 3
      vertex 3.04381 -2.53323 3
      vertex 3.04381 -10.4668 3
    endloop
  endfacet
  facet normal 0 0 -1
    outer loop
      vertex 2.5 -10.8301 3
      vertex 2.5 -2.16987 3
      vertex 3.04381 -2.53323 3
    endloop
  endfacet
  facet normal 0 0 -1
    outer loop
      vertex 1.91342 -11.1194 3
      vertex 2.5 -2.16987 3
      vertex 2.5 -10.8301 3
    endloop
  endfacet
  facet normal 0 0 -1
    outer loop
      vertex 1.91342 -11.1194 3
      vertex 1.91342 -1.8806 3
      vertex 2.5 -2.16987 3
    endloop
  endfacet
  facet normal 0 0 -1
    outer loop
      vertex 1.2941 -11.3296 3
      vertex 1.91342 -1.8806 3
      vertex 1.91342 -11.1194 3
    endloop
  endfacet
  facet normal 0 0 -1
    outer loop
      vertex 1.2941 -11.3296 3
      vertex 1.2941 -1.67037 3
      vertex 1.91342 -1.8806 3
    endloop
  endfacet
  facet normal 0 0 -1
    outer loop
      vertex 0.652631 -11.4572 3
      vertex 1.2941 -1.67037 3
      vertex 1.2941 -11.3296 3
    endloop
  endfacet
  facet normal 0 0 -1
    outer loop
      vertex 0.652631 -11.4572 3
      vertex 0.652631 -1.54278 3
      vertex 1.2941 -1.67037 3
    endloop
  endfacet
  facet normal 0 0 -1
    outer loop
      vertex 0 -11.5 3
      vertex 0.652631 -1.54278 3
      vertex 0.652631 -11.4572 3
    endloop
  endfacet
  facet normal 0 0 -1
    outer loop
      vertex 0 -11.5 3
      vertex 0 -1.5 3
      vertex 0.652631 -1.54278 3
    endloop
  endfacet
  facet normal 0 0 -1
    outer loop
      vertex -0.652631 -11.4572 3
      vertex 0 -1.5 3
      vertex 0 -11.5 3
    endloop
  endfacet
  facet normal 0 0 -1
    outer loop
      vertex -0.652631 -11.4572 3
      vertex -0.652631 -1.54278 3
      vertex 0 -1.5 3
    endloop
  endfacet
  facet normal 0 0 -1
    outer loop
      vertex -1.2941 -11.3296 3
      vertex -0.652631 -1.54278 3
      vertex -0.652631 -11.4572 3
    endloop
  endfacet
  facet normal 0 0 -1
    outer loop
      vertex -1.2941 -11.3296 3
      vertex -1.2941 -1.67037 3
      vertex -0.652631 -1.54278 3
    endloop
  endfacet
  facet normal 0 0 -1
    outer loop
      vertex -1.91342 -11.1194 3
      vertex -1.2941 -1.67037 3
      vertex -1.2941 -11.3296 3
    endloop
  endfacet
  facet normal 0 0 -1
    outer loop
      vertex -1.91342 -11.1194 3
      vertex -1.91342 -1.8806 3
      vertex -1.2941 -1.67037 3
    endloop
  endfacet
  facet normal 0 0 -1
    outer loop
      vertex -1.91342 -11.1194 3
      vertex -2.5 -2.16987 3
      vertex -1.91342 -1.8806 3
    endloop
  endfacet
  facet normal 0 0 -1
    outer loop
      vertex -2.5 -10.8301 3
      vertex -2.5 -2.16987 3
      vertex -1.91342 -11.1194 3
    endloop
  endfacet
  facet normal 0 0 -1
    outer loop
      vertex -3.04381 -10.4668 3
      vertex -2.5 -2.16987 3
      vertex -2.5 -10.8301 3
    endloop
  endfacet
  facet normal 0 0 -1
    outer loop
      vertex -3.04381 -10.4668 3
      vertex -3.04381 -2.53323 3
      vertex -2.5 -2.16987 3
    endloop
  endfacet
  facet normal 0 0 -1
    outer loop
      vertex -3.53553 -10.0355 3
      vertex -3.04381 -2.53323 3
      vertex -3.04381 -10.4668 3
    endloop
  endfacet
  facet normal 0 0 -1
    outer loop
      vertex -3.53553 -10.0355 3
      vertex -3.53553 -2.96447 3
      vertex -3.04381 -2.53323 3
    endloop
  endfacet
  facet normal 0 0 -1
    outer loop
      vertex -3.96677 -9.54381 3
      vertex -3.53553 -2.96447 3
      vertex -3.53553 -10.0355 3
    endloop
  endfacet
  facet normal 0 0 -1
    outer loop
      vertex -3.96677 -9.54381 3
      vertex -3.96677 -3.45619 3
      vertex -3.53553 -2.96447 3
    endloop
  endfacet
  facet normal 0 0 -1
    outer loop
      vertex -4.33013 -9 3
      vertex -3.96677 -3.45619 3
      vertex -3.96677 -9.54381 3
    endloop
  endfacet
  facet normal 0 0 -1
    outer loop
      vertex -4.33013 -9 3
      vertex -4.33013 -4 3
      vertex -3.96677 -3.45619 3
    endloop
  endfacet
  facet normal 0 0 -1
    outer loop
      vertex -4.6194 -8.41342 3
      vertex -4.33013 -4 3
      vertex -4.33013 -9 3
    endloop
  endfacet
  facet normal 0 0 -1
    outer loop
      vertex -4.6194 -8.41342 3
      vertex -4.6194 -4.58658 3
      vertex -4.33013 -4 3
    endloop
  endfacet
  facet normal 0 0 -1
    outer loop
      vertex -4.82963 -7.7941 3
      vertex -4.6194 -4.58658 3
      vertex -4.6194 -8.41342 3
    endloop
  endfacet
  facet normal 0 0 -1
    outer loop
      vertex -4.82963 -7.7941 3
      vertex -4.82963 -5.2059 3
      vertex -4.6194 -4.58658 3
    endloop
  endfacet
  facet normal 0 0 -1
    outer loop
      vertex -4.95722 -7.15263 3
      vertex -4.82963 -5.2059 3
      vertex -4.82963 -7.7941 3
    endloop
  endfacet
  facet normal 0 0 -1
    outer loop
      vertex -4.95722 -7.15263 3
      vertex -4.95722 -5.84737 3
      vertex -4.82963 -5.2059 3
    endloop
  endfacet
  facet normal 0 -0 -1
    outer loop
      vertex -4.95722 -5.84737 3
      vertex -4.95722 -7.15263 3
      vertex -5 -6.5 3
    endloop
  endfacet
  facet normal -0.997859 0.0654038 0
    outer loop
      vertex 4.95722 -7.15263 0
      vertex 5 -6.5 3
      vertex 5 -6.5 0
    endloop
  endfacet
  facet normal -0.997859 0.0654038 0
    outer loop
      vertex 5 -6.5 3
      vertex 4.95722 -7.15263 0
      vertex 4.95722 -7.15263 3
    endloop
  endfacet
  facet normal -0.0654038 0.997859 0
    outer loop
      vertex 0.652631 -11.4572 0
      vertex 0 -11.5 3
      vertex 0.652631 -11.4572 3
    endloop
  endfacet
  facet normal -0.0654038 0.997859 0
    outer loop
      vertex 0 -11.5 3
      vertex 0.652631 -11.4572 0
      vertex 0 -11.5 0
    endloop
  endfacet
  facet normal -0.32144 0.94693 0
    outer loop
      vertex 1.91342 -11.1194 0
      vertex 1.2941 -11.3296 3
      vertex 1.91342 -11.1194 3
    endloop
  endfacet
  facet normal -0.32144 0.94693 0
    outer loop
      vertex 1.2941 -11.3296 3
      vertex 1.91342 -11.1194 0
      vertex 1.2941 -11.3296 0
    endloop
  endfacet
  facet normal -0.55557 0.831469 0
    outer loop
      vertex 3.04381 -10.4668 0
      vertex 2.5 -10.8301 3
      vertex 3.04381 -10.4668 3
    endloop
  endfacet
  facet normal -0.55557 0.831469 0
    outer loop
      vertex 2.5 -10.8301 3
      vertex 3.04381 -10.4668 0
      vertex 2.5 -10.8301 0
    endloop
  endfacet
  facet normal -0.831469 0.55557 0
    outer loop
      vertex 3.96677 -9.54381 0
      vertex 4.33013 -9 3
      vertex 4.33013 -9 0
    endloop
  endfacet
  facet normal -0.831469 0.55557 0
    outer loop
      vertex 4.33013 -9 3
      vertex 3.96677 -9.54381 0
      vertex 3.96677 -9.54381 3
    endloop
  endfacet
  facet normal -0.75184 0.659345 0
    outer loop
      vertex 3.53553 -10.0355 0
      vertex 3.96677 -9.54381 3
      vertex 3.96677 -9.54381 0
    endloop
  endfacet
  facet normal -0.75184 0.659345 0
    outer loop
      vertex 3.96677 -9.54381 3
      vertex 3.53553 -10.0355 0
      vertex 3.53553 -10.0355 3
    endloop
  endfacet
  facet normal 0.55557 0.831469 -0
    outer loop
      vertex -2.5 -10.8301 0
      vertex -3.04381 -10.4668 3
      vertex -2.5 -10.8301 3
    endloop
  endfacet
  facet normal 0.55557 0.831469 0
    outer loop
      vertex -3.04381 -10.4668 3
      vertex -2.5 -10.8301 0
      vertex -3.04381 -10.4668 0
    endloop
  endfacet
  facet normal 0.659345 0.75184 -0
    outer loop
      vertex -3.04381 -10.4668 0
      vertex -3.53553 -10.0355 3
      vertex -3.04381 -10.4668 3
    endloop
  endfacet
  facet normal 0.659345 0.75184 0
    outer loop
      vertex -3.53553 -10.0355 3
      vertex -3.04381 -10.4668 0
      vertex -3.53553 -10.0355 0
    endloop
  endfacet
  facet normal 0.19509 0.980785 -0
    outer loop
      vertex -0.652631 -11.4572 0
      vertex -1.2941 -11.3296 3
      vertex -0.652631 -11.4572 3
    endloop
  endfacet
  facet normal 0.19509 0.980785 0
    outer loop
      vertex -1.2941 -11.3296 3
      vertex -0.652631 -11.4572 0
      vertex -1.2941 -11.3296 0
    endloop
  endfacet
  facet normal 0.896873 0.442289 0
    outer loop
      vertex -4.33013 -9 3
      vertex -4.6194 -8.41342 0
      vertex -4.6194 -8.41342 3
    endloop
  endfacet
  facet normal 0.896873 0.442289 0
    outer loop
      vertex -4.6194 -8.41342 0
      vertex -4.33013 -9 3
      vertex -4.33013 -9 0
    endloop
  endfacet
  facet normal 0.94693 0.32144 0
    outer loop
      vertex -4.6194 -8.41342 3
      vertex -4.82963 -7.7941 0
      vertex -4.82963 -7.7941 3
    endloop
  endfacet
  facet normal 0.94693 0.32144 0
    outer loop
      vertex -4.82963 -7.7941 0
      vertex -4.6194 -8.41342 3
      vertex -4.6194 -8.41342 0
    endloop
  endfacet
  facet normal 0.997859 0.0654037 0
    outer loop
      vertex -4.95722 -7.15263 3
      vertex -5 -6.5 0
      vertex -5 -6.5 3
    endloop
  endfacet
  facet normal 0.997859 0.0654037 0
    outer loop
      vertex -5 -6.5 0
      vertex -4.95722 -7.15263 3
      vertex -4.95722 -7.15263 0
    endloop
  endfacet
  facet normal -0.442288 -0.896873 0
    outer loop
      vertex 1.91342 -1.8806 0
      vertex 2.5 -2.16987 3
      vertex 1.91342 -1.8806 3
    endloop
  endfacet
  facet normal -0.442288 -0.896873 -0
    outer loop
      vertex 2.5 -2.16987 3
      vertex 1.91342 -1.8806 0
      vertex 2.5 -2.16987 0
    endloop
  endfacet
  facet normal 0.442289 -0.896873 0
    outer loop
      vertex -2.5 -2.16987 0
      vertex -1.91342 -1.8806 3
      vertex -2.5 -2.16987 3
    endloop
  endfacet
  facet normal 0.442289 -0.896873 0
    outer loop
      vertex -1.91342 -1.8806 3
      vertex -2.5 -2.16987 0
      vertex -1.91342 -1.8806 0
    endloop
  endfacet
  facet normal -0.19509 0.980785 0
    outer loop
      vertex 1.2941 -11.3296 0
      vertex 0.652631 -11.4572 3
      vertex 1.2941 -11.3296 3
    endloop
  endfacet
  facet normal -0.19509 0.980785 0
    outer loop
      vertex 0.652631 -11.4572 3
      vertex 1.2941 -11.3296 0
      vertex 0.652631 -11.4572 0
    endloop
  endfacet
  facet normal -0.896873 0.442288 0
    outer loop
      vertex 4.33013 -9 0
      vertex 4.6194 -8.41342 3
      vertex 4.6194 -8.41342 0
    endloop
  endfacet
  facet normal -0.896873 0.442288 0
    outer loop
      vertex 4.6194 -8.41342 3
      vertex 4.33013 -9 0
      vertex 4.33013 -9 3
    endloop
  endfacet
  facet normal -0.94693 0.32144 0
    outer loop
      vertex 4.6194 -8.41342 0
      vertex 4.82963 -7.7941 3
      vertex 4.82963 -7.7941 0
    endloop
  endfacet
  facet normal -0.94693 0.32144 0
    outer loop
      vertex 4.82963 -7.7941 3
      vertex 4.6194 -8.41342 0
      vertex 4.6194 -8.41342 3
    endloop
  endfacet
  facet normal -0.980785 0.19509 0
    outer loop
      vertex 4.82963 -7.7941 0
      vertex 4.95722 -7.15263 3
      vertex 4.95722 -7.15263 0
    endloop
  endfacet
  facet normal -0.980785 0.19509 0
    outer loop
      vertex 4.95722 -7.15263 3
      vertex 4.82963 -7.7941 0
      vertex 4.82963 -7.7941 3
    endloop
  endfacet
  facet normal 0.83147 0.55557 0
    outer loop
      vertex -3.96677 -9.54381 3
      vertex -4.33013 -9 0
      vertex -4.33013 -9 3
    endloop
  endfacet
  facet normal 0.83147 0.55557 0
    outer loop
      vertex -4.33013 -9 0
      vertex -3.96677 -9.54381 3
      vertex -3.96677 -9.54381 0
    endloop
  endfacet
  facet normal 0.980785 0.19509 0
    outer loop
      vertex -4.82963 -7.7941 3
      vertex -4.95722 -7.15263 0
      vertex -4.95722 -7.15263 3
    endloop
  endfacet
  facet normal 0.980785 0.19509 0
    outer loop
      vertex -4.95722 -7.15263 0
      vertex -4.82963 -7.7941 3
      vertex -4.82963 -7.7941 0
    endloop
  endfacet
endsolid OpenSCAD_Model
